
<svg class="bk-icon" style="width: 1em; height: 1em;vertical-align: middle;fill: currentColor;overflow: hidden;" viewBox="0 0 24 24" version="1.1" xmlns="http://www.w3.org/2000/svg">

<path d="M9 6.78c2.426 0.445 4.31 2.329 4.749 4.719l0.126 0.876c0.039 1.96 0.764 3.743 1.944 5.126 0.767 0.887 1.899 1.46 3.166 1.489 0.068 0.003 0.142 0.005 0.216 0.005 1.168 0 2.238-0.421 3.066-1.12 1.111-0.993 1.812-2.44 1.812-4.050 0-0.327-0.029-0.646-0.084-0.957-0.37-2.71-2.257-4.932-4.775-5.787-0.137-1.406-0.785-2.63-1.769-3.474-0.875-0.807-2.040-1.299-3.319-1.299-0.362 0-0.715 0.039-1.055 0.114-1.195 0.308-2.227 1.004-2.958 1.947-0.125 0.144-0.196 0.318-0.196 0.508 0 0.227 0.101 0.431 0.261 0.569l0.091 0.001c-0.38-0.095-0.818-0.155-1.268-0.165-0.143-0.009-0.303-0.015-0.464-0.015s-0.321 0.005-0.479 0.016l0.022-0.256c0.050-0.605 0.403-1.118 0.906-1.39 0.215-0.141 0.35-0.372 0.35-0.635 0-0.416-0.337-0.753-0.753-0.753-0.153 0-0.296 0.046-0.415 0.125-0.499 0.32-0.895 0.769-1.144 1.299-0.358-0.151-0.77-0.251-1.205-0.251-0.203 0-0.401 0.022-0.592 0.063-0.329 0.075-0.585 0.381-0.585 0.747 0 0.424 0.344 0.768 0.768 0.768 0.058 0 0.115-0.007 0.17-0.019 0.050-0.007 0.113-0.012 0.177-0.012 0.423 0 0.801 0.197 1.046 0.505l0.002 0.003c-2.865 0.66-4.62 3.27-5.625 5.55-0.78 1.755-1.89 5.055-0.57 7.425 0.694 1.431 2.085 2.427 3.72 2.549l16.515 0.001c0.414 0 0.75-0.336 0.75-0.75s-0.336-0.75-0.75-0.75h-16.5c-1.098-0.115-2.011-0.808-2.437-1.766-1.043-1.879 0.082-4.894 0.622-6.109 1.545-3.45 3.675-5.1 6.465-4.845zM11.25 5.37c0.535-0.726 1.296-1.257 2.177-1.494 0.236-0.051 0.475-0.076 0.72-0.076 0.888 0 1.698 0.334 2.311 0.883 0.745 0.675 1.213 1.65 1.213 2.735 0 0.029-0 0.058-0.001 0.087l0 0.761 0.585 0.090c2.233 0.546 3.92 2.379 4.242 4.65 0.045 0.246 0.069 0.495 0.069 0.75 0 1.231-0.553 2.332-1.424 3.070-0.504 0.388-1.137 0.618-1.824 0.618-0.099 0-0.198-0.005-0.295-0.014 0.012 0.001 0.012 0.001 0.012 0.001-0.834 0-1.583-0.364-2.097-0.942-0.923-1.143-1.486-2.606-1.502-4.199l-0.135-0.994c-0.538-2.619-2.351-4.72-4.748-5.652-0.026-0.015 0.005-0.013 0.036-0.013 0.24 0 0.455-0.106 0.6-0.274z" />
</svg>
