<svg viewBox="0 0 32 32" version="1.1" xmlns="http://www.w3.org/2000/svg"><path d="M31.527 26.217l-1.149-0.67c0.063-0.323 0.101-0.695 0.104-1.076l0-0.003c-0.004-0.384-0.042-0.757-0.111-1.118l0.006 0.039 1.149-0.67c0.295-0.175 0.49-0.492 0.49-0.855 0-0.182-0.049-0.352-0.134-0.498l0.003 0.005-0.975-1.706c-0.173-0.298-0.49-0.496-0.854-0.496-0.179 0-0.347 0.048-0.492 0.132l0.005-0.003-1.157 0.67c-0.52-0.454-1.129-0.822-1.795-1.074l-0.041-0.014v-0.835c0-0.003 0-0.006 0-0.009 0-0.538-0.436-0.974-0.974-0.975h-1.966c-0.539 0.003-0.974 0.441-0.974 0.98 0 0.001 0 0.002 0 0.003v-0 0.835c-0.688 0.244-1.297 0.627-1.836 1.088l-1.158-0.67c-0.14-0.083-0.309-0.132-0.49-0.132-0.363 0-0.68 0.198-0.848 0.493l-0.003 0.005-0.984 1.714c-0.083 0.142-0.132 0.312-0.132 0.494 0 0.362 0.194 0.679 0.484 0.852l0.005 0.003 1.149 0.67c-0.063 0.323-0.101 0.695-0.104 1.076l-0 0.003c0.004 0.384 0.042 0.757 0.111 1.118l-0.006-0.039-1.149 0.67c-0.295 0.175-0.489 0.492-0.489 0.854 0 0.182 0.049 0.353 0.135 0.499l-0.003-0.005 0.975 1.705c0.173 0.298 0.49 0.495 0.853 0.495 0.179 0 0.347-0.048 0.492-0.132l-0.005 0.003 1.157-0.67c0.52 0.454 1.129 0.822 1.795 1.074l0.041 0.014v0.835c-0 0.003-0 0.005-0 0.008 0 0.538 0.436 0.975 0.975 0.975h1.957c0.539-0.003 0.975-0.441 0.975-0.981 0-0.001 0-0.002 0-0.003v0-0.835c0.689-0.244 1.3-0.626 1.837-1.087l1.157 0.67c0.14 0.083 0.309 0.132 0.49 0.132 0.363 0 0.68-0.198 0.848-0.493l0.003-0.005 0.975-1.705c0.289-0.486 0.132-1.088-0.338-1.357zM24.614 27.891c-1.888 0-3.419-1.531-3.419-3.419s1.531-3.419 3.419-3.419c1.888 0 3.419 1.531 3.419 3.419v0c0 1.888-1.531 3.419-3.419 3.419v0z"/><path d="M24.218 15.202c0.794 0 1.588 0.198 2.382 0.397v-6.749l-8.933-8.734h-16.439c-0.678 0-1.228 0.55-1.228 1.228v0 27.717c0 0.678 0.55 1.228 1.228 1.228v0h15.843c-1.189-1.786-1.985-3.771-1.985-5.955 0-5.161 4.168-9.131 9.131-9.131zM16.674 3.492l6.749 6.749h-6.749zM5.161 10.436h6.749v1.985h-6.749zM11.712 20.957h-6.551v-1.984h6.749zM13.498 16.591h-8.337v-1.985h8.337z"/></svg>