<svg viewBox="0 0 24 24" version="1.1" xmlns="http://www.w3.org/2000/svg"><path d="M2.73 3.18c-0.13-0.112-0.301-0.18-0.487-0.18-0.414 0-0.75 0.336-0.75 0.75 0 0.228 0.101 0.432 0.262 0.569l19.501 16.501c0.13 0.112 0.301 0.18 0.488 0.18 0.414 0 0.75-0.336 0.75-0.75 0-0.228-0.101-0.432-0.262-0.569z"/><path d="M12 9l3 2.55c-0.226-1.452-1.468-2.55-2.966-2.55-0.012 0-0.024 0-0.036 0z"/><path d="M12 7.5c2.483 0.002 4.496 2.016 4.496 4.5 0 0.281-0.026 0.556-0.075 0.823l5.299 4.472c1.386-1.344 2.254-3.216 2.28-5.29 0-4.97-5.385-9.005-12-9.005-0.017-0-0.037-0-0.057-0-2.079 0-4.059 0.419-5.863 1.177l4.42 3.608c0.445-0.172 0.959-0.275 1.496-0.285z"/><path d="M12 15l-3-2.55c0.226 1.452 1.468 2.55 2.966 2.55 0.012 0 0.024-0 0.036-0z"/><path d="M12 16.5c-2.483-0.002-4.496-2.016-4.496-4.5 0-0.281 0.026-0.556 0.075-0.823l-5.299-4.472c-1.386 1.344-2.254 3.216-2.28 5.29-0 4.97 5.385 9.005 12 9.005 0.017 0 0.037 0 0.057 0 2.079 0 4.059-0.419 5.863-1.177l-4.42-3.608c-0.445 0.172-0.959 0.275-1.496 0.285z"/></svg>