<svg viewBox="0 0 24 24" version="1.1" xmlns="http://www.w3.org/2000/svg"><path d="M19.5 14.4v-10.8c-0.041-1.169-0.998-2.101-2.174-2.101-0.027 0-0.054 0-0.080 0.001l-14.996-0c-0.023-0.001-0.049-0.001-0.076-0.001-1.175 0-2.133 0.932-2.174 2.098l-0 10.804c0.041 1.169 0.998 2.101 2.174 2.101 0.027 0 0.054-0 0.080-0.001l0.746 0v2.25c0.002 0.31 0.191 0.575 0.46 0.688 0.048 0.011 0.097 0.015 0.147 0.015s0.1-0.005 0.147-0.014c0.201-0.002 0.386-0.088 0.52-0.224l2.79-2.715h10.185c0.023 0.001 0.049 0.001 0.076 0.001 1.175 0 2.133-0.932 2.174-2.098z"/><path d="M21.75 4.5c-0.414 0-0.75 0.336-0.75 0.75v10.5c0 1.243-1.007 2.25-2.25 2.25h-9c-0.414 0-0.75 0.336-0.75 0.75s0.336 0.75 0.75 0.75h7.185l2.775 2.775c0.137 0.142 0.328 0.23 0.54 0.23 0.414 0 0.75-0.336 0.75-0.75 0-0.002 0-0.003-0-0.005v-2.25h0.75c0.023 0.001 0.049 0.001 0.076 0.001 1.175 0 2.133-0.932 2.174-2.098l0-10.804c-0.041-1.169-0.998-2.101-2.174-2.101-0.027 0-0.054 0-0.080 0.001z"/></svg>
