<svg viewBox="0 0 1024 1024" version="1.1" xmlns="http://www.w3.org/2000/svg"><path d="M429.6 512a81.92 81.92 0 0 0 30.56 64 272.96 272.96 0 0 1 93.6-133.92A81.76 81.76 0 0 0 429.6 512Z"/><path d="M448 656c0-7.68 0-15.04 1.12-22.56a137.12 137.12 0 1 1 154.88-224 269.92 269.92 0 0 1 249.92 9.28l25.12-22.08a400 400 0 0 0-26.24-64l-16-27.52a404.32 404.32 0 0 0-41.6-54.4l-88.16 29.76a299.84 299.84 0 0 0-92.48-53.6L596.32 136.48A394.24 394.24 0 0 0 537.76 128H486.08a400 400 0 0 0-57.6 8.16l-18.24 91.2a301.92 301.92 0 0 0-93.12 53.92l-88.16-29.92a386.4 386.4 0 0 0-34.88 44l-28.64 49.6a390.08 390.08 0 0 0-20.48 51.68l69.92 61.6A306.88 306.88 0 0 0 210.24 512a299.04 299.04 0 0 0 4.8 53.92L145.12 626.88a378.56 378.56 0 0 0 23.04 56.96l22.24 38.56a394.72 394.72 0 0 0 39.04 49.92l88.32-29.76a305.44 305.44 0 0 0 92.16 53.12l18.24 91.2A389.76 389.76 0 0 0 512 896a382.56 382.56 0 0 0 69.44-6.4A272 272 0 0 1 448 656Z"/><path d="M770.88 553.76A54.72 54.72 0 1 0 825.6 608 54.56 54.56 0 0 0 770.88 553.76Z"/><path d="M720 432A224 224 0 1 0 944 656 224 224 0 0 0 720 432Zm51.04 267.36h0a90.24 90.24 0 0 1-50.24-16l-41.6 41.6L704.8 752l-25.76 25.76L653.28 752l-12.96 12.96 25.76 25.76L640 816l-25.76-25.76h0L588.8 764.48l38.72-38.72h0l25.76-25.76h0l41.6-41.6a91.2 91.2 0 1 1 76.16 40.96Z"/></svg>
