

<svg class="bk-icon" style="width: 1em; height: 1em;vertical-align: middle;fill: currentColor;overflow: hidden;" viewBox="0 0 1024 1024" version="1.1" xmlns="http://www.w3.org/2000/svg">
































































<g>
	<path fill="#737987" d="M512,64C264.6,64,64,264.6,64,512s200.6,448,448,448s448-200.6,448-448S759.4,64,512,64z M552,728.9h-80v-80
		h80V728.9z M637.4,497c-15.2,21.6-36.6,38.8-61.6,49.8c-14.4,6.3-23.7,20.9-23.7,37.2v25h-80v-25c0-48.1,28.1-91.4,71.6-110.5
		c23.7-10.4,38.4-30.9,38.4-53.5c0-33.1-31.4-60-70-60s-70,26.9-70,60h-80c0-38.1,16.1-73.7,45.3-100.3
		C435.5,294.1,472.6,280,512,280s76.5,14.1,104.7,39.7C645.9,346.3,662,381.9,662,420C662,447.5,653.5,474.1,637.4,497z"/>
</g>




















</svg>
