<svg viewBox="0 0 64 64" version="1.1" xmlns="http://www.w3.org/2000/svg"><path d="M41.8,28.1l-9,3.7C32.5,31.9,32.3,32,32,32s-0.5-0.1-0.8-0.2l-9-3.7L13,32l19,8l19-8L41.8,28.1z M32,7.9	c0.3,0,0.5,0.1,0.8,0.2L59.3,19c0.8,0.4,0.8,1.6,0,1.9L47,26l12.3,5c0.8,0.4,0.8,1.6,0,1.9L47,38L59.4,43c0.8,0.4,0.8,1.6,0,1.9	L32.8,55.8C32.5,56,32.3,56,32,56s-0.5-0.1-0.8-0.2L4.6,45c-0.8-0.4-0.8-1.6,0-1.9L17,38L4.6,33c-0.8-0.4-0.8-1.6,0-1.9L17,26	L4.6,21c-0.8-0.4-0.8-1.6,0-1.9L31.2,8.2C31.5,8,31.7,7.9,32,7.9z"/></svg>