<svg class="bk-icon" style="width: 1em; height: 1em;vertical-align: middle;fill: currentColor;overflow: hidden;" viewBox="0 0 64 64" version="1.1" xmlns="http://www.w3.org/2000/svg"><g><g><g><g><g><g><path  fill="#727985" d="M8.06,9.43A1.49,1.49,0,0,1,9.19,8S28.85,3.94,32,3.94,54.84,8,54.84,8a1.46,1.46,0,0,1,1.1,1.4V30.75c0,7.83-5,17.78-11.32,22.13,0,0-9.33,7.15-12.5,7.15s-12.71-7.21-12.71-7.21C13.14,48.46,8.06,38.58,8.06,30.75Zm22.25,9.73L25.23,32.84a.61.61,0,0,0,.58.9h4.88a.75.75,0,0,1,.73,1l-1.58,8c-.42,2.1.21,2.38,1.4.65L41,29.12c.3-.43.12-.79-.39-.8l-6.09-.16a.59.59,0,0,1-.55-.9l3.41-8.13a.58.58,0,0,0-.56-.88H31.57a1.46,1.46,0,0,0-1.26.9Z"/></g></g></g></g></g></g></svg>