<svg viewBox="0 0 1024 1024" version="1.1" xmlns="http://www.w3.org/2000/svg"><path d="M512 112c-185.6 0-336 44.8-336 102.4v84.8c0 56 150.4 102.4 336 102.4s336-44.8 336-102.4v-84.8C848 156.8 697.6 112 512 112z"/><path d="M784 720c0 44.8-35.2 81.6-80 81.6s-80-36.8-80-81.6 35.2-81.6 80-81.6S784 675.2 784 720M889.6 665.6c-1.6-8-9.6-12.8-16-11.2-3.2 0-4.8 0-8 0-9.6-1.6-17.6-8-20.8-16-6.4-11.2-6.4-24 1.6-35.2 4.8-6.4 3.2-14.4-1.6-20.8-9.6-9.6-20.8-19.2-32-27.2-17.6-12.8-36.8-20.8-59.2-27.2-8-1.6-14.4 1.6-17.6 8-4.8 11.2-16 17.6-28.8 17.6l0 0c-12.8 0-24-6.4-28.8-17.6-3.2-6.4-11.2-11.2-17.6-8-20.8 4.8-40 14.4-59.2 27.2-11.2 8-22.4 16-32 27.2-4.8 6.4-6.4 14.4-1.6 20.8 6.4 9.6 6.4 24 1.6 35.2-4.8 8-12.8 14.4-20.8 16-3.2 0-4.8 1.6-8 0-8 0-14.4 4.8-16 11.2C515.2 683.2 512 702.4 512 720s3.2 36.8 8 54.4c1.6 8 9.6 12.8 16 11.2 3.2 0 6.4 0 8 0 11.2 1.6 19.2 9.6 24 19.2s3.2 22.4-3.2 30.4c-4.8 6.4-3.2 14.4 1.6 20.8 9.6 9.6 20.8 19.2 32 27.2 17.6 12.8 36.8 20.8 59.2 27.2 8 1.6 14.4-1.6 17.6-8 4.8-11.2 16-17.6 28.8-17.6s24 6.4 28.8 17.6c3.2 6.4 11.2 11.2 17.6 8 20.8-4.8 40-14.4 59.2-27.2 11.2-8 22.4-16 32-27.2 4.8-6.4 6.4-14.4 1.6-20.8-6.4-9.6-6.4-24-1.6-35.2 4.8-8 12.8-14.4 20.8-16 3.2 0 4.8 0 8 0 8 0 14.4-4.8 16-11.2 4.8-17.6 8-35.2 8-54.4C896 700.8 894.4 683.2 889.6 665.6"/><path d="M448 732.8c-139.2-11.2-272-59.2-272-100.8v158.4l0 0v17.6c0 57.6 150.4 120 336 120 14.4 0 27.2 0 41.6-1.6C492.8 883.2 452.8 812.8 448 732.8z"/><path d="M704 464c52.8 0 102.4 16 144 44.8v-132.8c0 51.2-160 92.8-336 92.8-160 0-336-41.6-336-92.8V544l0 0v1.6c0 54.4 120 112 276.8 123.2C476.8 552 579.2 464 704 464z"/></svg>
