<svg viewBox="0 0 32 32" version="1.1" xmlns="http://www.w3.org/2000/svg"><path d="M31.523 26.605l-1.086-0.633c0.060-0.304 0.096-0.656 0.1-1.015l0-0.003c-0.004-0.363-0.040-0.715-0.105-1.057l0.006 0.037 1.085-0.636c0.279-0.166 0.462-0.465 0.462-0.808 0-0.172-0.046-0.333-0.127-0.472l0.002 0.004-0.921-1.613c-0.163-0.282-0.464-0.468-0.807-0.468-0.169 0-0.328 0.045-0.465 0.124l0.005-0.002-1.094 0.633c-0.492-0.429-1.068-0.777-1.698-1.014l-0.039-0.013v-0.79c0-0.002 0-0.005 0-0.008 0-0.509-0.413-0.922-0.921-0.922h-1.858c-0.51 0.003-0.922 0.417-0.922 0.927 0 0.001 0 0.002 0 0.003v-0 0.79c-0.65 0.231-1.226 0.592-1.736 1.028l-1.094-0.635c-0.133-0.078-0.292-0.125-0.463-0.125-0.344 0-0.643 0.188-0.802 0.467l-0.002 0.005-0.93 1.621c-0.078 0.134-0.124 0.295-0.124 0.467 0 0.343 0.183 0.642 0.457 0.806l0.004 0.002 1.086 0.633c-0.060 0.305-0.096 0.657-0.099 1.018l-0 0.003c0.004 0.363 0.040 0.715 0.105 1.057l-0.006-0.037-1.086 0.633c-0.279 0.166-0.462 0.465-0.462 0.808 0 0.172 0.046 0.333 0.127 0.472l-0.002-0.004 0.922 1.613c0.163 0.282 0.463 0.468 0.807 0.468 0.169 0 0.328-0.045 0.464-0.124l-0.004 0.002 1.094-0.634c0.492 0.429 1.067 0.778 1.697 1.016l0.039 0.013v0.79c-0 0.002-0 0.005-0 0.007 0 0.509 0.413 0.922 0.921 0.922h1.851c0.51-0.003 0.921-0.417 0.921-0.927 0-0.001 0-0.002 0-0.003v0-0.79c0.65-0.231 1.226-0.592 1.736-1.029l1.094 0.634c0.133 0.078 0.292 0.124 0.462 0.124 0.344 0 0.643-0.188 0.803-0.466l0.002-0.005 0.922-1.613c0.272-0.46 0.124-1.027-0.321-1.283zM24.986 28.188c-0.001 0-0.001 0-0.002 0-1.786 0-3.235-1.448-3.235-3.235s1.448-3.235 3.235-3.235c1.786 0 3.235 1.448 3.235 3.235v0c0 1.786-1.447 3.234-3.233 3.235h-0z"/><path d="M18.397 17.829v-16.652c-0.002-0.628-0.51-1.137-1.137-1.139h-16.122c-0.628 0.002-1.136 0.511-1.138 1.139v27.181c0.002 0.628 0.51 1.137 1.137 1.139h15.46c-0.78-1.35-1.24-2.969-1.24-4.696 0-2.752 1.168-5.23 3.036-6.967l0.006-0.005zM9.198 22.132c-1.104 0-1.84-0.736-1.84-1.841 0-1.006 0.834-1.841 1.84-1.841 1.104 0 1.84 0.737 1.84 1.841 0 1.006-0.834 1.841-1.84 1.841zM14.718 11.086h-11.038v-1.841h11.038zM14.718 5.562h-11.038v-1.841h11.038z"/></svg>