<?xml version="1.0" standalone="no"?><!DOCTYPE svg PUBLIC "-//W3C//DTD SVG 1.1//EN" "http://www.w3.org/Graphics/SVG/1.1/DTD/svg11.dtd"><svg t="1588240715833" class="icon" viewBox="0 0 1024 1024" version="1.1" xmlns="http://www.w3.org/2000/svg" p-id="9407" xmlns:xlink="http://www.w3.org/1999/xlink" width="40" height="40"><defs><style type="text/css"></style></defs><path d="M28.672 154.624v718.848l548.864 95.232V54.272L28.672 154.624z" fill="#FF3333" p-id="9408"></path><path d="M364.544 689.152l-21.504-80.896-100.352-4.096-19.456 77.824-63.488-4.096L256 334.848l74.752-4.096L437.248 696.32l-72.704-7.168z" fill="#FFFFFF" p-id="9409"></path><path d="M993.28 633.856c-2.048 21.504-31.744 38.912-89.088 53.248-57.344 12.288-128 19.456-212.992 19.456-25.6 0-49.152 0-72.704-2.048v132.096c23.552 2.048 47.104 2.048 72.704 2.048 84.992 0 155.648-8.192 212.992-23.552s87.04-31.744 89.088-55.296V633.856z m-301.056-96.256c-25.6 0-47.104 0-72.704-2.048l2.048 136.192c23.552 0 47.104 2.048 72.704 2.048 84.992 0 155.648-7.168 212.992-23.552 57.344-14.336 84.992-31.744 89.088-55.296V465.92c-2.048 21.504-31.744 38.912-89.088 53.248-59.392 12.288-130.048 18.432-215.04 18.432z m0-165.888c-25.6 0-47.104 0-72.704-2.048v134.144c23.552 2.048 47.104 2.048 72.704 2.048 84.992 0 155.648-8.192 212.992-23.552s87.04-31.744 89.088-55.296V299.008c-2.048 21.504-31.744 38.912-89.088 53.248-57.344 13.312-128 19.456-212.992 19.456z m0-187.392c-25.6 0-47.104 2.048-72.704 4.096V337.92c23.552 2.048 47.104 2.048 72.704 2.048 84.992 0 155.648-8.192 212.992-23.552s87.04-31.744 89.088-55.296c-2.048-21.504-31.744-40.96-89.088-55.296-57.344-14.336-128-21.504-212.992-21.504z" fill="#FF6666" p-id="9410"></path><path d="M291.84 395.264c-2.048 8.192-7.168 33.792-15.36 76.8l-17.408 74.752 72.704 2.048-18.432-74.752c-10.24-43.008-17.408-68.608-17.408-76.8l-4.096-2.048z" fill="#FF3333" p-id="9411"></path></svg>