<?xml version="1.0" standalone="no"?><!DOCTYPE svg PUBLIC "-//W3C//DTD SVG 1.1//EN" "http://www.w3.org/Graphics/SVG/1.1/DTD/svg11.dtd"><svg t="1634784395958" class="icon" viewBox="0 0 1024 1024" version="1.1" xmlns="http://www.w3.org/2000/svg" p-id="4467" xmlns:xlink="http://www.w3.org/1999/xlink" width="200" height="200"><defs><style type="text/css"></style></defs><path d="M777.813333 478.293333c-1.28-6.826667-20.053333-30.293333-56.32-70.4-0.853333-8.106667 12.373333-19.2 38.4-34.133333l74.24-66.133333c16.64-21.333333 26.453333-54.613333 29.44-101.546667l-0.853333-11.093333c-2.986667-33.28-26.88-59.733333-72.106667-80.64-26.88-17.92-75.093333-27.733333-144.213333-29.013334-57.6 4.693333-132.693333 25.173333-225.28 61.013334-25.6 18.346667-54.613333 36.693333-87.04 54.613333l0.426667 5.973333 8.96-3.413333c3.413333-0.426667 5.546667 1.28 5.973333 4.693333l5.546667-2.986666 2.986666-0.426667 0.426667 2.56c0 2.986667-20.053333 18.773333-75.093333 57.6l-2.56 5.12c-13.226667 0.853333-26.026667 10.666667-38.826667 28.586667l3.413333 5.12 10.666667-3.84 7.68 10.24c13.653333-14.08 28.16-26.453333 43.946667-37.12 8.106667 2.133333 12.373333 4.693333 18.773333 6.826666 43.52-32 86.613333-55.466667 129.706667-69.973333l0.426666 5.973333c-8.533333 11.52-13.653333 17.92-16.213333 17.92l4.266667 9.813334c0.426667 8.106667-108.8 298.666667-284.16 616.106666l3.413333 8.106667c14.933333-3.413333 24.746667-7.253333 32-11.093333l0.426667 5.546666 17.066666-1.28-28.586666 75.093334 5.973333 2.56c24.32-27.306667 42.666667-55.04 55.466667-80.213334 71.253333-20.906667 125.44-41.386667 162.986666-61.44 37.546667-3.413333 66.56-13.226667 86.186667-29.866666l39.253333-20.053334c54.186667-41.813333 94.72-71.253333 122.453334-88.746666 56.746667-41.813333 93.866667-82.346667 110.933333-121.6l9.813333-58.453334m-147.626666 98.56L554.666667 636.16c-55.04 36.266667-85.333333 55.466667-89.173334 55.466667-88.32 48.213333-143.36 73.386667-164.693333 75.093333l-2.133333 0.426667c1.706667-9.813333 40.96-90.453333 117.333333-241.92 33.28-2.56 86.186667-18.346667 158.293333-46.933334l17.493334-1.28c36.266667-3.413333 63.573333 3.84 81.493333 20.906667l1.28 11.093333c-13.226667 38.4-28.586667 61.44-44.373333 67.84m46.506666-246.613333c-7.68 9.386667-29.013333 25.173333-64 47.36-11.52 1.28-54.186667 17.92-128.426666 50.346667l-11.946667-2.133334-0.426667-5.12c-0.853333-10.666667 3.84-24.32 14.506667-40.533333 5.546667-29.866667 11.946667-47.786667 18.773333-51.2l61.866667-139.946667c-0.853333-9.386667 12.373333-14.933333 39.68-19.626666l8.96-0.853334 0.426667 7.68 49.493333-6.826666c49.066667-4.266667 74.666667 5.973333 76.8 29.866666l5.546667-0.853333-1.28-13.653333 6.4-0.853334c14.933333 8.106667 22.186667 17.066667 23.04 29.013334 0.853333 7.68-3.413333 17.493333-12.373334 29.013333-3.84 0.426667-5.973333-2.56-6.4-7.68l-5.973333 0.426667-1.28 17.066666c-24.746667 37.12-43.093333 55.893333-54.186667 57.173334z" fill="#FDD835" p-id="4468"></path></svg>