<?xml version="1.0" standalone="no"?><!DOCTYPE svg PUBLIC "-//W3C//DTD SVG 1.1//EN" "http://www.w3.org/Graphics/SVG/1.1/DTD/svg11.dtd"><svg t="1634784489316" class="icon" viewBox="0 0 1024 1024" version="1.1" xmlns="http://www.w3.org/2000/svg" p-id="4598" xmlns:xlink="http://www.w3.org/1999/xlink" width="200" height="200"><defs><style type="text/css"></style></defs><path d="M701.866667 681.386667l17.92 104.106666c-11.093333 5.973333-29.013333 11.52-52.906667 16.64-24.32 5.546667-52.906667 8.533333-85.76 8.533334-94.293333-1.706667-165.12-29.866667-212.48-83.626667-48.64-54.186667-71.68-122.88-71.68-206.08C298.666667 422.4 327.68 346.88 384 293.973333 438.613333 240.64 508.586667 213.333333 593.066667 213.333333c32 0 59.733333 2.986667 82.773333 8.106667s40.106667 10.666667 51.2 17.066667l-25.6 106.24-44.373333-14.506667c-17.066667-4.266667-37.12-6.4-59.733334-6.4-49.066667-0.426667-90.026667 15.36-122.026666 46.933333-32.426667 31.146667-48.64 78.933333-50.346667 142.506667 0.426667 58.026667 15.786667 103.253333 46.08 136.533333 30.293333 32.853333 72.533333 49.92 127.573333 50.346667l56.746667-5.12c18.346667-3.413333 33.706667-8.106667 46.506667-13.653333z" fill="#0277BD" p-id="4599"></path></svg>