

<svg class="bk-icon" style="width: 1em; height: 1em;vertical-align: middle;fill: currentColor;overflow: hidden;" viewBox="0 0 1024 1024" version="1.1" xmlns="http://www.w3.org/2000/svg">

























<g>
	<path fill="#7A8193" d="M512,128c51.9,0,102.1,10.1,149.4,30.2c45.7,19.3,86.8,47,122.1,82.3s63,76.4,82.3,122.1
		c20,47.3,30.2,97.6,30.2,149.4s-10.1,102.1-30.2,149.4c-19.3,45.7-47,86.8-82.3,122.1s-76.4,63-122.1,82.3
		c-47.3,20-97.6,30.2-149.4,30.2s-102.1-10.1-149.4-30.2c-45.7-19.3-86.8-47-122.1-82.3s-63-76.4-82.3-122.1
		c-20-47.3-30.2-97.6-30.2-149.4s10.1-102.1,30.2-149.4c19.3-45.7,47-86.8,82.3-122.1s76.4-63,122.1-82.3
		C409.9,138.1,460.1,128,512,128 M512,64C264.6,64,64,264.6,64,512s200.6,448,448,448s448-200.6,448-448S759.4,64,512,64L512,64z"/>
	<path fill="#7A8193" d="M485.7,579.8 350,444 304.7,489.3 485.7,670.3 757.3,398.7 712,353.5 	z"/>
</g>



























































</svg>
