<?xml version="1.0" standalone="no"?><!DOCTYPE svg PUBLIC "-//W3C//DTD SVG 1.1//EN" "http://www.w3.org/Graphics/SVG/1.1/DTD/svg11.dtd"><svg t="1634785960333" class="icon" viewBox="0 0 1024 1024" version="1.1" xmlns="http://www.w3.org/2000/svg" p-id="9930" xmlns:xlink="http://www.w3.org/1999/xlink" width="200" height="200"><defs><style type="text/css"></style></defs><path d="M884.096 443.712c-0.704-19.2 0.704-39.552-18.176-52.928-7.68-5.44-4.224-8.192 2.816-11.136 5.568-2.368 14.72-0.832 15.616-9.6 2.56-25.92 4.416-51.904 6.656-78.912-20.48 6.208-39.36 11.648-57.984 17.856-6.144 2.048-10.304 1.6-12.352-4.8-9.792-30.464-25.728-57.984-24.448-92.864 2.496-70.4-26.24-132.032-65.792-188.992-6.912-9.92-16.704-18.048-27.84-11.84-12.032 6.656-4.992 18.432-0.96 28.096 5.888 14.08 13.504 27.584 16.96 44.864-11.712-9.344-21.44-17.216-31.36-24.832C664.512 41.152 639.616 27.52 614.208 14.528a57.344 57.344 0 0 0-32.512-4.864c-7.808 0.768-8 8.448-9.728 14.4-0.384 1.28-2.816 2.304-4.544 2.816-7.936 2.304-8.32 8.128-7.744 14.848 0.768 8.256 5.184 14.144 10.816 19.776 17.152 16.96 33.92 34.304 50.88 51.456-11.328-4.672-21.248-11.264-31.168-17.792-8.448-5.568-16.384-12.288-26.176-15.104-9.856-2.88-20.16-2.176-25.216 8.256-4.672 9.6 3.008 15.296 9.92 19.968 22.592 15.36 42.24 33.92 61.184 53.376 4.992 5.184 9.6 10.496 10.944 19.008-20.352-0.576-38.848 5.44-57.728 9.152-8.896 1.728-14.336 7.424-14.656 17.152-0.256 9.6 7.808 8.128 13.248 10.048 23.04 8.064 47.872 12.224 67.264 28.544 13.056 11.008 27.584 19.264 43.072 26.24 12.416 5.568 23.936 10.432 35.072 20.928 12.352 11.584 14.784 24.192 20.48 37.184 3.52 8 0.448 10.048-6.336 12.032-15.552 4.48-30.912 9.408-47.04 14.4l41.152 73.792c1.984 3.584 3.072 8.704 9.408 5.12 2.624-1.472 5.696-4.736 8.96-1.216 4.096 4.416-0.64 7.232-2.88 9.6-10.24 10.944-9.28 21.632 0 32.384 6.784 7.808 5.44 14.976-2.112 23.872-7.104-24.32-21.632-42.176-36.672-59.648-24.576-28.672-55.36-41.024-92.928-33.728-6.336 1.216-10.048 0.384-13.44-4.736-12.736-19.776-31.808-31.104-53.248-37.696-57.856-17.92-107.584 0.064-151.104 38.016-31.04 27.008-57.92 58.048-74.24 99.52-6.528-10.688-4.416-20.416-7.488-28.992-1.856-5.12 0.64-7.744 5.568-6.784 11.584 2.304 13.504-4.096 14.784-13.504 1.28-9.472 4.608-18.624 7.168-27.84 6.912-25.344 6.912-25.344-19.456-31.936-32.064-7.936-33.28-8.384-22.464-39.68 4.992-14.4 8.512-32 24.576-39.616 18.368-8.704 30.4-21.696 38.848-40.32 15.296-33.792 32.832-66.368 61.44-91.712 18.048-16 14.336-30.336-9.92-38.208l26.816-17.6c22.272-14.4 44.544-28.736 66.752-43.264 2.304-1.536 7.296-1.92 4.416-6.976-2.816-4.864-6.272-3.008-9.728-0.832l-4.864 3.072-118.976 74.176c-25.6 15.936-24.768 15.744-34.496-13.44-4.16-12.416-1.408-19.328 8.576-26.688a210.56 210.56 0 0 0 26.432-24.832c4.608-4.864 9.28-12.032 4.8-18.112-4.864-6.72-11.648-0.512-16.512 2.176a445.12 445.12 0 0 1-82.688 33.536c-5.504 1.728-11.264 5.056-17.152-1.28-9.472-10.304-17.28-5.824-24.768 3.648a443.136 443.136 0 0 0-33.664 50.432c-5.76 9.664-9.856 13.888-16.256-0.064a382.528 382.528 0 0 0-23.488-41.408c-4.864-8-10.304-20.672-20.864-16.32-10.176 4.224-5.12 17.088-3.456 26.176 7.936 42.048 21.632 82.56 34.496 123.328 2.112 6.72 7.936 13.312-2.688 19.264-5.12 2.88 0.832 8.576 1.792 12.992 1.088 4.992 3.392 4.672 7.104 2.112 3.968-2.752 5.632 0.256 7.488 3.648 11.328 21.312 18.496 42.88 8 66.816-2.112 4.864-3.072 8.576-10.112 6.016-8.96-3.264-18.56-4.992-27.904-7.232-4.672-1.088-7.808-1.152-8.256 5.632-1.344 21.696-3.136 43.392-5.824 64.96-1.664 13.248-0.32 21.888 16.256 20.928 8.832-0.512 13.248 3.456 10.688 14.08-1.856 8.128-8.256 18.88-2.112 25.024 11.968 12.032 7.552 25.472 7.808 38.784 1.152 53.12 5.696 106.24 2.816 159.424-0.384 7.04 2.304 9.984 9.152 11.968 12.48 3.584 25.6 7.36 25.344 24.704-0.064 3.904 4.48 4.672 7.104 6.592 33.408 24.704 66.88 49.28 100.224 74.048 5.056 3.776 13.44 6.848 8.512 15.616-4.224 7.488-1.408 11.328 4.864 15.104 4.224 2.56 8.192 6.592 5.44 11.84-2.176 4.096-7.104 2.176-10.688 1.216-28.288-7.616-57.536-7.68-86.4-9.92-5.568-0.448-11.904-2.24-19.52 3.456 21.248 7.36 38.336 18.496 57.472 26.112a8004.48 8004.48 0 0 0-28.928-24.128c8 0 12.224-0.512 16.32 0.064 48.256 7.232 94.592 22.144 141.184 35.968 5.504 1.6 12.608 3.456 11.968 13.376-62.912-8.832-125.76-9.344-188.416 1.92 6.208 1.152 12.48 0.96 18.688 1.152 58.048 1.6 116.224-0.448 173.376 13.696 28.48 7.04 57.6 11.84 86.272 18.176 2.496 0.576 11.2 0.064 6.656 7.04-12.288 18.88-15.744 40.896-22.848 61.568-1.664 4.736-7.296 12.864 3.264 14.976 8.768 1.728 12.608-4.736 12.544-12.16-0.128-10.176 5.312-13.824 13.824-17.28 18.24-7.488 37.504-14.528 40.064-38.656 0.192-1.856 3.072-3.52 4.8-5.184l35.008-32.704c17.408-16.256 18.944-16.32 40.704-1.472l-38.464 23.36c-3.264 1.984-6.464 4.672-10.048 5.568-19.52 4.928-37.824 39.296-35.456 64.384 1.344 14.272 8.768 19.392 22.656 17.28 38.592-5.824 62.272-55.232 41.472-88.256 67.84-38.208 142.4-57.792 217.28-78.912-10.304-4.608-19.264 4.672-30.784-0.064 12.8-11.648 25.6-20.992 40.64-28.992-7.424-2.944-12.672-0.256-18.048 1.472-32 10.432-63.68 21.632-94.144 36.032-19.584 9.216-39.04 18.752-58.56 28.096-3.456 1.664-8.576 6.592-9.728-0.768-1.536-9.92-3.648-19.328 9.92-26.24 41.6-21.184 84.352-39.616 127.36-57.728 3.904-1.664 7.616-3.904 12.16-2.688-0.576 6.464-8.128 10.304-7.296 15.36l30.528-29.312c-5.568-1.984-11.328 0.576-17.152 2.176-7.744 2.112-11.2 0.256-10.944-8.896 0.384-14.144 1.792-27.584 8.512-40.512 5.504-10.56 11.264-21.568 12.096-33.728 1.792-25.6 8.96-50.176 13.44-75.264 6.272-35.328 22.912-67.008 36.416-99.776 5.312-12.8 12.48-26.048 8.96-40.064-3.072-12.48-2.88-24.64-3.328-37.12z m-352.192 510.656a50.304 50.304 0 0 1-23.808 12.224 44.736 44.736 0 0 1 9.152-25.152c4.48-6.272 11.904-7.872 17.664-2.752 6.272 5.504 2.304 11.456-3.008 15.68z m78.592 3.392a47.04 47.04 0 0 1-23.552 34.816c-5.376 2.944-11.264 3.456-16.32-0.192-4.992-3.648-4.224-9.28-3.072-14.592 2.496-11.328 5.696-22.464 13.888-31.04 5.888-6.144 12.928-9.024 22.144-5.376 7.424 2.944 7.168 8.064 6.912 16.384z" fill="#1A1A1A" p-id="9931"></path><path d="M425.472 975.296c11.968-14.336 21.632-26.176 31.552-37.76 3.712-4.352 8.064-9.6 14.656-6.848 7.04 2.88 4.992 9.92 4.48 15.36-0.768 8.064-2.688 16.064-4.224 24.128-1.472 7.616-3.072 15.04 2.816 21.952 3.008 3.52 3.392 8.192-0.512 11.712a14.4 14.4 0 0 1-13.44 3.136c-5.824-1.28-5.312-6.336-5.44-10.432-0.256-10.88-0.064-21.76-0.064-35.52-10.688 12.288-19.264 22.848-28.672 32.768-4.416 4.608-9.28 12.16-16.768 8.448-6.976-3.456-5.504-11.328-4.416-18.176 0.512-3.008 2.176-6.4-1.792-10.304-8.704 11.648-17.408 22.848-25.536 34.496-3.712 5.312-8 10.112-13.824 5.76-5.184-3.968-1.6-9.536 2.112-13.696 16.448-18.496 27.456-40.704 41.984-60.416 3.392-4.608 6.72-11.008 13.376-8.896 7.104 2.24 4.608 9.536 4.992 15.04 0.704 8.448-3.968 16.64-1.28 29.248z" fill="#1B1B1B" p-id="9932"></path><path d="M719.296 960.384c7.168-0.32 14.272-0.832 21.44-0.896 3.072 0 7.808-1.536 8.192 3.328 0.32 3.648-1.664 6.848-5.824 8.96-6.016 3.136-12.224 2.304-18.432 2.688-5.888 0.384-13.12 0.128-12.48 8.256 0.704 8.576 7.552 2.048 11.392 2.688 6.144 0.96 12.544 0.128 18.88 0.192 3.968 0.064 8.064 0.128 8.192 5.76 0.064 4.992-1.92 9.024-7.296 8.768-14.72-0.768-28.672 3.264-42.816 6.016-8.448 1.664-10.432-2.944-8.512-9.984 4.096-14.784 6.848-30.144 13.12-43.968 7.424-16.32 21.76-24.448 40.448-23.04 4.352 0.32 8.768 0.064 13.056 0.832 3.904 0.704 10.496-2.24 11.136 2.944 0.704 6.208-6.208 7.936-11.2 8.96-7.104 1.408-14.528 3.008-21.568 2.24-12.608-1.408-17.536 4.032-17.728 16.256z" fill="#1C1C1C" p-id="9933"></path><path d="M248.576 977.28c-0.896 8 3.52 10.048 10.496 7.872 8.256-2.56 16.256-5.888 24.384-8.704 2.944-1.024 6.656-4.544 8.896-0.448 2.304 4.224 0 8.704-3.648 11.52a71.68 71.68 0 0 1-29.76 14.016c-7.36 1.536-15.296 8.96-22.912 1.408-7.744-7.68-7.04-17.536-4.352-27.072 5.12-17.92 13.376-33.984 28.992-45.248a33.6 33.6 0 0 1 28.864-5.376c3.264 0.832 9.792 1.472 7.552 7.936-1.6 4.544-4.288 7.68-10.624 7.168-20.672-1.92-37.696 14.912-37.888 36.928z" fill="#1D1D1D" p-id="9934"></path><path d="M662.592 1006.272a55.68 55.68 0 0 1-35.84-16.704c-4.096-4.16-6.4-9.664-1.472-13.952 5.44-4.736 9.408-2.112 13.056 4.288 3.52 6.208 10.304 9.792 17.216 12.608 3.648 1.472 6.592 1.792 9.152-1.088 2.816-3.136 1.216-6.144-0.896-9.024-5.76-7.68-11.648-15.296-17.024-23.296-7.104-10.624-5.12-20.096 4.992-27.584 9.408-6.976 28.48-5.696 35.072 1.792a8.64 8.64 0 0 1 1.6 9.408c-1.728 4.032-5.568 2.88-8.704 1.408-2.624-1.152-4.992-3.008-7.68-4.032-5.184-1.984-9.728 0.32-13.184 3.712-4.096 4.032-1.024 7.936 1.536 11.52 6.528 8.96 13.888 17.408 19.456 26.88 7.808 13.44 1.024 24-17.28 24.064z" fill="#1E1E1E" p-id="9935"></path><path d="M531.776 586.624l-22.656 20.608c35.008-1.28 57.152-17.152 71.424-46.912 20.992 33.92 52.992 52.672 85.76 70.272 8.512 4.544 17.92 7.104 27.584 8.704 15.36 2.496 18.048 7.808 12.032 22.4-1.28 3.136-2.944 6.208-0.768 10.432a33.92 33.92 0 0 0 15.872-24.192c0.96-5.184 2.816-6.784 7.552-5.632 5.12 1.28 3.776 4.928 2.432 8-7.296 17.088-11.584 37.12-36.352 37.44-5.312 0.064-6.912 4.48-8.832 8.448a78.08 78.08 0 0 1-45.056 40.832c-3.136 1.216-10.304 0.832-7.936 7.168 1.664 4.416 6.656 2.304 10.368 1.152l12.672-4.16c-10.688 30.912-22.464 58.368-49.792 75.648a153.152 153.152 0 0 1-83.008 22.912c-23.488 0-41.984-10.624-54.144-32.448a171.52 171.52 0 0 0-57.216-60.672c-14.464-9.408-27.84-19.328-34.56-35.904-1.536-3.776-3.84-7.104-8.32-6.976-16.64 0.448-23.232-11.52-30.016-23.552-19.648-34.816-17.6-41.152 18.752-56.96 15.68-6.784 31.808-10.816 49.152-11.584 42.496-1.856 85.44-2.56 122.944-28.224a46.336 46.336 0 0 1 2.112 3.2zM698.816 102.528c13.376 0.128 25.536-2.24 33.408 13.952 2.624-18.368-1.92-30.592-6.336-42.624-4.8-13.12-11.072-25.728-16.384-38.72-2.048-4.992-7.616-11.648-0.128-15.104 5.632-2.56 10.624 3.648 13.632 8.512 9.472 15.168 19.072 30.336 27.52 46.08 21.312 39.616 36.16 81.216 36.736 126.784 0.064 3.84 1.152 8.32-0.384 11.52-9.472 19.904-1.28 37.184 6.976 54.784 5.312 11.392 9.024 23.488 14.144 34.944 3.456 7.808 2.88 11.968-6.4 14.336-16.448 4.224-32.64 9.408-48.768 14.528-6.784 2.176-10.944 1.472-12.608-6.4-1.088-5.12-4.544-9.856-5.056-15.04-1.792-19.456-20.288-27.072-29.184-41.6-4.864-7.936-17.728-6.336-27.072-8.448a71.424 71.424 0 0 1-30.208-13.44 143.36 143.36 0 0 0-77.312-33.536c-4.48-0.448-10.944 0.064-11.072-6.656-0.192-7.232 6.336-7.68 11.52-8.32 23.872-3.008 47.68-9.472 72-3.328 3.648 0.896 6.656-0.576 9.536-2.496l29.184-19.136c-12.096-4.736-21.312-0.96-30.08 3.84-7.424 4.096-13.568 4.416-18.944-3.072-19.136-26.752-46.208-45.376-70.144-67.2-1.792-1.6-3.84-2.944-5.632-4.608-2.816-2.624-6.528-5.376-3.392-9.664 2.688-3.648 6.144-1.28 9.088 0.32 7.168 4.032 14.528 7.744 21.312 12.416 21.952 15.104 44.864 28.672 68.224 41.6 3.072 1.728 6.528 6.208 10.112 2.752 4.416-4.224-0.256-8.064-2.88-11.008-24.064-27.2-47.296-55.232-73.728-80.256-5.952-5.568-17.28-11.84-9.856-20.672 5.76-6.848 14.08 2.56 19.648 6.656 27.584 20.48 56.192 39.68 81.984 62.592 2.816 2.496 6.016 6.976 9.664 3.904 5.12-4.288-0.384-7.808-3.136-10.496A405.504 405.504 0 0 0 606.4 38.208C603.904 36.736 601.088 35.648 598.848 33.92 594.368 30.464 586.944 27.328 590.72 20.672c3.328-5.76 9.6-1.792 14.272 0.512 31.232 15.616 62.336 31.552 89.088 54.336 7.68 6.528 20.032 13.248 4.736 27.008z" fill="#F4E4CB" p-id="9936"></path><path d="M311.04 638.72c-4.032-16.768 4.352-27.264 15.872-35.904 11.456-8.64 25.088-12.224 38.912-15.232 46.72-10.304 94.464-17.536 136.704-42.176 13.376-7.808 25.792-16.768 25.088-36.864-16.064 8.96-28.096 21.184-44.224 27.072-36.608 13.568-74.944 18.24-113.408 22.848-30.72 3.648-59.776 11.968-83.52 32.896-2.56-1.408-2.24-3.392-1.408-4.992 35.584-68.416 87.744-117.696 164.16-136.832a158.72 158.72 0 0 1 73.6-1.408c16.448 3.712 30.784 11.52 42.752 23.424 19.584 19.456 22.272 38.016 5.696 60.608-25.088 34.112-59.392 55.04-100.672 64.064-33.216 7.232-67.456 6.144-100.864 11.52-27.072 4.352-34.304-2.816-58.688 30.976z" fill="#875630" p-id="9937"></path><path d="M261.888 379.776c-20.864-5.376-40-10.624-59.328-15.104-5.952-1.344-6.976-3.904-5.44-8.96 1.984-6.464 2.304-14.144 6.144-19.2 8.64-11.392 4.608-20.48-1.216-31.232-16.256-30.208-15.872-30.4 12.48-48l68.992-42.944c8.192-5.12 16-10.88 26.112-11.776 10.816-0.96 15.04-11.648 23.296-16.128 20.352-11.008 42.368-18.88 61.632-32.192 6.656-4.608 13.248 0.96 12.352 9.344a21.888 21.888 0 0 1-7.744 13.632c-24.384 23.424-42.176 51.712-57.024 81.6a89.92 89.92 0 0 1-39.424 40.96c-8.704 4.608-10.432 11.456-14.08 19.584-8.32 18.432-15.168 37.184-20.608 56.576-1.216 4.288-3.904 5.056-6.144 3.84z" fill="#F4E4CB" p-id="9938"></path><path d="M342.336 465.28c18.112-28.16 39.552-53.696 68.16-71.36 52.224-32.32 97.664-38.08 144.576-3.904 28.16 20.544 41.408 62.272 27.712 91.776-2.048-1.536-4.352-2.56-5.632-4.288-27.968-37.44-67.392-44.864-110.4-40.704-36.096 3.52-70.464 13.568-100.096 35.328-15.552 11.392-29.696 24.704-44.416 37.184-4.928-6.912 0.576-12.16 3.584-16.96 5.504-9.024 10.56-18.304 16.512-27.072z" fill="#875630" p-id="9939"></path><path d="M217.344 709.376c-2.048-4.672-6.72-8.32-5.888-14.208 4.928-5.696 13.312-1.728 18.624-6.08-0.832-8.96-12.736 0.384-13.12-8.64a14.336 14.336 0 0 1 0.448-2.816c1.408-3.712 4.864-4.032 8.064-5.12 12.224-4.16 5.76-7.744-0.448-11.264-2.112-2.048-3.648-4.224-2.304-7.36 3.584-3.072 8-3.072 12.288-3.008 5.184 0.128 11.904-1.152 14.4 4.16 2.496 5.376 4.032 12.352-4.48 16.704 17.216-1.92 32.64-2.88 47.68 3.008l3.328 8.512c1.216 2.368-0.128 3.328-2.112 3.968-1.728 0.576-3.776 0.256-5.184 2.304 3.776 2.752 6.976 0 10.24-1.024l23.104 21.44c2.624 1.536 6.272 2.56 8.128 0.704 2.752-2.688-0.704-5.056-2.432-7.04-2.304-2.56-3.712-5.632-5.312-8.576-0.256-4.16 1.28-5.824 4.352-2.24a55.68 55.68 0 0 0 23.488 16.256c11.968 4.352 15.232 13.312 15.552 24.704 0.576 18.24-1.216 36.352-3.584 54.4 7.232 5.952 6.016 14.784 6.336 23.232 4.48-1.856 3.968-4.544 3.392-6.656-2.816-10.432 3.072-13.056 11.648-12.608 9.472 0.448 18.816 0.64 30.272-0.384-5.696-8.512-14.912-2.368-18.816-8.448-3.584-5.632-0.768-13.568-6.464-18.56 3.008-11.776 9.152-12.416 19.008-6.656 9.856 5.76 16.576 14.528 24.704 22.016 4.16 3.84 2.368 7.936 0 11.712-6.912 11.008-9.984 22.144-5.952 35.392 1.92 6.208 3.52 14.656-5.312 19.008-6.656 0.192-14.08-3.584-19.2 4.416-1.472 2.304-3.904 1.088-6.144-0.384-10.624-7.104-21.824-5.696-33.024-1.408l-5.568-0.256c-2.944-4.032-8.192-4.928-11.776-8.064-1.408-6.144 9.728-7.104 5.888-13.12-3.392-5.312-7.296 3.072-11.456 1.152-6.848-8.96-1.024-19.328-3.264-28.8-3.264-8-4.8-18.176-17.664-14.272l-8.64-5.888c1.216-10.624 1.6-21.248 0.576-34.56-8.448 8.832 1.6 22.592-12.032 25.664l-20.416-14.592c-3.84-7.168-7.424-14.336-6.08-22.848 0.448-2.752 1.216-6.464-2.752-6.72-3.968-0.192-3.776 3.328-3.264 6.272 0.96 4.928 2.112 9.92-5.824 9.344l-5.568-3.136c0.512-12.992-7.04-14.336-17.28-11.84l-11.904-8.512c-2.048-5.568 6.784-6.208 5.376-11.52-5.568-5.056-8.64 4.096-13.632 2.24z" fill="#735F42" p-id="9940"></path><path d="M250.624 175.552l33.28 22.592-59.008 33.152c-13.056 7.36-26.176 14.72-39.168 22.208-3.84 2.24-7.04 3.584-8.704-2.112-12.736-42.56-29.824-83.84-36.352-128.192-0.256-1.792 0.256-3.712 0.704-9.344 25.984 30.848 36.224 67.904 58.88 97.664 3.712-4.608 1.856-8 0.192-10.496-9.344-13.952-4.864-25.792 3.968-38.208 9.856-13.76 18.176-28.544 27.264-42.816 6.976-10.88 12.736-11.904 19.712-1.664 14.016 20.672 32.192 37.312 50.048 54.336 3.392 3.264 8.384 7.04 4.864 12.096-3.584 5.248-9.664 6.016-15.744 3.328a127.36 127.36 0 0 1-36.8-25.536c-2.624-2.496-6.4-7.936-9.088-4.544-4.032 5.056-5.44 12.16-7.68 18.56-1.28 3.776 0.704 7.424 3.84 8.448 8.96 2.944 3.456-8.512 9.792-9.472z" fill="#F4E4CB" p-id="9941"></path><path d="M878.912 311.232c-1.344 18.432-2.688 35.264-3.84 52.096-0.448 6.208-5.12 7.552-9.728 9.152-43.456 15.04-86.976 29.952-130.368 45.312-6.976 2.496-10.496 1.088-13.824-5.248-6.976-13.248-14.464-26.24-21.888-39.296-2.56-4.544-5.248-7.872 2.88-10.176 58.56-16.896 116.928-34.24 176.768-51.84z" fill="#FEFEFE" p-id="9942"></path><path d="M735.296 567.04c1.792 4.736 7.744 8.896 4.16 14.272-4.224 6.272-10.496 1.792-15.936 0.96-47.872-6.976-84.096-34.56-117.312-67.008-10.304-9.984-12.928-35.008-6.784-47.616 1.728-3.584 4.736-4.48 8.256-4.736 28.288-2.048 54.72 1.856 75.712 23.36 9.536 4.864 17.28 12.416 26.688 17.472 3.904 3.2 4.864 8 7.104 13.504-13.76-0.256-22.208-12.864-36.8-13.952 8.768 10.944 22.336 14.208 27.456 26.048 12.608 10.112 19.264 24.448 27.456 37.696z" fill="#875630" p-id="9943"></path><path d="M764.736 584.896c-8.576-0.512-12.864-5.248-13.696-13.696-0.448-4.288-0.768-8.832-2.368-12.736-8.768-21.824-11.2-43.328 0.64-65.088 4.032-7.488-1.152-13.888-5.44-19.776-6.528-9.024-8.96-17.792 0.256-26.88 2.624-2.56 5.696-7.04 5.12-9.984-2.112-10.816 4.224-13.376 12.416-14.848 9.728 3.52 9.856 11.008 8.32 19.392-0.512 2.816-4.352 7.296 1.344 8.064 4.992 0.704 6.208-3.712 5.376-8-1.792-8.768 1.728-17.024 2.176-25.536l20.864-8.192c8.384-1.984 16.256 1.216 23.616 3.776 11.008 3.84 10.112 25.408-0.832 33.024-10.56-0.128-21.312-2.816-31.552 2.688 9.984-0.192 20.032 4.096 29.952-0.384a36.032 36.032 0 0 1 19.328 7.424l5.888 3.008c0.576 7.68-5.248 6.208-9.728 6.848-8.384 1.216-17.152-0.512-26.368 2.624 17.024-1.216 22.784 7.36 20.928 24.32 9.024-7.232 0.768-19.712 10.432-22.464 7.104-1.984 14.912-2.368 22.464-3.008 4.288 2.368 9.408 3.648 12.032 8.448-0.512 7.488-6.272 8.32-11.904 9.728-3.84 0.96-8.768-0.704-11.648 4.096 5.632 2.88 10.048-7.168 14.72-1.344 5.888 7.36 2.88 15.488 0 23.296l-3.648 10.88c-13.888 3.264-13.888 3.264-8.256 17.728-5.12 4.8-11.52 4.16-17.728 4.288-3.008 0.064-6.144 0.512-6.336 4.224-0.192 3.904 3.136 4.352 6.08 4.544 3.84 0.32 7.872-0.064 9.792 4.352l-1.216 5.504c-6.336 3.648-15.616 0.576-20.16 8.96-1.152 2.176-4.8 1.344-6.336-0.704-3.904-5.184-8.896-6.464-15.168-6.4-6.848 0.064-8.704-5.056-8.448-11.008 0.256-6.72-2.624-9.792-9.6-9.152-7.68 0.704-15.424-1.28-23.168 0.256-2.24 0.448-4.864 0-6.912 3.584 7.552 3.2 15.104 4.544 23.168 4.16 5.376-0.256 10.048 1.472 9.28 8-0.64 5.504-4.544 6.656-9.664 5.312-3.136-0.832-7.936-1.856-7.68 3.072 0.256 4.864 5.12 3.136 8.192 2.624 6.912-1.152 14.528 2.88 20.736-3.2 1.408-1.344 3.84-1.152 5.44 0.128 7.36 5.952 15.936 6.016 24.704 6.016 3.328 0 8.256 0.064 7.552 6.016-6.4 5.44-13.952 5.12-21.632 4.544-12.416-0.896-24.576-0.512-33.792 9.792l-3.136-2.624c-2.304-7.808-7.552-8.704-14.4-5.696z" fill="#746043" p-id="9944"></path><path d="M152.96 363.776c54.272 14.144 105.664 27.904 157.248 40.896 9.792 2.496 11.904 5.696 8.768 15.488-10.304 32.256-9.92 32.64-43.584 28.288-38.912-5.056-77.696-10.816-116.608-15.552-10.624-1.28-13.632-5.12-11.968-15.616 2.752-17.536 4.096-35.328 6.144-53.504z" fill="#FEFEFE" p-id="9945"></path><path d="M222.848 654.528l2.944 5.632c-1.536 2.688-4.288 4.48-6.976 3.968-14.656-2.624-14.912 6.08-13.44 16.384-4.864 4.8-9.792 6.08-14.912 0.448 0.128-13.76 5.504-27.84-2.24-41.152l-0.384-20.16c2.688-8.832 5.632-17.536 4.928-27.2-0.384-5.632-2.688-8.768-7.424-10.88-1.152-26.944-4.608-53.76-3.2-80.768a34.112 34.112 0 0 0-5.696-19.008c-5.952-10.56-2.752-25.92 5.952-31.36 3.84 11.456 3.136 23.872 9.216 35.2 0.384-8.512 1.408-16.96 1.088-25.536-0.384-8.064 3.776-8.832 10.048-6.272l14.272 0.512c12.096 5.504 7.104 16.832 8.512 25.856 0.576 3.456-2.432 9.024 3.072 9.152 5.888 0 3.072-5.504 3.136-9.024 0.128-8.128-1.152-17.024 9.152-20.736 4.608 15.296 12.672 6.656 19.968 2.816l0.128 0.064c3.136 4.352 6.4 8.448 12.672 7.808 9.28-1.024 9.024 4.544 11.136 11.904 3.2 10.88-4.736 24.512 7.872 32.896l0.192 2.88c-10.24 9.664-10.24 9.856 2.752 14.528l-0.064 5.696c-7.04 3.968-13.888 8.512-22.784 5.504-2.88-1.024-6.528-0.064-6.592 3.392-0.064 5.376 4.288 4.16 7.424 3.328 5.12-1.28 9.728-2.176 10.304 5.248l-3.072 8.512c-14.4-1.536-14.4-1.536-16.256 18.304 2.304-3.264 2.432-10.752 11.264-9.408l-24.256 66.752c-4.032 4.48-9.6 4.032-14.72 3.84-8-0.256-12.736 2.88-14.016 10.88z" fill="#776446" p-id="9946"></path><path d="M785.088 692.288l6.464 12.288c2.624-17.024-3.52-32.064-9.344-47.168 5.056-2.304 6.08-2.688 6.912-0.128 3.904 11.456 12.672 14.912 23.616 15.872 4.096 0.384 7.488 2.368 4.608 7.616h0.064c-12.608 5.248 0.448 14.016-2.816 20.544-1.088 3.648-1.408 7.744-3.392 10.816-12.736 20.096-16.704 42.496-16.704 65.664 0 11.264-7.68 11.456-15.04 13.056-7.424-8.832-3.904-15.616 5.504-21.44-4.48-4.544-9.088-5.632-13.504-3.328-3.648 1.92-1.6 5.952-0.832 9.152 1.408 5.888-1.408 9.92-6.912 10.24-5.632 0.32-9.024-3.84-7.68-9.536 1.792-7.552 1.344-10.752-8-8.384-3.264 0.832-1.088-5.888-3.328-8.448-4.864-35.328-6.272-70.464 3.072-106.048 13.056 5.184 20.928 14.848 28.864 24.448 2.368 5.888-7.552 5.504-5.632 11.264 3.84 4.288 10.24-1.024 14.08 3.52z" fill="#756144" p-id="9947"></path><path d="M591.36 507.072c20.416 26.048 44.608 46.144 69.504 65.088 19.904 15.104 45.44 14.656 69.184 18.432 12.032 1.92 24.896 1.216 38.016 11.584-24.192 0-45.44-1.984-66.112 0.448-37.056 4.352-67.072-10.496-95.488-30.464-24.32-17.088-29.312-39.936-15.104-65.088z" fill="#875630" p-id="9948"></path><path d="M518.016 859.008c-25.6 12.544-52.352 19.84-72.384 40.128-5.376 5.44-13.312 1.664-13.952-7.232-0.704-9.536-0.128-18.88-4.544-28.032-3.456-7.104 3.392-11.456 7.552-15.744 5.376-5.568 8.512-10.56 5.12-19.072-4.544-11.52 5.312-20.8 6.592-36.16 16.128 24.128 30.144 44.8 56 52.928-14.016 4.032-28.16 4.928-43.52 11.392 20.8 8 39.424-3.264 59.136 1.792zM597.504 882.688c-13.12 11.136-25.984 21.952-38.72 33.024-3.712 3.2-7.04 4.608-11.648 1.984a288.256 288.256 0 0 0-65.984-28.736c39.04-16.448 75.968-33.856 116.352-6.272z" fill="#FDFDFD" p-id="9949"></path><path d="M697.536 471.296l8.576 9.984c-6.016 1.92-8.832-2.432-12.16-4.48-23.616-14.592-48.704-23.488-76.928-19.776-15.04 1.984-20.608-4.096-18.368-18.56 0.192-1.408 0-2.88-0.064-4.352-1.152-18.624 8.128-25.472 26.496-19.264 5.824 1.984 11.392 4.416 17.088 6.656 14.656 8.064 27.968 17.792 38.912 30.528 5.44 6.464 11.52 12.352 16.448 19.264z" fill="#875630" p-id="9950"></path><path d="M840.384 454.08c-7.872 2.048-13.696-3.136-20.224-5.824-1.6-1.984-1.6-3.904 0-5.888 16.96-3.584 1.344-16.192 6.272-24 2.624-4.224-5.504-5.504-9.408-4.8-7.232 1.408-11.264-4.608-17.152-5.952 13.312-5.568 26.56-11.2 39.872-16.704 3.904-1.6 8.32-1.152 10.688 2.176 7.168 10.048 25.856 14.4 16.576 32.96-1.792 3.52 1.664 7.168 3.712 10.496a13.888 13.888 0 0 1 0.256 15.168c-3.648 5.376-8.704 0.32-13.184-0.256-6.016-0.896-12.992-7.296-17.408 2.624z" fill="#685236" p-id="9951"></path><path d="M587.52 845.376c24.512-8.96 40.384-23.296 53.056-44.352l13.696 33.728c1.024 2.624 2.688 5.312 0.576 8.192-5.632 7.872-3.84 16.256-2.624 25.088 1.6 11.584-8.64 19.648-17.984 14.208-15.296-8.96-32.256-12.992-48.64-18.816-4.352-1.536-9.6-1.728-12.48-6.144 2.368-6.4 6.848-2.88 9.856-2.176 15.552 3.776 30.912 8.064 46.4 12.032 3.84 1.024 9.152 5.824 11.392 0.64 2.112-4.992-1.856-10.368-7.616-12.16a384.384 384.384 0 0 0-25.152-6.848c-5.44-1.28-11.008-1.856-20.48-3.392z" fill="#FBFBFB" p-id="9952"></path><path d="M222.848 654.528c-6.144-10.112-3.328-14.912 8.576-14.656 6.72 0.128 13.44-0.064 20.096-0.064v23.04c11.904-17.024 21.696-35.008 35.52-51.264-3.392 21.76 4.544 42.176 5.44 63.232-10.432-6.336-23.104 10.432-32.832-3.264-2.112 1.664-4.032 3.776-6.336 4.992a8.896 8.896 0 0 1-9.6-0.64c-3.712-2.624-3.52-6.592-3.264-10.496 0.128-2.048 1.344-2.88 3.2-3.904 2.688-1.6 2.304 9.472 5.056 1.152 1.216-3.712-0.256-7.936-5.632-8.064-6.656-0.128-13.44 0-20.224-0.064z" fill="#665034" p-id="9953"></path><path d="M744.768 759.104c1.536 1.984 3.392 5.888 4.608 5.696 13.184-1.92 14.656-1.024 10.624 10.176-1.088 3.136-2.176 4.8 0.32 7.168 1.6 1.472 3.264 1.92 5.12 0.576 3.456-2.496 3.072-4.416 0.704-8.192-2.88-4.544-3.328-11.712 2.688-13.696 6.144-2.048 12.928 1.6 18.56 4.8 1.344 0.768 2.368 8.128-1.344 8.576-13.184 1.664-4.864 11.008-6.784 16.576-11.2 5.952-22.272 12.16-34.816 14.976-4.608-6.592 0-13.824-1.728-19.84-0.96 4.352 2.624 11.968-6.464 13.44-7.296 1.152-12.096-1.792-13.568-9.28 0.512-12.352-2.624-24.448-1.984-36.8 0.32-5.696-0.896-11.712 6.016-14.592 3.264 7.872 6.848 15.616 12.48 22.144 3.456 3.584 4.8 1.856 5.568-1.728z" fill="#654F33" p-id="9954"></path><path d="M723.968 791.04c4.032 4.608 9.152 8.512 14.784 4.608 4.992-3.456 3.392-9.344 0.32-14.144-1.088-1.664-2.368-3.456-0.064-4.736 1.472-0.832 3.84-1.472 5.12-0.832 1.216 0.64 2.56 3.584 2.048 4.608-4.288 8.256 1.088 17.024-1.6 25.28h-0.064a99.84 99.84 0 0 0-25.472-0.192c-3.584 0.32-8-2.56-9.984 2.496-1.6 4.224 2.688 5.568 4.928 7.872 1.088 1.088 1.536 2.304 0.96 3.84l-8.64 3.072c-0.384 0.32-0.768 0.832-1.152 0.832-32.32-0.256-28.672 5.568-29.12-27.264-0.128-7.616-5.12-14.72-1.792-22.592 3.136-7.36-0.128-14.912 0.896-22.336-7.68 14.144-7.552 29.44-8.128 44.672-0.256 6.4 2.432 14.656-6.912 17.856-16.768-35.456 1.984-62.72 21.056-89.792 3.456-4.864 5.312-11.264 11.648-13.632 0.256-0.128 1.088 1.28 1.664 1.92-0.832 7.808-10.88 15.68 0.256 23.36a9.28 9.28 0 0 1 0.384 2.624c-7.616 15.744-2.944 33.216-6.912 49.536-0.32 1.344 0.832 2.752 2.368 3.136 2.24 0.512 3.648-0.832 4.48-2.688 1.6-3.712-0.192-7.744 0.896-11.328 1.344-4.544-0.256-11.136 7.296-11.968l6.144 14.208c-1.088 14.272 0.064 15.424 13.248 13.12a16.448 16.448 0 0 1 1.344-1.536z" fill="#786547" p-id="9955"></path><path d="M837.76 579.008c-5.76-5.44-12.928-2.048-19.392-3.008-4.48-0.64-9.856 1.92-12.736-4.096-2.624-5.568-3.52-1.728-6.528 0.448-9.536 6.848-20.608 0.512-30.976 1.536-3.2 0.32-4.096-6.208-2.56-9.984 2.24-5.632 6.976-5.888 12.16-4.416 2.368 0.704 4.224 5.056 7.168 1.472 0.96-1.216 1.472-3.904 0.768-5.12-1.792-3.264-4.992-2.688-7.552-1.024-7.232 4.736-13.632-5.056-21.696-0.704-3.456 1.856-5.568-5.312-5.952-9.6-0.32-3.136 0.896-5.696 4.736-5.76 12.672-0.128 25.408-0.512 38.08-0.256 8.448 0.192 6.912 7.168 6.144 11.84-1.28 8.128-1.024 12.288 9.152 8.832 7.488-2.56 13.312 0.192 13.504 12.224 4.544-18.24 14.72-12.16 23.68-10.112l-8 17.728z" fill="#654E32" p-id="9956"></path><path d="M817.344 680.704c-0.064-7.36-8.384-4.992-9.408-4.736-15.04 3.712-16.832-7.296-20.48-16.832-0.768-1.984-2.368-4.48-5.248-1.792-10.176-16.384-24.896-28.672-39.104-41.984 19.712-0.256 38.912-2.176 56.64 7.296 6.016 11.456 4.224 23.68 4.288 36.48 5.12-0.064 11.392-4.864 16.32 1.344-1.28 6.72 2.24 14.144-3.008 20.224z" fill="#654F33" p-id="9957"></path><path d="M266.688 116.864a442.24 442.24 0 0 0 85.888-40.512c3.392 5.312 2.944 9.344-1.088 13.056-16.64 15.36-33.344 30.656-52.16 43.456-10.752 7.232-18.944 7.04-25.088-5.504-1.664-3.328-4.416-6.144-7.552-10.496z" fill="#F2E3CA" p-id="9958"></path><path d="M660.096 814.08c7.744-10.688 3.456-23.424 3.712-34.56 0.256-11.648 6.144-20.736 7.296-31.424 0.32-2.816 1.344-6.08 5.12-5.76 3.84 0.32 4.288 3.712 3.904 6.528-2.688 21.056-0.192 42.048-0.256 63.04-0.064 7.36-0.96 11.136 8.128 8.384 6.272-1.92 12.224 1.6 18.368 2.56-4.672 2.304-9.344 4.736-14.016 6.976-24.704 11.648-25.024 11.52-32.256-15.744z" fill="#654E32" p-id="9959"></path><path d="M388.544 764.8c6.656-0.384 10.88 2.176 8.448 9.28-3.2 9.216 0.448 9.728 8.256 8.512 5.184-0.768 12.608-2.752 12.736 6.784 0.064 9.536-7.424 8.064-12.544 6.976-8.128-1.792-16.064 1.984-24.384-1.216-3.84-1.472-10.176 0.576-5.312 8.256 2.624 4.096 3.456 9.6-1.728 12.736a9.472 9.472 0 0 1-8.32-0.128c-4.8-3.2-4.672-10.944-2.112-12.864 9.216-6.784-7.168-9.728-1.472-15.04 8.256 1.6 10.368-5.952 14.08-10.24 3.968-4.48 7.36-9.472 12.352-13.056z" fill="#644E32" p-id="9960"></path><path d="M449.408 557.056c-45.312 21.12-100.416 11.584-143.104 45.696-2.688-10.944 3.072-14.4 9.6-18.368 22.592-13.888 48.064-16.448 73.472-19.712l60.032-7.616z" fill="#85542F" p-id="9961"></path><path d="M820.352 660.48c-7.616-3.072-14.08 6.72-18.944 4.288-8.64-4.352 4.608-12.48-0.32-19.072-5.44-7.36 2.048-15.552-1.344-23.04l5.696 3.008c3.264 1.984 5.056 9.344 10.048 4.992 5.056-4.416-1.792-5.824-4.032-8.192l-20.736-22.976c0.832-8.448 7.744-8.256 13.632-9.408a4.928 4.928 0 0 1 2.816 0.512c7.168 3.392 16.064-2.304 22.272 3.52 6.528 6.144-4.416 13.056-0.32 19.84l-6.336 34.56c-3.968 1.664-6.208-4.16-11.008-1.984-0.384 6.464 13.44 5.12 8.512 13.952h0.064z" fill="#715D40" p-id="9962"></path><path d="M863.936 465.472c-1.024 0.96-1.984 2.688-3.136 2.816-13.632 1.792-25.408 4.544-21.312 23.104 0.768 3.392-5.12 3.392-8.32 3.008-5.376-0.576-5.888-5.056-4.928-8.704 3.264-11.84 2.048-17.984-12.16-11.584-2.368 1.088-6.208 0.512-7.552-2.624a11.264 11.264 0 0 1 0.704-11.008c2.368-3.648 5.376-2.24 8.896-1.344 10.176 2.624 20.48 3.712 30.208-2.048a32.832 32.832 0 0 1 17.6 8.384z" fill="#654E32" p-id="9963"></path><path d="M313.472 132.672c1.728 0 2.368-0.192 2.624 0 7.872 7.936 8.32 19.072 12.224 28.672 1.472 3.776 5.184 7.872-0.128 11.584-5.12 3.648-10.048 8.32-15.488-0.064-2.88-4.416-7.168-7.872-10.304-12.16-3.008-4.096-10.944-8.384-8.192-12.224 4.928-6.72 13.184-11.072 19.264-15.808z" fill="#F1E2C9" p-id="9964"></path><path d="M829.12 613.888l-2.048-1.92c-5.504-5.248 5.568-16.192-1.152-15.936-11.52 0.448-24.64-7.552-35.136 3.456l-8.512-6.08c2.176-20.992 19.264-12.992 30.016-13.76 8.256-0.576 16.96-1.152 25.472-0.64 0 12.352-4.224 23.616-8.64 34.88zM703.232 765.184c-3.2 5.888-5.44 11.904-3.328 18.816 1.344 4.416 1.28 8.768-3.2 11.456-3.456 2.112-7.808 2.496-10.944 0.128-4.096-3.008-3.328-8-1.408-11.84 3.904-7.744-5.888-18.752 6.016-24.32-0.384-0.832-0.576-1.856-1.216-2.368-15.36-11.712-1.024-13.952 5.952-18.496l8.128 26.624z" fill="#654E32" p-id="9965"></path><path d="M362.624 848.832c0.192-2.816 1.088-8.128 2.56-7.296 10.304 5.376 23.872-8.192 32.32 5.632 3.264 5.376 2.816-0.128 3.52-1.152 6.784-9.728 13.376-6.208 19.904 0.256-0.256 0.384-0.704 0.704-0.832 1.152-8.832 22.336-23.808 13.568-38.4 7.68-6.144-2.56-12.672-4.224-19.072-6.272z" fill="#654E33" p-id="9966"></path><path d="M240.256 459.968c-3.328 7.872-8.32 15.36-3.2 24.64 1.408 2.56 1.344 7.552-2.368 8.896a19.328 19.328 0 0 1-11.264 0.32c-4.736-1.472-4.096-6.528-3.072-9.92 3.328-10.496 1.024-20.096-3.328-29.568l23.296 3.2c0.832 0.576 1.088 1.152 0.768 1.728-0.256 0.448-0.512 0.704-0.832 0.704z" fill="#644D32" p-id="9967"></path><path d="M665.088 615.424c24.64 5.248 47.488-8.704 67.904 7.936-21.632 8-49.472 5.568-67.904-7.936z" fill="#82532F" p-id="9968"></path><path d="M292.672 515.072c-10.24 1.344-13.184-4.032-11.2-12.864a40.832 40.832 0 0 0 0.704-11.136c-0.384-11.712 0.576-20.736-16.32-17.408-6.592 1.28-4.608-6.72-4.864-11.2l15.872 0.32c5.632 0.128 9.088 2.496 9.856 8.32l5.952 43.968z" fill="#634D32" p-id="9969"></path><path d="M726.976 738.624c-6.784 9.984-1.92 21.44-1.792 31.616 0.064 7.04-1.728 13.888-1.216 20.8l0.064-0.064c-0.896 1.408-1.664 1.408-2.432-0.128-6.4-27.84-9.984-55.68 1.024-85.248 2.752 12.032-0.704 23.168 4.352 33.024z" fill="#776548" p-id="9970"></path><path d="M778.944 415.808c7.232 10.112-0.96 21.184 2.176 32.128 1.664 5.824-6.912 6.08-12.224 6.08-8.256 0-5.056-6.528-3.84-9.152 4.096-8.768 1.664-15.872-3.328-22.976a36.928 36.928 0 0 1 17.216-6.08z" fill="#644E32" p-id="9971"></path><path d="M202.752 453.824c-3.328 0.64-7.744-1.088-6.784 5.888 1.152 8.384 0.64 17.024 0.64 25.536 0 3.136 1.152 7.296-3.136 8.576-4.992 1.472-4.928-3.136-6.336-5.952a52.864 52.864 0 0 1-4.672-37.44c6.656 1.728 14.144-1.664 20.288 3.392z" fill="#654F33" p-id="9972"></path><path d="M205.376 680.576c-3.008-5.184-8.896-9.984-4.096-16.768 3.712-5.184 9.28-3.456 14.592-2.816 3.2 0.384 6.592-0.512 9.856-0.832 4.928 0.576 11.072-1.6 11.712 6.848 0.64 8.192-5.696 7.424-10.432 8.704-3.2 0.832-6.464 1.344-9.664 2.048-6.848-11.072-7.04 5.568-11.968 2.816z" fill="#665034" p-id="9973"></path><path d="M715.008 819.776c-4.48-3.712-14.656-2.816-11.072-13.12 3.264-9.28 9.472-4.608 16.064-4.8 8.832-0.256 17.28-4.096 24.576 3.904-8.768 7.04-19.712 9.408-29.568 14.016z" fill="#654F33" p-id="9974"></path><path d="M298.752 770.56c4.672-5.568 5.312-11.52 3.264-18.56-1.344-4.544-1.216-9.92 6.144-10.304 7.936-0.448 9.664 5.056 7.488 10.24-3.84 8.96 6.528 20.48-5.44 27.584l-11.456-8.96z" fill="#644D32" p-id="9975"></path><path d="M188.224 639.808c3.264 0.32 8.704 0.128 7.744 4.288-2.688 12.224 5.44 26.048-5.568 36.928-7.616-0.896-9.344-6.336-8.192-12.352 1.92-9.664 1.536-19.776 6.016-28.864z" fill="#634D32" p-id="9976"></path><path d="M867.072 509.696c-1.792-7.232 3.904-15.232-2.176-22.016-4.416-0.704-3.456 3.904-5.504 5.376a9.344 9.344 0 0 1-10.816 0.256c-2.752-1.728-2.304-5.12-1.984-7.936 0.64-5.376 5.056-5.824 8.704-4.928a19.968 19.968 0 0 0 20.672-6.464c0.384 12.672-1.408 24.896-8.896 35.712z" fill="#665034" p-id="9977"></path><path d="M283.84 555.648c-4.416-7.168-8.896-0.256-13.312-0.064-5.248 0.32-9.792-0.128-9.728-7.104 0-6.336 3.776-12.352 9.088-9.6 9.472 4.992 17.216-1.92 25.664-0.704l-11.712 17.472z" fill="#644E32" p-id="9978"></path><path d="M846.976 555.776c-3.648-2.048-7.296-0.896-11.072-0.32-6.144 0.96-10.048-0.768-10.048-8.192 0-6.912 3.008-10.304 9.472-8.704 6.784 1.664 13.248-1.088 19.84-0.256a39.68 39.68 0 0 1-8.192 17.472z" fill="#644D31" p-id="9979"></path><path d="M260.352 742.016c4.672-2.112 4.736-4.224 1.536-8.512-2.368-3.2-2.688-8.96 1.984-11.2a14.464 14.464 0 0 1 11.072-0.064c4.928 2.368 3.2 6.848 1.28 11.072-3.648 7.872 5.056 14.784 2.048 22.656l-17.92-13.952z" fill="#644E32" p-id="9980"></path><path d="M185.344 581.568c7.36-3.904 13.056-2.816 11.008 6.528-2.304 10.56 6.272 24.32-8.512 31.552-5.504-12.352-1.856-25.344-2.496-38.08z" fill="#624C31" p-id="9981"></path><path d="M275.84 573.056c-8.128 3.136-7.744 12.672-15.04 19.456v-26.176c0-3.52 0.576-6.656 4.864-7.488 6.144-1.216 11.264 0.32 15.168 5.376l-4.992 8.832z" fill="#644E32" p-id="9982"></path><path d="M339.776 828.48c3.264-3.456 3.968-10.112 11.328-8.32 3.136 0.768 5.504 1.92 5.568 5.312 0.064 4.864 2.112 10.56-5.888 12.224-5.568 1.152-1.344 2.56 0.512 2.688 5.376 0.512 5.568 4.288 5.76 8.192-14.528 0.832-13.824-11.456-17.28-20.096z" fill="#654E33" p-id="9983"></path><path d="M216.896 680.512c6.336 3.2 19.392-5.184 19.328 6.912-0.128 12.928-13.184 5.76-20.544 7.68-1.344 0.32-2.816 0.128-4.288 0.128a27.136 27.136 0 0 1 5.504-14.72z" fill="#644D32" p-id="9984"></path><path d="M342.336 465.28l-20.096 44.032c-1.92 2.048-3.328 4.736-8.768 5.248 5.44-19.584 14.336-35.968 28.864-49.28z" fill="#EBE9E7" p-id="9985"></path><path d="M705.088 735.232c-6.08-10.24-4.288-19.968-4.352-29.44a6.848 6.848 0 0 1 7.424-7.232c5.952 0.256 4.928 5.568 3.84 8.768-2.944 8.576-0.96 18.24-6.912 27.904z" fill="#80522E" p-id="9986"></path><path d="M680.32 454.016l-38.144-32.448c17.92 3.904 30.848 14.784 41.216 29.312 0.896 2.944-0.384 3.712-3.072 3.136z" fill="#F2F0EE" p-id="9987"></path><path d="M240.256 459.968a32.512 32.512 0 0 0 0.064-2.496c6.272 3.904 14.528-0.192 20.544 4.928-4.8 2.496-0.96 10.56-8.192 11.84-12.48 2.112-12.992-5.44-12.416-14.272z" fill="#644D31" p-id="9988"></path><path d="M217.344 709.376c3.456-2.112 2.432-8.832 8.448-8.32 3.968 0.32 9.216-1.792 10.944 3.84 1.472 4.608-0.32 8.256-5.12 10.24-2.112 0.832-4.032 2.24-6.016 3.392a18.048 18.048 0 0 1-8.256-9.152zM785.088 692.288c-0.96 0.128-1.92 0.192-2.816 0.384-6.016 1.28-13.376 7.104-17.024-2.432-3.968-10.304 7.744-8.32 11.456-12.736 3.392 4.544 8 8.448 8.384 14.784z" fill="#644D32" p-id="9989"></path><path d="M855.168 538.304c-7.424-3.328-11.84-9.088-7.936-16.64 3.776-7.232 10.56-3.328 16.192-1.088l-8.256 17.728z" fill="#665034" p-id="9990"></path><path d="M820.352 660.416c-0.512-3.968-2.752-6.016-6.784-5.888-5.248 0.128-8.256-1.984-7.936-7.616 0.192-3.072 0.704-5.952 4.288-6.528 4.352-0.64 8.832-1.28 10.368 4.736 0.32 1.28 1.664 2.304 2.496 3.392-0.128 4.096 1.664 8.576-2.432 11.904z" fill="#654F33" p-id="9991"></path><path d="M237.568 726.976c4.608-5.888 11.456-8.32 17.28-4.544 6.336 4.096 2.432 10.816 0 16.384l-17.28-11.84z" fill="#654E32" p-id="9992"></path><path d="M811.52 622.464c4.8-2.624 9.856-3.584 10.816 3.392 0.768 5.44-1.664 10.368-8.384 11.072-9.088 0.96-8.384-5.44-8.448-11.264 2.304-0.512 4.928-0.448 6.016-3.2z" fill="#654F33" p-id="9993"></path><path d="M295.616 532.48c-4.352 1.856-9.152 5.312-12.992 0.384-1.728-2.176-1.6-6.464-1.152-9.6 0.96-7.168 7.04-4.8 11.456-5.312a23.04 23.04 0 0 1 2.688 14.528z" fill="#654E32" p-id="9994"></path><path d="M372.416 767.808a45.632 45.632 0 0 1 0.896-21.312c0.96-3.072-0.128-9.28 6.336-6.592 3.456 1.472 6.592 4.608 4.16 9.28-3.136 5.76-4.8 12.416-11.392 18.624z" fill="#7C502E" p-id="9995"></path><path d="M532.736 851.456l27.2-1.92c2.176-0.128 3.776 0.896 4.096 3.072 0.384 2.816-1.344 4.736-3.904 4.864-8.384 0.384-17.216 3.136-27.392-6.016z" fill="#C6C6C6" p-id="9996"></path><path d="M735.296 567.04c-10.944-11.2-19.136-24.448-27.392-37.632 16.832 6.976 22.592 21.888 27.392 37.632z" fill="#E9E5E2" p-id="9997"></path><path d="M318.784 785.408c4.544-2.176 8.384-8.448 13.824-5.248 7.68 4.544 2.432 12.928 3.84 19.52l-17.664-14.272z" fill="#644E32" p-id="9998"></path><path d="M721.6 790.848l2.432 0.128c-4.288 10.24-13.376 7.424-18.304 3.648-5.888-4.48-1.216-10.88 3.648-15.168 5.952 1.792 2.88 13.184 12.224 11.392z" fill="#654F33" p-id="9999"></path><path d="M298.88 688.576c-0.448 5.76-4.288 6.784-9.152 6.592-3.968-0.192-8.064-0.128-8.256-5.632-0.128-5.504 3.648-6.08 7.808-5.632 2.24 0.192 4.544 1.92 6.592-0.512l3.008 5.184z" fill="#654E32" p-id="10000"></path><path d="M694.72 735.872c-11.584 0.96-13.696-3.776-7.744-13.056 2.304-3.52 4.992-6.848 7.488-10.24l0.256 23.296z" fill="#604B31" p-id="10001"></path><path d="M322.368 695.104c2.496 2.112 5.184 4.096 7.424 6.464 3.648 3.904 10.432 8.256 4.224 13.888-5.888 5.312-7.936-3.52-12.032-5.504 3.648-0.448 5.504-1.728 2.496-5.312-2.368-2.816-2.752-6.08-2.112-9.536z" fill="#634C31" p-id="10002"></path><path d="M814.592 701.312c-0.768-1.664-1.152-4.288-2.432-4.8-5.056-2.176-7.616-5.376-6.336-10.944 1.6-6.848 7.232-4.416 11.584-4.8-0.96 6.848 1.984 14.208-2.816 20.544z" fill="#654F33" p-id="10003"></path><path d="M764.736 584.896c1.152-8 7.104-6.592 11.84-5.248 6.72 1.856 4.992 6.656 2.496 11.136-4.928-1.408-10.24-2.24-14.336-5.888z" fill="#654E32" p-id="10004"></path><path d="M462.528 899.52c13.824-8.128 21.184 3.392 30.272 6.784a75.328 75.328 0 0 1-30.272-6.784z" fill="#F0F0F0" p-id="10005"></path><path d="M710.144 503.744c-11.776-1.472-18.432-10.624-26.688-17.472a44.8 44.8 0 0 1 26.688 17.472z" fill="#E3DFDB" p-id="10006"></path><path d="M680.32 454.016l3.072-3.136c5.888 6.016 11.968 11.84 14.144 20.416a76.032 76.032 0 0 1-17.216-17.28z" fill="#CABFB8" p-id="10007"></path><path d="M836.736 993.28a44.8 44.8 0 0 1-21.696-22.528c-3.264-7.744 9.152-8.512 10.944-15.168 0.64-2.24 2.112-4.224 2.88-6.464 3.264-9.088 4.48-18.752-3.264-25.6-7.36-6.464-16.192-4.416-24.064 0.896-2.304 1.536-3.968 3.392-7.616 1.728-9.152-4.224-12.48 2.88-14.272 9.344-5.376 19.392-10.176 38.976-14.528 58.624-1.024 4.48-4.032 11.776 4.16 12.928 6.784 0.96 11.904-2.624 12.992-10.368 1.152-8.384 2.688-16.768 4.288-26.752 11.52 7.104 15.872 18.496 24.256 26.048 6.016 5.504 11.136 12.288 20.096 13.376 5.696 0.704 11.072-0.32 12.992-6.528 1.792-5.76-2.112-7.104-7.168-9.536z m-26.368-42.752a48.32 48.32 0 0 1-22.4 14.72c2.368-10.496 2.88-19.712 10.496-26.176 4.48-3.776 10.304-5.504 14.4-1.344 3.84 3.84 1.024 9.088-2.496 12.8z" fill="#1C1C1C" p-id="10008"></path><path d="M380.032 942.208c-1.088-9.792-5.76-21.376-16.704-19.968-38.72 4.8-54.4 24.832-57.92 65.472 0.32 17.088 7.36 23.68 22.848 21.184 26.688-4.224 54.848-40 51.776-66.688z m-16.832 15.296c-2.368 13.312-8.448 26.816-23.296 34.816-5.44 2.944-11.136 3.776-16.192 0.064-4.928-3.52-4.48-8.704-3.328-14.336 2.368-11.392 5.696-22.4 13.632-30.976 5.696-6.144 12.736-9.536 21.952-5.824 7.04 2.88 7.616 7.808 7.232 16.256z" fill="#1D1D1D" p-id="10009"></path><path d="M392.064 650.624c11.968-14.72 20.928-23.616 37.888-20.288 16.128 3.2 32.896 2.688 49.088 5.696 15.104 2.816 26.752 0.768 34.304-13.824 1.6-3.072 3.264-8.576 8.064-6.336 4.096 1.92 2.112 7.04 1.28 10.56-1.024 4.16-1.984 9.344-4.928 11.84-10.688 9.28-10.56 17.856-3.712 30.016 5.76 10.304 7.808 23.552 2.56 35.136-4.224 9.408 2.688 12.416 7.232 16.32 6.208 5.312 9.28-1.408 12.672-5.056 4.928-5.312 9.28-11.2 15.872-14.784 3.84-2.112 7.872-2.624 10.432 1.088 3.2 4.608-2.176 5.12-4.48 6.912-6.272 4.928-9.856 11.904-14.08 18.304-10.432 15.808-18.752 16.832-32.448 3.264-5.568-5.504-10.816-11.072-22.912-11.712 19.52-13.824 18.944-30.336 13.44-47.872-3.008-9.536-8.192-15.488-19.136-16.896-29.056-3.456-57.792-11.52-91.136-2.368z" fill="#1A1A1A" p-id="10010"></path><path d="M544.128 612.48c3.52 0.192 5.248 3.072 5.568 5.504 2.496 17.728 14.912 21.056 30.08 23.04 21.824 2.88 43.52 3.136 65.344 1.408 3.584-0.256 7.552-2.752 11.648 2.112-22.464 9.92-44.608 17.856-69.44 14.336 25.344 20.672 49.792 9.536 74.944-4.032-14.72 26.88-32.128 33.088-59.328 23.552-11.904-4.224-26.752-3.2-28.992-20.928-0.256-1.856-6.656-2.88-10.176-4.288-17.728-7.232-24.32-20.928-19.648-40.704z" fill="#1B1B1B" p-id="10011"></path><path d="M500.096 738.432c5.44 0.576 7.232 0.256 8.256 0.96 20.8 14.592 41.152 0.96 61.632-1.216 3.392-0.384 6.272-2.24 8.576 1.728 1.152 2.048 3.2 4.16 1.856 6.528-1.856 3.2-5.504 5.056-8.704 3.84-11.904-4.672-21.568 2.048-31.68 5.824-8.576 3.2-16.576 4.992-24.704-1.024-6.464-4.8-13.44-4.672-20.544-1.152a50.944 50.944 0 0 1-6.656 2.88c-7.552 2.624-18.688 4.736-20.672-2.624-1.856-6.912 8.576-8.704 16.256-8.576 7.296-0.064 12.48-7.744 16.384-7.168z" fill="#1C1C1C" p-id="10012"></path><path d="M567.68 780.736c-16.704-5.44-30.592-8.192-46.656-2.56-17.28 6.08-22.848 18.624-26.496 34.944-9.984-12.032-8.96-31.36 1.984-37.76 17.088-9.984 36.096-13.952 55.808-9.6 6.528 1.472 12.544 5.248 15.36 14.976z" fill="#1B1B1B" p-id="10013"></path><path d="M492.224 669.248a128.256 128.256 0 0 0-42.304 11.456 16.32 16.32 0 0 1-16.512-2.624 25.6 25.6 0 0 0-22.912-5.888c-2.816 0.64-6.4 0.384-6.784-3.328-0.384-3.584 3.328-4.032 5.824-5.248a3.84 3.84 0 0 1 1.408-0.384c24.832-0.256 49.728-0.576 74.56-0.64 2.88 0.064 5.504 1.792 6.72 6.656z" fill="#201F1F" p-id="10014"></path><path d="M361.088 689.024a40.704 40.704 0 0 0-16.32-17.472 16.64 16.64 0 0 1-7.872-11.712c-0.832-4.736-1.856-10.944 3.648-12.672 5.184-1.664 7.68 4.16 8 8.128 0.832 11.84 16.896 16.896 12.544 33.728z" fill="#262524" p-id="10015"></path><path d="M417.024 818.88c0.384 3.776 0.768 6.656 0.96 9.536 0.384 5.696-1.344 9.344-8.064 9.024-6.72-0.384-11.008-4.288-8.832-10.176 4.096-10.752 6.08-16.96-9.152-10.432-3.392 1.472-7.872 0.448-8.96-4.736-0.64-3.136-3.52-6.208-0.64-9.472 2.944-3.392 6.784-3.456 10.624-2.048 2.24 0.832 4.992 3.584 6.272 2.944 20.992-10.496 19.392 2.752 17.792 15.36z" fill="#654E32" p-id="10016"></path><path d="M356.736 771.648c-2.048 4.736-1.408 10.176-0.128 15.936 1.216 5.312-0.64 9.472-7.488 9.216-6.08-0.192-7.488-4.032-6.592-8.704a37.376 37.376 0 0 0 0.064-16.832c-1.344-5.312 0.576-9.408 7.488-9.216 6.144 0.128 6.976 3.904 6.656 9.6z" fill="#644E32" p-id="10017"></path><path d="M248.32 680.704c4.992-0.064 9.088 0.32 9.472 6.464 0.384 6.592-3.264 8.128-8.96 8.064-5.056-0.064-8.32-1.408-8.32-7.232-0.064-5.76 3.008-7.616 7.808-7.296zM268.992 715.392c-4.736 0.32-8.064-1.216-8.128-7.104-0.064-5.696 3.008-7.424 8.128-7.424 5.568-0.064 9.408 1.152 9.152 7.872-0.256 6.208-4.16 6.784-9.152 6.656zM248.896 700.992c5.312-0.256 8.768 1.024 8.896 6.976 0.128 6.912-4.224 7.552-9.536 7.552-5.376 0-7.936-2.24-7.808-7.744 0.192-6.08 3.968-6.976 8.448-6.784zM266.24 695.104c-3.904 0.128-5.632-2.944-5.44-8.128 0.256-6.144 4.416-6.592 8.96-6.208 4.864 0.32 8.448 2.624 7.808 8-0.64 5.248-4.928 6.336-11.328 6.336z" fill="#654E32" p-id="10018"></path><path d="M328.832 721.408c4.48-0.192 7.36 1.408 7.552 6.4 0.192 5.376-1.92 8.064-7.552 7.936-4.928-0.128-6.848-2.56-6.848-7.232 0-4.608 1.92-7.296 6.848-7.104z" fill="#634C31" p-id="10019"></path><path d="M872.192 337.728c-0.896 6.208-3.648 11.776-11.136 12.352-7.04 0.512-11.072-4.224-11.072-10.56-0.064-7.104 4.864-11.52 11.968-12.032 6.336-0.384 9.536 3.648 10.24 10.24z" fill="#242424" p-id="10020"></path><path d="M803.712 487.872c-4.8 2.944-5.696 6.912-4.544 12.288 2.24 10.496 0.384 17.6-13.12 14.08-2.624-0.64-5.696 0.704-8.512 0.576-4.864-0.256-11.392 2.688-12.544-5.632-0.64-4.544 0.128-8.96 5.056-10.816 8.704-3.264 8.512 4.864 12.096 10.944 9.6-13.824 1.28-27.584 2.944-40.384 0.576-4.352-0.32-9.408 4.992-10.752 2.24-0.576 6.016 1.088 7.616 2.944 1.6 1.856 2.624 5.888 1.728 8-5.248 11.904 0.832 13.44 10.112 11.008 9.792-2.56 12.48 1.728 10.24 10.048-1.6 5.952 0.704 11.456 0.384 17.152-0.256 4.48-1.6 7.36-6.656 7.552-5.568 0.192-7.744-2.24-8-7.68-0.256-6.336 3.84-13.184-1.792-19.328z" fill="#644E32" p-id="10021"></path><path d="M850.176 514.688c-4.352-2.368-9.344-1.024-14.592 0.064-6.464 1.28-9.728-1.536-9.728-8.64 0-7.424 3.968-9.664 10.048-8.128a33.088 33.088 0 0 0 15.424-0.064c6.464-1.408 9.664 1.6 9.664 8.64 0 7.36-3.712 9.088-10.816 8.128z" fill="#665034" p-id="10022"></path><path d="M820.16 442.368v5.888c-0.384 5.312-4.224 6.656-8.192 5.568-5.824-1.664-11.008-2.816-17.088-0.192-3.776 1.6-8.896 0.96-9.536-5.504-0.576-6.272 2.688-10.304 8.32-8.32 8.832 3.008 18.304-4.224 26.496 2.56z" fill="#644E32" p-id="10023"></path><path d="M782.08 525.888c0.064 5.76-2.624 8.896-8.448 9.344-5.76 0.448-9.024-1.6-8.896-7.936 0.064-5.312 0.768-9.472 7.552-9.344 5.504 0.128 9.152 2.112 9.792 7.936z" fill="#654E32" p-id="10024"></path><path d="M782.08 485.312c-0.192 6.272-3.264 8.96-8.96 9.28-6.208 0.384-8.384-2.56-8.384-8.512 0-5.696 1.6-9.088 8.064-8.832 5.632 0.32 8.896 2.816 9.28 8.064z" fill="#644D31" p-id="10025"></path><path d="M754.048 535.296c-4.544-0.256-9.408-1.28-8.384-6.976 0.768-4.096 0.768-10.304 7.808-10.112 6.016 0.192 8.128 3.904 8.32 9.408 0.192 5.44-2.24 8-7.744 7.68z" fill="#654E32" p-id="10026"></path><path d="M781.696 469.248c-0.448 3.392-4.416 5.12-9.92 4.992-4.864-0.064-6.848-2.496-6.912-7.232-0.064-7.104 4.672-7.36 9.856-7.232 4.416 0.128 7.616 1.536 6.976 9.472zM756.288 498.624c4.736 1.216 5.696 4.736 5.376 8.704-0.32 4.288-2.688 7.424-7.168 7.04-4.544-0.384-4.16-4.352-4.096-7.68 0.064-3.968 1.152-7.424 5.888-8.064z" fill="#644E32" p-id="10027"></path><path d="M191.296 403.008c-0.384 10.496-4.48 17.792-14.272 17.472-9.856-0.256-13.696-8.192-13.504-17.152 0.192-8.832 3.328-16.128 14.208-15.936 11.328 0.192 12.352 8.512 13.568 15.616z" fill="#1D1D1D" p-id="10028"></path><path d="M197.568 519.296c3.392-1.984 3.264-3.648 2.88-5.632-1.152-6.272-3.072-12.864 7.232-13.248 10.944-0.384 9.728 6.272 8.64 13.44-0.448 2.752 0.512 5.632 0.512 8.448 0 4.16 1.984 9.408-2.56 11.84a10.368 10.368 0 0 1-13.248-2.176c-0.64-0.704-1.152-1.984-1.856-2.048-3.712-0.32-7.04 10.304-9.792 2.432-2.88-8.192-1.024-17.984-1.152-27.072a3.84 3.84 0 0 1 3.456-3.968c2.944-0.384 4.416 1.536 4.736 4.16 0.512 4.416 0.768 8.832 1.152 13.824zM241.28 574.976c-3.2-1.984-6.336-0.128-9.6 0.512-5.952 1.216-10.816-0.32-11.456-7.296-0.64-6.656 3.584-10.816 9.6-9.344 11.712 2.816 12.48-2.304 10.688-11.456-0.704-3.584-0.512-8.064 4.8-8.896 3.84-0.576 7.936-0.64 10.56 2.88 2.496 3.328 2.944 7.424 0.32 10.688-2.688 3.328-4.608 3.84-0.192 8.896 5.888 6.784-3.328 15.424-14.72 14.016z" fill="#654E32" p-id="10029"></path><path d="M219.584 554.56c-4.544 0.384-7.872 1.024-11.2 0.96-5.888-0.064-8.896-3.392-8.576-9.216 0.256-5.248 3.456-7.68 8.512-7.936 5.632-0.256 11.2 1.408 17.088 0.192 6.592-1.408 12.48-0.448 12.16 9.152-0.32 9.088-6.336 8.064-12.096 7.872-2.368-0.128-4.736-0.832-5.888-1.024zM215.744 576.832c0.448 3.328 1.152 6.208 1.216 9.088 0.256 6.272-2.24 10.432-9.152 10.176-6.144-0.192-8.192-4.224-8.256-9.728 0-4.736 1.6-9.28 0.448-14.272-1.472-6.592-0.384-12.928 8.64-13.376 10.496-0.576 8.256 6.976 8.128 12.992 0 1.856-0.704 3.712-1.024 5.12zM241.728 516.416c-0.384-1.728-0.96-3.584-1.088-5.504-0.448-4.8-0.96-9.856 4.544-12.352 3.2-1.472 6.72-1.408 9.472 1.024 4.16 3.648 4.352 8.832 1.984 13.056-1.856 3.328-2.688 5.376-0.448 8.768 2.56 3.904 2.432 8.32-1.216 11.712-3.136 2.944-7.168 2.88-10.816 1.536-5.568-1.984-3.52-7.104-3.648-11.136-0.064-2.304 0.768-4.672 1.216-7.104zM208.576 494.592c-5.824-0.256-11.264-5.184-8.384-8.704 7.36-9.024-9.536-22.336 5.952-28.288 3.712-1.408 9.28 1.344 9.6 4.608 1.024 9.728 0.832 19.712 0.256 29.568-0.192 3.264-4.544 2.688-7.424 2.816z" fill="#654E32" p-id="10030"></path><path d="M216.96 627.84c0.512 5.888-1.344 9.472-8 9.152-5.76-0.32-8.896-3.008-9.344-8.832-0.448-6.272 2.432-8.64 8.576-8.64 5.888 0.064 9.344 1.984 8.768 8.32z" fill="#644E32" p-id="10031"></path><path d="M237.376 508.16c0.512 5.504-3.392 6.912-8.96 6.912-4.928-0.064-8.384-1.28-8.384-7.04 0-6.08 2.176-10.304 8.96-10.176 5.952 0.064 8.256 3.712 8.384 10.304z" fill="#654E32" p-id="10032"></path><path d="M230.528 599.296c5.568-0.512 7.04 3.328 6.912 8.96-0.064 4.864-1.216 8.384-7.04 8.384-6.144 0-10.304-2.112-10.176-8.96 0.064-5.888 3.776-8.256 10.304-8.384z" fill="#644D31" p-id="10033"></path><path d="M267.84 494.72c-4.8 0.448-7.168-2.432-7.168-8.448 0.064-5.568 1.472-9.216 8-8.96 5.568 0.256 9.152 2.496 9.344 8.384 0.128 5.888-3.136 8.64-10.176 9.024zM278.08 525.376c-0.064 6.592-3.008 9.6-8.768 9.856-4.992 0.256-8.512-0.96-8.512-6.848 0-5.376 1.536-9.6 7.616-10.176 5.696-0.576 8.96 2.24 9.664 7.168zM237.312 587.072c-0.256 6.144-3.2 9.28-9.024 9.024-6.016-0.192-8.128-3.968-8.32-9.536-0.128-5.504 2.432-7.744 7.872-7.616 5.632 0.192 9.024 2.624 9.472 8.128zM257.728 586.752c-0.064 6.016-2.752 9.408-8.704 9.344-5.888-0.064-8.384-3.52-8.576-9.152-0.192-5.312 1.792-8.128 7.424-8 5.568 0.128 9.152 2.24 9.856 7.808z" fill="#654E32" p-id="10034"></path><path d="M268.736 514.944c-5.504 0.384-8.064-2.048-7.936-7.552 0.128-5.568 2.24-9.344 8.256-9.6 5.824-0.192 9.024 2.816 8.96 8.704 0 6.08-3.84 8.256-9.28 8.448z" fill="#644E32" p-id="10035"></path><path d="M248.896 477.44c5.632 0.128 8.832 2.944 8.704 8.832-0.128 6.016-3.84 8.192-9.408 8.384-5.376 0.128-7.936-2.112-7.808-7.616 0.192-5.568 2.368-9.152 8.512-9.6zM237.504 528.512c0.32 3.584-1.408 6.848-7.168 6.848-5.44 0-9.6-1.664-10.048-7.744-0.512-5.76 2.176-9.28 8.128-9.472 5.888-0.192 8.704 3.136 9.088 10.368z" fill="#654E32" p-id="10036"></path><path d="M216.96 607.488c-0.448 6.656-3.776 9.408-9.536 8.96-5.184-0.384-7.744-3.584-7.616-8.64 0.192-5.952 3.648-8.64 9.408-8.32 5.312 0.32 7.488 3.712 7.744 8zM210.496 656.448c-4.288-2.048-10.816-1.088-10.88-8.832 0-5.44 2.368-7.744 7.68-7.744 5.12 0 9.792 0.256 9.664 7.168 0 4.608-0.768 8.64-6.464 9.408z" fill="#644E32" p-id="10037"></path><path d="M228.48 636.864c-5.76-0.32-8.64-3.584-8.256-9.344 0.32-5.184 3.456-7.744 8.576-7.68 6.016 0.128 8.768 3.52 8.384 9.28-0.256 5.184-3.456 7.616-8.704 7.744z" fill="#654E32" p-id="10038"></path><path d="M771.072 741.632c6.336 0.128 10.432 1.664 10.624 6.976 0.192 5.312-3.584 7.232-8.448 7.488-4.928 0.256-8.384-1.088-8.384-6.912-0.064-5.44 2.304-8 6.208-7.552zM755.776 735.68c-5.376 0.256-8.192-1.344-8.384-6.4-0.192-5.376 1.92-8.064 7.552-7.936 4.928 0.128 6.912 2.56 6.848 7.232-0.064 4.544-1.728 7.424-6.016 7.104zM753.792 741.696c4.224-0.192 7.68 0.704 7.936 5.888 0.192 4.032 0.064 7.936-5.376 8.256-5.696 0.384-7.296-3.968-8.32-8.128-1.024-4.288 1.792-5.952 5.76-6.016zM788.352 741.12c2.88 6.144 3.968 9.92-0.704 14.272-3.2-4.608-3.392-8.32 0.704-14.272z" fill="#654F33" p-id="10039"></path><path d="M700.608 810.112c0.384 4.864-2.368 7.232-7.808 7.04-5.696-0.192-9.472-2.56-9.28-8.64 0.192-6.272 5.184-8.128 10.048-8.192 5.312-0.128 7.04 4.16 7.04 9.792zM820.096 608.512c-0.64 2.432 1.152 7.936-4.224 6.464-4.224-1.152-9.344-3.648-9.92-9.28-0.512-5.184 2.944-6.4 7.424-6.4 6.144 0.064 6.848 4.032 6.72 9.216z" fill="#654E32" p-id="10040"></path></svg>