<?xml version="1.0" standalone="no"?><!DOCTYPE svg PUBLIC "-//W3C//DTD SVG 1.1//EN" "http://www.w3.org/Graphics/SVG/1.1/DTD/svg11.dtd"><svg t="1678798440964" class="icon" viewBox="0 0 1024 1024" version="1.1" xmlns="http://www.w3.org/2000/svg" p-id="4225" xmlns:xlink="http://www.w3.org/1999/xlink" width="200" height="200"><path d="M858.922667 955.733333V1024h-91.008v-68.266667h91.008z m-182.037334 0V1024h-91.029333v-68.266667h91.029333z m-182.037333 0V1024h-91.029333v-68.266667h91.029333z m-182.058667 0V1024h-91.008v-68.266667h91.008z m-234.026666-23.936A56.746667 56.746667 0 0 0 125.184 955.733333h5.589333V1024h-5.589333a125.013333 125.013333 0 0 1-101.973333-52.565333l55.594666-39.637334zM1024 896.042667v2.794666a125.034667 125.034667 0 0 1-55.296 103.872l-38.144-56.618666a56.789333 56.789333 0 0 0 25.173333-47.253334v-2.773333H1024zM68.266667 770.709333v91.008H0v-91.008h68.266667zM1024 714.005333v91.029334h-68.266667v-91.029334H1024zM640 298.666667a85.333333 85.333333 0 0 1 85.333333 85.333333v256a85.333333 85.333333 0 0 1-85.333333 85.333333H384a85.333333 85.333333 0 0 1-85.333333-85.333333V384a85.333333 85.333333 0 0 1 85.333333-85.333333h256zM68.266667 588.650667v91.029333H0v-91.029333h68.266667zM1024 531.968v91.008h-68.266667v-91.008H1024zM68.266667 406.613333v91.029334H0V406.613333h68.266667zM1024 349.909333v91.029334h-68.266667v-91.029334H1024z m-440.832 19.733334h-142.336a26.602667 26.602667 0 0 0-2.709333 53.077333l2.709333 0.149333h142.336a26.602667 26.602667 0 0 0 0-53.226666zM68.266667 224.576v91.008H0v-91.008h68.266667zM1024 167.872v91.029333h-68.266667V167.872H1024zM51.541333 23.936L91.733333 79.125333a56.746667 56.746667 0 0 0-23.466666 46.037334v8.384H0v-8.384a125.013333 125.013333 0 0 1 51.541333-101.226667zM898.837333 0a125.077333 125.077333 0 0 1 106.026667 58.624l-57.813333 36.330667a56.810667 56.810667 0 0 0-48.213334-26.688h-11.178666V0h11.178666z m-648.32 0v68.266667H159.445333V0h91.029334z m182.016 0v68.266667H341.546667V0h91.008z m182.058667 0v68.266667h-91.029333V0h91.029333z m182.037333 0v68.266667h-91.029333V0h91.029333z" p-id="4226"></path></svg>