<?xml version="1.0" encoding="UTF-8"?>
<svg xmlns="http://www.w3.org/2000/svg" xmlns:xlink="http://www.w3.org/1999/xlink" width="48px" height="48px" viewBox="0 0 48 48" version="1.1">
<g id="surface1">
<path style=" stroke:none;fill-rule:nonzero;fill:rgb(68.627451%,83.137255%,89.803922%);fill-opacity:1;" d="M 23.78125 3 L 4.058594 12.441406 L 23.78125 24.289062 L 43.941406 13.242188 Z M 23.78125 3 "/>
<path style=" stroke:none;fill-rule:nonzero;fill:rgb(40%,60%,80%);fill-opacity:1;" d="M 23.785156 45 L 4.058594 31.015625 L 4.058594 12.441406 L 23.78125 24.289062 Z M 23.785156 45 "/>
<path style=" stroke:none;fill-rule:nonzero;fill:rgb(49.019608%,65.490196%,82.745098%);fill-opacity:1;" d="M 43.941406 32.226562 L 23.785156 45 L 23.78125 24.289062 L 43.941406 13.242188 Z M 43.941406 32.226562 "/>
<path style=" stroke:none;fill-rule:nonzero;fill:rgb(21.960784%,41.568627%,61.568627%);fill-opacity:1;" d="M 35.089844 37.835938 L 34.5625 38.171875 L 34.222656 18.570312 L 34.804688 18.25 Z M 35.089844 37.835938 "/>
<path style=" stroke:none;fill-rule:nonzero;fill:rgb(40%,60%,80%);fill-opacity:1;" d="M 17.445312 10.425781 C 20.195312 8.558594 23.496094 7.691406 26.804688 7.960938 C 27.699219 8.078125 28.578125 8.285156 29.429688 8.574219 C 31.46875 9.300781 33.328125 10.449219 34.894531 11.941406 C 35.246094 12.222656 35.558594 12.546875 35.824219 12.910156 C 35.78125 13.109375 35.539062 13.175781 35.390625 13.285156 C 34.480469 13.773438 33.59375 14.300781 32.664062 14.765625 C 32.128906 15.109375 31.558594 15.394531 30.964844 15.621094 C 31.277344 14.949219 31.351562 14.195312 31.183594 13.472656 C 30.605469 12.226562 29.53125 11.277344 28.21875 10.867188 C 26.320312 10.234375 24.269531 10.234375 22.371094 10.867188 C 21.09375 11.257812 20.003906 12.101562 19.300781 13.234375 C 18.765625 14.210938 18.953125 15.425781 19.761719 16.191406 C 21.105469 17.1875 22.738281 17.71875 24.410156 17.703125 C 25.242188 17.757812 26.078125 17.722656 26.902344 17.597656 C 27.078125 17.554688 27.261719 17.597656 27.394531 17.722656 C 25.820312 18.398438 24.308594 19.222656 22.746094 19.929688 C 21.949219 20.023438 21.144531 19.917969 20.402344 19.628906 C 18.433594 19.15625 16.703125 17.984375 15.539062 16.328125 C 14.898438 15.339844 14.746094 14.109375 15.128906 12.992188 C 15.578125 11.890625 16.398438 10.984375 17.445312 10.425781 Z M 17.445312 10.425781 "/>
</g>
</svg>
