<?xml version="1.0" standalone="no"?><!DOCTYPE svg PUBLIC "-//W3C//DTD SVG 1.1//EN" "http://www.w3.org/Graphics/SVG/1.1/DTD/svg11.dtd"><svg t="1634610054207" class="icon" viewBox="0 0 1024 1024" version="1.1" xmlns="http://www.w3.org/2000/svg" p-id="2180" xmlns:xlink="http://www.w3.org/1999/xlink" width="200" height="200"><defs><style type="text/css"></style></defs><path d="M85.333333 170.666667h682.666667a85.589333 85.589333 0 0 1 85.226667 81.066666L853.333333 256v682.666667a85.589333 85.589333 0 0 1-81.066666 85.226666L768 1024H85.333333a85.589333 85.589333 0 0 1-85.226666-81.066667L0 938.666667V256a85.589333 85.589333 0 0 1 81.066667-85.226667L85.333333 170.666667h682.666667z m682.517334 85.333333H85.482667L85.333333 256.149333v682.368l0.149334 0.149334h682.368l0.149333-0.149334V256.149333L767.850667 256zM938.666667 0a85.589333 85.589333 0 0 1 85.333333 85.333333v682.666667a85.589333 85.589333 0 0 1-85.333333 85.333333h-42.666667v-85.333333h42.517333l0.149334-0.149333V85.482667L938.517333 85.333333H256.149333L256 85.482667V128H170.666667V85.333333a85.589333 85.589333 0 0 1 85.333333-85.333333zM682.666667 682.666667v85.333333H170.666667v-85.333333h512z m0-256v85.333333H170.666667v-85.333333h512z" p-id="2181"></path></svg>