<?xml version="1.0" encoding="utf-8"?>
<!-- Generator: Adobe Illustrator 16.0.0, SVG Export Plug-In . SVG Version: 6.00 Build 0)  -->
<!DOCTYPE svg PUBLIC "-//W3C//DTD SVG 1.1//EN" "http://www.w3.org/Graphics/SVG/1.1/DTD/svg11.dtd">
<svg version="1.1" id="图层_1" xmlns="http://www.w3.org/2000/svg" xmlns:xlink="http://www.w3.org/1999/xlink" x="0px" y="0px"
	 width="20.137px" height="20px" viewBox="0 0 20.137 20" enable-background="new 0 0 20.137 20" xml:space="preserve">
<path d="M6.015,17.517V7.433C5.949,6.241,6.446,5.676,7.506,5.744h5.168v0.547H8.896
	c-0.596,0-0.895,0.331-0.895,0.993v2.187h4.472v0.597h-4.47v7.449H6.015z"/>
<path d="M12.484,14.175l2.732-2.832l-2.732-3.182h1.938l1.74,2.137l1.739-2.137h1.839l-2.733,3.083l2.632,2.932
	c-1.59,0.065-2.452-0.147-2.583-0.645c-0.1-0.132-0.183-0.232-0.249-0.3l-0.744-0.944l-0.796,0.896
	c-0.034,0.064-0.1,0.131-0.199,0.199C14.836,13.977,13.976,14.24,12.484,14.175z"/>
<path d="M15.674,19.666H0.335V7.482l7.148-7.148h8.19V3.82h-1.317V1.65H8.029L1.652,8.027v10.324h12.705v-1.808
	h1.317V19.666z"/>
</svg>
