<?xml version="1.0" encoding="utf-8"?>
<!-- Generator: Adobe Illustrator 24.0.0, SVG Export Plug-In . SVG Version: 6.00 Build 0)  -->
<svg version="1.1" id="图层_1" xmlns="http://www.w3.org/2000/svg" xmlns:xlink="http://www.w3.org/1999/xlink" x="0px" y="0px"
	 viewBox="0 0 20 20" style="enable-background:new 0 0 20 20;" xml:space="preserve">
<style type="text/css">
	.st0{fill:#394D54;}
	.st1{fill:#00AADA;}
	.st2{fill:#24B8EB;}
	.st3{fill:#008BB8;}
	.st4{fill:#039BC6;}
	.st5{fill:#00ACD3;}
	.st6{fill:#20C2EF;}
	.st7{fill:#D4EDF1;}
	.st8{fill:#BFDBE0;}
</style>
<path class="st0" d="M14.8,17.3c0.4-0.4,0.9-0.8,1.3-1.2c0.2-0.1,0.3-0.3,0.5-0.4c-0.1-0.2-0.3-0.3-0.5-0.3c-0.3-0.1-0.7-0.1-1,0.1
	c-0.4,0.2-0.6,0.6-0.6,1.1c0,0.2,0.1,0.4,0.2,0.5C14.7,17.2,14.8,17.3,14.8,17.3 M15.3,17.7c0.2,0.1,0.5,0.1,0.7,0
	c0.1-0.1,0.4-0.2,0.5-0.2l0,0l0,0c0.1,0,0.1,0.1,0.2,0.1c0.1,0.2,0,0.3-0.1,0.4l-0.1,0c-0.6,0.3-1.2,0.3-1.8,0
	c-0.3-0.1-0.5-0.4-0.6-0.6l0-0.1c-0.4-0.6-0.3-1.3,0.1-1.9c0.1-0.2,0.3-0.4,0.6-0.5l0.1,0c0.5-0.3,1.1-0.3,1.7,0
	c0.3,0.1,0.5,0.4,0.7,0.7l0,0.1c0.1,0.2,0,0.4-0.2,0.5c-0.2,0.1-0.4,0.3-0.6,0.5C16.1,17,15.7,17.4,15.3,17.7z M19.6,14.8L19.6,14.8
	c0.2,0,0.4,0.1,0.4,0.3c0,0.3-0.2,0.3-0.4,0.3c-0.3,0-0.5,0.2-0.7,0.3c-0.2,0.2-0.3,0.5-0.3,0.9v1.5c0,0.2-0.1,0.3-0.3,0.3h0
	c-0.2,0-0.3-0.1-0.3-0.3v-1.6c0-0.6,0.3-1.1,0.8-1.4C19,14.9,19.3,14.8,19.6,14.8z M12.1,15.8c0.2-0.2,0.5-0.5,0.7-0.7
	c0.1-0.1,0.3-0.3,0.4-0.3h0.1l0,0c0.1,0,0.2,0.1,0.2,0.3v0.1c0,0.1-0.1,0.2-0.2,0.3c-0.1,0.1-0.3,0.3-0.4,0.4l-0.7,0.7
	c0.3,0.3,0.6,0.6,0.9,1c0.1,0.1,0.2,0.2,0.3,0.3c0,0,0.1,0.1,0.1,0.1s0,0.1,0,0.1v0.1l0,0c0,0.1-0.1,0.3-0.3,0.3h-0.1
	c-0.1,0-0.2-0.1-0.3-0.2c-0.1-0.1-0.3-0.3-0.4-0.4l-0.5-0.5v0.7c0,0.2-0.1,0.3-0.3,0.3h0c-0.2,0-0.3-0.1-0.3-0.3v-4.1
	c0-0.2,0.1-0.3,0.3-0.3h0c0.2,0,0.3,0.1,0.3,0.3C12.1,13.9,12.1,15.8,12.1,15.8z M10.1,15.4c-0.1,0-0.3-0.1-0.4-0.1
	c-0.5,0-0.9,0.3-1.1,0.7c-0.1,0.2-0.1,0.3-0.1,0.5c0,0.5,0.3,0.9,0.7,1.1c0.2,0.1,0.4,0.1,0.6,0.1c0.2,0,0.4-0.1,0.5-0.2l0,0h0.1
	l0,0c0.1,0,0.2,0.1,0.2,0.3v0.1c0,0.4-0.7,0.5-0.9,0.5C9,18.4,8.3,17.9,8,17.1C8,16.9,8,16.8,8,16.6v-0.1c0-0.7,0.3-1.2,0.9-1.5
	c0.3-0.2,0.6-0.2,0.9-0.2h0.1c0.3,0,0.6,0.1,0.9,0.3l0,0l0,0c0,0,0.1,0.1,0.1,0.2v0.1c0,0.2-0.1,0.2-0.3,0.3h-0.1
	C10.4,15.6,10.2,15.5,10.1,15.4z M4.6,16.6c0,0.5,0.2,0.8,0.6,1c0.2,0.1,0.4,0.2,0.6,0.2c0.5,0,0.8-0.2,1-0.6C6.9,17,7,16.8,7,16.6
	c0-0.4-0.2-0.8-0.6-1c-0.2-0.1-0.4-0.2-0.6-0.2c-0.5,0-0.9,0.3-1.1,0.7C4.6,16.2,4.6,16.4,4.6,16.6z M5.7,14.8L5.7,14.8
	c0.8,0,1.3,0.3,1.7,1c0.1,0.2,0.2,0.5,0.2,0.8v0.1c0,0.7-0.3,1.2-0.9,1.5c-0.3,0.2-0.6,0.2-0.9,0.2H5.7c-0.7,0-1.2-0.3-1.5-0.9
	C4.1,17.2,4,16.9,4,16.6v-0.1c0-0.7,0.3-1.2,0.9-1.5C5.1,14.8,5.4,14.8,5.7,14.8z M0.6,16.6c0,0.5,0.2,0.8,0.6,1.1
	c0.2,0.1,0.4,0.1,0.5,0.1c0.5,0,0.8-0.2,1.1-0.6C3,17,3,16.8,3,16.6c0-0.4-0.2-0.7-0.5-1c-0.2-0.1-0.4-0.2-0.7-0.2
	c-0.5,0-0.9,0.3-1.1,0.7C0.7,16.2,0.6,16.4,0.6,16.6z M3,15.2v-1.3c0-0.2,0.1-0.3,0.3-0.3h0.1c0.2,0,0.3,0.1,0.3,0.3v2.7
	c0,0.7-0.3,1.2-0.9,1.5c-0.3,0.2-0.6,0.2-0.9,0.2H1.8c-0.7,0-1.2-0.3-1.5-0.9C0.1,17.2,0,16.9,0,16.6v-0.1c0-0.7,0.3-1.2,0.9-1.5
	c0.3-0.2,0.6-0.2,0.9-0.2h0.1C2.3,14.8,2.7,14.9,3,15.2z M11.5,5.2h1.8V7h0.9c0.4,0,0.8-0.1,1.2-0.2c0.2-0.1,0.4-0.2,0.6-0.3
	c-0.3-0.3-0.4-0.7-0.4-1.2c-0.1-0.6,0.1-1.3,0.4-1.7l0.2-0.2l0.2,0.2c0.6,0.5,1,1.1,1.1,1.8c0.7-0.2,1.5-0.2,2.1,0.2L20,5.8L19.8,6
	c-0.5,1-1.6,1.3-2.6,1.2c-1.6,3.9-4.9,5.7-9,5.7c-2.1,0-4.1-0.8-5.2-2.7l0,0L2.9,9.9C2.5,9.1,2.4,8.2,2.5,7.3l0-0.3H4V5.2h1.8V3.4
	h3.6V1.6h2.1C11.5,1.6,11.5,5.2,11.5,5.2z"/>
<path class="st1" d="M17.3,5.9c0.1-0.9-0.6-1.7-1-2c-0.5,0.6-0.6,2.1,0.2,2.7c-0.4,0.4-1.4,0.7-2.3,0.7H2.8c-0.1,1,0.1,1.9,0.5,2.7
	l0.1,0.2c0.1,0.1,0.2,0.3,0.3,0.4c0.5,0,0.9,0,1.3,0c0.8,0,1.4-0.1,1.9-0.3c0.1,0,0.2,0,0.2,0.1c0,0.1,0,0.2-0.1,0.2
	c-0.1,0-0.1,0-0.2,0.1c-0.4,0.1-0.8,0.2-1.3,0.2c0,0,0,0,0,0c0,0,0,0-0.1,0c-0.2,0-0.4,0-0.7,0c-0.3,0-0.5,0-0.8,0l0,0
	c1,1.1,2.4,1.7,4.3,1.7c4,0,7.3-1.8,8.8-5.7c1.1,0.1,2.1-0.2,2.5-1.1C18.8,5.5,17.9,5.6,17.3,5.9z"/>
<path class="st2" d="M17.3,5.9c0.1-0.9-0.6-1.7-1-2c-0.5,0.6-0.6,2.1,0.2,2.7c-0.4,0.4-1.4,0.7-2.3,0.7H3.4c0,1.5,0.5,2.6,1.5,3.3
	c0.8,0,1.4-0.1,1.9-0.3c0.1,0,0.2,0,0.2,0.1s0,0.2-0.1,0.2c-0.1,0-0.1,0-0.2,0.1c-0.4,0.1-0.8,0.2-1.3,0.2l0,0
	c1.3,0.7,3.3,0.7,5.5-0.2C13.4,9.8,15.8,7.9,17.3,5.9C17.4,5.8,17.4,5.9,17.3,5.9z"/>
<path class="st3" d="M2.8,8.5C2.9,9,3,9.5,3.2,10l0.1,0.2c0.1,0.1,0.2,0.3,0.3,0.4c0.5,0,0.9,0,1.3,0c0.8,0,1.4-0.1,1.9-0.3
	c0.1,0,0.2,0,0.2,0.1c0,0.1,0,0.2-0.1,0.2c-0.1,0-0.1,0-0.2,0.1c-0.4,0.1-0.8,0.2-1.3,0.2c0,0-0.1,0-0.1,0c-0.2,0-0.4,0-0.7,0
	c-0.3,0-0.5,0-0.8,0c1,1.1,2.5,1.7,4.3,1.7c3.4,0,6.3-1.3,8.1-4.1L2.8,8.5L2.8,8.5z"/>
<path class="st4" d="M3.6,8.5c0.2,0.9,0.7,1.7,1.4,2.1c0.8,0,1.4-0.1,1.9-0.3c0.1,0,0.2,0,0.2,0.1c0,0.1,0,0.2-0.1,0.2
	c-0.1,0-0.1,0-0.2,0.1c-0.4,0.1-0.8,0.2-1.4,0.2c1.3,0.7,3.3,0.7,5.5-0.2c1.4-0.5,2.7-1.3,3.8-2.2C14.8,8.5,3.6,8.5,3.6,8.5z"/>
<path class="st5" d="M5.6,5.6h0.1v1.3H5.6V5.6z M5.4,5.6h0.1v1.3H5.4V5.6z M5.2,5.6h0.1v1.3H5.2V5.6z M4.9,5.6H5v1.3H4.9V5.6z
	 M4.7,5.6h0.1v1.3H4.7V5.6z M4.5,5.6h0.1v1.3H4.5V5.6z M4.3,5.5h1.6V7H4.3C4.3,7,4.3,5.5,4.3,5.5z M7.4,3.8h0.1v1.3H7.4V3.8z
	 M7.2,3.8h0.1v1.3H7.2V3.8z M6.9,3.8h0.1v1.3H6.9V3.8z M6.7,3.8h0.1v1.3H6.7V3.8z M6.5,3.8h0.1v1.3H6.5V3.8z M6.2,3.8h0.1v1.3H6.2
	C6.2,5.1,6.2,3.8,6.2,3.8z M6.1,3.7h1.6v1.6H6.1C6.1,5.2,6.1,3.7,6.1,3.7z"/>
<path class="st6" d="M7.4,5.6h0.1v1.3H7.4V5.6z M7.2,5.6h0.1v1.3H7.2V5.6z M6.9,5.6h0.1v1.3H6.9V5.6z M6.7,5.6h0.1v1.3H6.7V5.6z
	 M6.5,5.6h0.1v1.3H6.5V5.6z M6.2,5.6h0.1v1.3H6.2C6.2,6.9,6.2,5.6,6.2,5.6z M6.1,5.5h1.6V7H6.1C6.1,7,6.1,5.5,6.1,5.5z"/>
<path class="st5" d="M9.2,5.6h0.1v1.3H9.2V5.6z M9,5.6h0.1v1.3H9V5.6z M8.7,5.6h0.1v1.3H8.7V5.6z M8.5,5.6h0.1v1.3H8.5V5.6z
	 M8.3,5.6h0.1v1.3H8.3V5.6z M8,5.6h0.1v1.3H8V5.6z M7.9,5.5h1.6V7H7.9C7.9,7,7.9,5.5,7.9,5.5z"/>
<path class="st6" d="M9.2,3.8h0.1v1.3H9.2V3.8z M9,3.8h0.1v1.3H9V3.8z M8.7,3.8h0.1v1.3H8.7V3.8z M8.5,3.8h0.1v1.3H8.5V3.8z
	 M8.3,3.8h0.1v1.3H8.3V3.8z M8,3.8h0.1v1.3H8V3.8z M7.9,3.7h1.6v1.6H7.9C7.9,5.2,7.9,3.7,7.9,3.7z M11,5.6h0.1v1.3H11V5.6z
	 M10.8,5.6h0.1v1.3h-0.1V5.6z M10.5,5.6h0.1v1.3h-0.1V5.6z M10.3,5.6h0.1v1.3h-0.1V5.6z M10.1,5.6h0.1v1.3h-0.1V5.6z M9.8,5.6h0.1
	v1.3H9.8V5.6z M9.7,5.5h1.6V7H9.7C9.7,7,9.7,5.5,9.7,5.5z"/>
<path class="st5" d="M11,3.8h0.1v1.3H11V3.8z M10.8,3.8h0.1v1.3h-0.1V3.8z M10.5,3.8h0.1v1.3h-0.1V3.8z M10.3,3.8h0.1v1.3h-0.1V3.8z
	 M10.1,3.8h0.1v1.3h-0.1V3.8z M9.8,3.8h0.1v1.3H9.8V3.8z M9.7,3.7h1.6v1.6H9.7C9.7,5.2,9.7,3.7,9.7,3.7z"/>
<path class="st6" d="M11,2h0.1v1.3H11V2z M10.8,2h0.1v1.3h-0.1V2z M10.5,2h0.1v1.3h-0.1V2z M10.3,2h0.1v1.3h-0.1V2z M10.1,2h0.1v1.3
	h-0.1V2z M9.8,2h0.1v1.3H9.8V2z M9.7,1.9h1.6v1.6H9.7C9.7,3.5,9.7,1.9,9.7,1.9z"/>
<path class="st5" d="M12.8,5.6h0.1v1.3h-0.1V5.6z M12.6,5.6h0.1v1.3h-0.1V5.6z M12.3,5.6h0.1v1.3h-0.1V5.6z M12.1,5.6h0.1v1.3h-0.1
	V5.6z M11.8,5.6H12v1.3h-0.1V5.6z M11.6,5.6h0.1v1.3h-0.1C11.6,6.9,11.6,5.6,11.6,5.6z M11.5,5.5H13V7h-1.6
	C11.5,7,11.5,5.5,11.5,5.5z"/>
<path class="st7" d="M7.6,9.5C7.8,9.5,8,9.7,8,10s-0.2,0.4-0.4,0.4S7.1,10.2,7.1,10S7.3,9.5,7.6,9.5"/>
<path class="st0" d="M7.6,9.7c0,0,0.1,0,0.1,0c0,0-0.1,0.1-0.1,0.1c0,0.1,0.1,0.1,0.1,0.1c0,0,0.1,0,0.1-0.1c0,0,0,0.1,0,0.1
	c0,0.2-0.1,0.3-0.3,0.3S7.3,10.1,7.3,10S7.4,9.7,7.6,9.7 M0,8.7h19.9c-0.4-0.1-1.4-0.3-1.2-0.8C17.9,8.7,16,8.5,15.5,8
	c-0.5,0.8-3.6,0.5-3.9-0.1c-0.7,0.8-2.7,0.8-3.4,0C8,8.5,4.9,8.8,4.4,8C3.9,8.5,2,8.7,1.2,7.8C1.4,8.4,0.4,8.6,0,8.7"/>
<path class="st8" d="M8.7,12.6c-1.1-0.5-1.6-1.2-2-1.9c-0.4,0.1-0.9,0.2-1.4,0.2c-0.2,0-0.4,0-0.7,0c-0.3,0-0.5,0-0.8,0
	c1,1,2.2,1.7,4.4,1.7C8.4,12.6,8.5,12.6,8.7,12.6z"/>
<path class="st7" d="M7.1,11.4c-0.1-0.2-0.3-0.4-0.4-0.7c-0.4,0.1-0.9,0.2-1.4,0.2C5.7,11.1,6.2,11.3,7.1,11.4z"/>
</svg>
