<?xml version="1.0" standalone="no"?><!DOCTYPE svg PUBLIC "-//W3C//DTD SVG 1.1//EN" "http://www.w3.org/Graphics/SVG/1.1/DTD/svg11.dtd"><svg t="1630046643624" class="icon" viewBox="0 0 1024 1024" version="1.1" xmlns="http://www.w3.org/2000/svg" p-id="2917" xmlns:xlink="http://www.w3.org/1999/xlink" width="200" height="200"><defs><style type="text/css"></style></defs><path d="M13.568 0m85.333333 0l670.421334 0q85.333333 0 85.333333 85.333333l0 699.285334q0 85.333333-85.333333 85.333333l-670.421334 0q-85.333333 0-85.333333-85.333333l0-699.285334q0-85.333333 85.333333-85.333333Z" fill="#DCDEE5" p-id="2918"></path><path d="M910.570667 168.341333a85.333333 85.333333 0 0 1 85.333333 85.333334v670.421333a85.333333 85.333333 0 0 1-85.333333 85.333333H240.149333a85.333333 85.333333 0 0 1-85.333333-85.333333V253.653333a85.333333 85.333333 0 0 1 85.333333-85.333333h670.421334zM351.146667 622.656h-45.888a37.333333 37.333333 0 0 0 0 74.666667h45.866666a37.333333 37.333333 0 0 0 0-74.666667z m86.122666-156.437333H305.28a37.333333 37.333333 0 1 0 0 74.666666h132.010667a37.333333 37.333333 0 1 0 0-74.666666zM758.826667 309.76H305.28a37.333333 37.333333 0 0 0 0 74.666667h453.546667a37.333333 37.333333 0 0 0 0-74.666667z" fill="#B6BAC6" p-id="2919"></path><path d="M665.92 483.776c110.016 0 198.997333 90.602667 198.997333 202.176 0 42.026667-12.629333 81.066667-34.261333 113.408l59.605333 60.714667a26.325333 26.325333 0 0 1-37.525333 36.906666l-56.896-57.92a196.48 196.48 0 0 1-123.392 48.938667l-6.528 0.106667c-110.058667 0-199.04-90.666667-199.04-202.154667 0-111.552 89.024-202.176 199.04-202.176z m-0.021333 52.650667c-80.725333 0-146.368 66.794667-146.368 149.525333 0 82.666667 65.621333 149.525333 146.389333 149.525333 80.725333 0 146.368-66.858667 146.368-149.546666 0-82.709333-65.642667-149.504-146.389333-149.504z" fill="#DCDEE5" p-id="2920"></path></svg>