<?xml version="1.0" encoding="utf-8"?>
<!-- Generator: Adobe Illustrator 24.0.0, SVG Export Plug-In . SVG Version: 6.00 Build 0)  -->
<svg version="1.1" id="图层_1" xmlns="http://www.w3.org/2000/svg" xmlns:xlink="http://www.w3.org/1999/xlink" x="0px" y="0px"
	 viewBox="0 0 16 16" style="enable-background:new 0 0 16 16;" xml:space="preserve">
<path d="M8.9,15.6c-0.3,0-0.5-0.2-0.5-0.6V6.2c0-0.1,0-0.3,0.1-0.3l3.7-4.3h-10l3.7,4.3C6,6,6,6.1,6,6.2v5.3l0.9,0.8
	c0.2,0.2,0.3,0.6,0.1,0.8c-0.2,0.2-0.5,0.3-0.8,0.1l-1.1-0.9C5,12.2,4.9,12,4.9,11.8V6.4L0.5,1.4C0.3,1.2,0.3,0.9,0.4,0.7
	c0-0.1,0.2-0.3,0.4-0.3h12.6c0.2,0,0.4,0.1,0.5,0.3c0.1,0.2,0,0.4-0.1,0.7L9.5,6.4V15C9.5,15.3,9.2,15.6,8.9,15.6L8.9,15.6z
	 M15.1,6.5h-3.8c-0.3,0-0.5,0.2-0.5,0.6c0,0.3,0.2,0.6,0.5,0.6h3.8c0.3,0,0.5-0.2,0.5-0.6C15.6,6.9,15.4,6.5,15.1,6.5z M15.1,9.7
	h-3.8c-0.3,0-0.5,0.2-0.5,0.6c0,0.3,0.2,0.6,0.5,0.6h3.8c0.3,0,0.5-0.2,0.5-0.6C15.6,9.9,15.4,9.7,15.1,9.7z M15.1,12.8h-3.8
	c-0.3,0-0.5,0.2-0.5,0.6s0.2,0.6,0.5,0.6h3.8c0.3,0,0.5-0.2,0.5-0.6C15.6,13.1,15.4,12.8,15.1,12.8L15.1,12.8z"/>
</svg>
