<?xml version="1.0" encoding="utf-8"?>
<!-- Generator: Adobe Illustrator 24.0.0, SVG Export Plug-In . SVG Version: 6.00 Build 0)  -->
<svg version="1.1" id="图层_1" xmlns="http://www.w3.org/2000/svg" xmlns:xlink="http://www.w3.org/1999/xlink" x="0px" y="0px"
	 viewBox="0 0 16 16" style="enable-background:new 0 0 16 16;" xml:space="preserve">
<style type="text/css">
	.st0{fill:#CE9F06;}
	.st1{fill:#FFFFFF;}
	.st2{fill:#FFCD2C;}
</style>
<path class="st0" d="M15.4,12.2H0.6V3.4h13.7c0.6,0,1.1,0.5,1.1,1.1L15.4,12.2C15.4,12.2,15.4,12.2,15.4,12.2z M9.8,3.4
	c0-1-0.8-1.8-1.8-1.8H0.6v1.8H9.8"/>
<path class="st1" d="M2.5,9.7V4.2h11.1v5.5H2.5z"/>
<path class="st2" d="M15.4,13.4V6.2c0-0.5-0.4-0.9-0.9-0.9H1.5C1,5.3,0.6,5.7,0.6,6.2v7.2c0,0.6,0.5,1.1,1.1,1.1h12.5
	C14.9,14.5,15.4,14,15.4,13.4z"/>
</svg>
