<?xml version="1.0" encoding="utf-8"?>
<!-- Generator: Adobe Illustrator 24.0.0, SVG Export Plug-In . SVG Version: 6.00 Build 0)  -->
<svg version="1.1" id="图层_1" xmlns="http://www.w3.org/2000/svg" xmlns:xlink="http://www.w3.org/1999/xlink" x="0px" y="0px"
	 viewBox="0 0 20 20" style="enable-background:new 0 0 20 20;" xml:space="preserve">
<style type="text/css">
	.st0{fill:#3A84FF;}
	.st1{fill:#FFFFFF;}
</style>
<path class="st0" d="M19.9,15.6H0.1V3.6h18.4c0.8,0,1.5,0.7,1.5,1.5L19.9,15.6L19.9,15.6z M10,1.2H2.5c-1.4,0-2.5,1.1-2.5,2.5h12.4
	C12.5,2.3,11.4,1.2,10,1.2L10,1.2z"/>
<path class="st1" d="M2.5,12.2V6c0-0.7,0.6-1.2,1.2-1.2h12.4c0.7,0,1.2,0.6,1.2,1.2v6.2L2.5,12.2L2.5,12.2z"/>
<path class="st0" d="M19.9,17.1V7.5c0-0.7-0.6-1.2-1.2-1.2H1.3c-0.7,0-1.2,0.6-1.2,1.2v9.7c0,0.8,0.7,1.5,1.5,1.5h16.8
	C19.3,18.7,19.9,18,19.9,17.1C19.9,17.1,19.9,17.1,19.9,17.1z"/>
</svg>
