<?xml version="1.0" standalone="no"?><!DOCTYPE svg PUBLIC "-//W3C//DTD SVG 1.1//EN" "http://www.w3.org/Graphics/SVG/1.1/DTD/svg11.dtd"><svg t="1588820627942" class="icon" viewBox="0 0 1024 1024" version="1.1" xmlns="http://www.w3.org/2000/svg" p-id="20470" xmlns:xlink="http://www.w3.org/1999/xlink" width="40" height="40"><defs><style type="text/css"></style></defs><path d="M751.80113 11.570621H210.932429a74.804068 74.804068 0 0 0-74.572655 74.572656v851.713446A74.804068 74.804068 0 0 0 210.932429 1012.429379h708.700565a74.804068 74.804068 0 0 0 74.572656-74.572656V254.032994z" fill="#E4F9F4" p-id="20471"></path><path d="M751.80113 179.344633a74.861921 74.861921 0 0 0 74.572655 74.630508h167.774012L751.80113 11.570621z" fill="#6BDDC7" p-id="20472"></path><path d="M18.223729 624.813559m69.423729 0l569.853107 0q69.423729 0 69.423729 69.423729l0 185.129944q0 69.423729-69.423729 69.423728l-569.853107 0q-69.423729 0-69.423729-69.423728l0-185.129944q0-69.423729 69.423729-69.423729Z" fill="#38D6B8" p-id="20473"></path><path d="M388.801808 490.501785l128.943006-273.529491 37.888 17.865039-128.948791 273.529492z" fill="#6BDDC7" p-id="20474"></path><path d="M73.878418 663.748701h24.529718v247.26418H73.878418zM191.262373 804.158192a50.44791 50.44791 0 0 0-12.380565-36.389604 45.703955 45.703955 0 0 0-34.711864-12.901243 46.91887 46.91887 0 0 0-33.728362 11.570621 42.984859 42.984859 0 0 0-11.975593 32.5713l-3.586893-34.017628a57.332429 57.332429 0 0 1 24.818983-25.050395 78.506667 78.506667 0 0 1 35.868927-7.752316 54.72904 54.72904 0 0 1 44.489039 18.802259q15.620339 18.455141 15.678192 53.167006v107.143955h-24.471864zM237.429153 734.734463h79.605875v21.058531H237.429153z m28.174463 165.575593c-6.653107-7.925876-9.950734-19.55435-9.950735-35.001129v-182.179435h24.471865v182.295141a26.496723 26.496723 0 0 0 5.091073 17.355932 18.512994 18.512994 0 0 0 15.157514 6.132429h16.661695v22.794125h-20.075028q-21.40565 0.173559-31.356384-11.628475zM347.23435 734.734463h24.471865v176.509831h-24.471865zM457.907345 804.158192a54.208362 54.208362 0 0 0-11.16565-36.389604 39.513672 39.513672 0 0 0-31.703503-12.901243 42.406328 42.406328 0 0 0-31.877062 11.570621 45.125424 45.125424 0 0 0-11.570622 32.918418l-3.586892-34.017627a56.985311 56.985311 0 0 1 23.141243-25.51322 68.498079 68.498079 0 0 1 33.32339-7.81017 56.291073 56.291073 0 0 1 31.240678 8.388701 52.067797 52.067797 0 0 1 19.727909 24.58757 101.821469 101.821469 0 0 1 6.826667 39.166554v107.143955H457.907345z m110.499435 0a53.919096 53.919096 0 0 0-11.223503-36.389604 39.513672 39.513672 0 0 0-31.587797-12.901243 40.497175 40.497175 0 0 0-31.934915 12.554124 51.2 51.2 0 0 0-11.570621 35.406102l-10.355707-25.513221a75.20904 75.20904 0 0 1 23.604068-33.612655 57.853107 57.853107 0 0 1 36.389605-11.570622 61.613559 61.613559 0 0 1 33.091977 8.388701 52.993446 52.993446 0 0 1 20.827119 24.587571 96.267571 96.267571 0 0 1 7.173785 39.050847v107.143955h-24.529718zM652.583051 864.614689a25.281808 25.281808 0 0 0 5.785311 17.355932 19.55435 19.55435 0 0 0 15.388926 6.190283h16.314576v22.794124h-20.422146a38.530169 38.530169 0 0 1-30.546441-12.264859 50.44791 50.44791 0 0 1-10.760678-34.711864v-200.229604h24.471864z" fill="#FFFFFF" p-id="20475"></path></svg>