<?xml version="1.0" encoding="UTF-8"?>
<svg width="14px" height="14px" viewBox="0 0 14 14" version="1.1" xmlns="http://www.w3.org/2000/svg" xmlns:xlink="http://www.w3.org/1999/xlink">
    <g id="Generic仓库新增批量上传功能" stroke="none" stroke-width="1" fill-rule="evenodd">
        <g id="弹窗缩小效果" transform="translate(-1262.000000, -694.000000)" fill-rule="nonzero">
            <g id="弹框" transform="translate(806.000000, 676.000000)">
                <g id="编组" transform="translate(456.000000, 18.000000)">
                    <path d="M5.51850215,8.49886386 L5.55135676,8.53729613 C5.72658136,8.76106715 5.71562983,9.08256461 5.51850266,9.29411922 L2.11691667,12.7060123 L3.58927417,12.7060119 C3.91140499,12.7060119 4.17254392,12.9671509 4.17254392,13.2892817 C4.17254394,13.6114125 3.911405,13.8725515 3.58927415,13.8725515 L0.71014479,13.8725515 C0.388013932,13.8725515 0.126875,13.6114126 0.126875,13.2892817 L0.126875,10.3989973 C0.126875,10.0768664 0.388013915,9.81572746 0.710144771,9.81572746 L0.753674861,9.8173273 C1.05547599,9.83959342 1.29341454,10.0915087 1.29341454,10.3989972 L1.29325,11.870679 L4.68996407,8.47380327 C4.92982326,8.25016188 5.29889797,8.26318954 5.51850215,8.49886386 Z M13.2898551,0.126875 C13.611986,0.126875 13.8731249,0.388013925 13.8731249,0.710144771 L13.8731249,3.60042919 C13.8731249,3.92256008 13.611986,4.18369902 13.2898552,4.18369902 L13.2463251,4.18209918 C12.9445239,4.15983306 12.7065854,3.90791777 12.7065854,3.60042925 L12.7066634,2.12916667 L9.31003586,5.52562321 C9.07017666,5.7492646 8.70110195,5.73623694 8.48149778,5.50056263 L8.44864316,5.46213035 C8.27341857,5.23835933 8.2843701,4.91686187 8.48149727,4.70530726 L11.8829968,1.29325 L10.4107258,1.29341454 C10.0885949,1.29341456 9.82745601,1.03227561 9.82745601,0.710144771 C9.82745599,0.388013934 10.0885949,0.126875 10.4107258,0.126875 L13.2898551,0.126875 Z" id="形状结合"></path>
                </g>
            </g>
        </g>
    </g>
</svg>