<?xml version="1.0" encoding="UTF-8"?>
<svg width="14px" height="14px" viewBox="0 0 14 14" version="1.1" xmlns="http://www.w3.org/2000/svg" xmlns:xlink="http://www.w3.org/1999/xlink">
    <g id="优化" stroke="none" stroke-width="1">
        <g id="制品搜索" transform="translate(-1289.000000, -512.000000)">
            <g id="编组备份-2" transform="translate(451.000000, 469.000000)">
                <g id="删除" transform="translate(838.000000, 43.000000)">
                    <path d="M9.32381779,0.145833333 C9.77046606,0.145833333 10.1423034,0.4800762 10.1961387,0.920406577 L10.2009254,0.971671749 L10.2025606,1.02458352 L10.2022083,2.39866667 L13.3030211,2.39885957 C13.5962919,2.39885957 13.839209,2.61444918 13.8819335,2.89578942 L13.8869939,2.94073612 L13.8886001,2.98443856 C13.8886001,3.27175789 13.6808225,3.51344509 13.3976194,3.5618285 L13.3522956,3.56784006 L13.3030187,3.57001756 L12.387375,3.56970833 L12.3878808,12.9754239 C12.3878808,13.4042062 12.0798426,13.7640428 11.6656234,13.8397737 L11.6133076,13.8477448 L11.5620424,13.8525315 L11.509138,13.8541667 L2.49086197,13.8541667 C2.0442137,13.8541667 1.67237634,13.5199238 1.61854108,13.0795934 L1.6137544,13.0283283 L1.6121192,12.9754253 L1.61175,3.56970833 L0.696978877,3.57001756 C0.403708121,3.57001756 0.160791015,3.35442795 0.118066526,3.07308771 L0.11300605,3.02814101 L0.111399884,2.98443856 C0.111399884,2.69711924 0.319177481,2.45543204 0.602380605,2.40704862 L0.647704397,2.40103707 L0.696970211,2.39885957 L3.79691667,2.39866667 L3.79743944,1.0245761 C3.79743944,0.595793761 4.10547766,0.235957156 4.51969686,0.160226286 L4.57201268,0.152255209 L4.62327785,0.147468537 L4.67618221,0.145833333 L9.32381779,0.145833333 Z M11.2160417,3.57 L2.78279167,3.57 L2.78308333,12.6828333 L11.2163333,12.6828333 L11.2160417,3.57 Z M4.44877716,4.51879047 C4.73609649,4.51879047 4.97778369,4.72656806 5.0261671,5.00977119 L5.03217866,5.05509498 L5.03435616,5.10436946 L5.03435616,10.506959 C5.03435616,10.8303653 4.77218351,11.092538 4.44877716,11.092538 C4.16145784,11.092538 3.91977064,10.8847604 3.87138722,10.6015573 L3.86537567,10.5562335 L3.86319817,10.506959 L3.86319817,5.10436946 C3.86319817,4.78096311 4.12537082,4.51879047 4.44877716,4.51879047 Z M7,4.51879047 C7.28731933,4.51879047 7.52900652,4.72656806 7.57738994,5.00977119 L7.58340149,5.05509498 L7.58557899,5.10436946 L7.58557899,10.506959 C7.58557899,10.8303653 7.32340635,11.092538 7,11.092538 C6.71268067,11.092538 6.47099348,10.8847604 6.42261006,10.6015573 L6.41659851,10.5562335 L6.41442101,10.506959 L6.41442101,5.10436946 C6.41442101,4.78096311 6.67659365,4.51879047 7,4.51879047 Z M9.55122284,4.51879047 C9.83854216,4.51879047 10.0802294,4.72656806 10.1286128,5.00977119 L10.1346243,5.05509498 L10.1368018,5.10436946 L10.1368018,10.506959 C10.1368018,10.8303653 9.87462918,11.092538 9.55122284,11.092538 C9.26390351,11.092538 9.02221631,10.8847604 8.9738329,10.6015573 L8.96782134,10.5562335 L8.96564384,10.506959 L8.96564384,5.10436946 C8.96564384,4.78096311 9.22781649,4.51879047 9.55122284,4.51879047 Z M9.03116667,1.316875 L4.96825,1.316875 L4.96825,2.39866667 L9.03116667,2.39866667 L9.03116667,1.316875 Z" id="形状结合"></path>
                </g>
            </g>
        </g>
    </g>
</svg>