<?xml version="1.0" encoding="utf-8"?>
<!-- Generator: Adobe Illustrator 24.0.0, SVG Export Plug-In . SVG Version: 6.00 Build 0)  -->
<svg version="1.1" id="图层_1" xmlns="http://www.w3.org/2000/svg" xmlns:xlink="http://www.w3.org/1999/xlink" x="0px" y="0px"
	 viewBox="0 0 16 16" style="enable-background:new 0 0 16 16;" xml:space="preserve">
<path d="M8,0.9c3.9,0,7.1,3.2,7.2,7.1c0,1.9-0.8,3.7-2.1,5.1c-2.8,2.8-7.3,2.8-10.1,0S0.2,5.7,3,2.9c0.6-0.6,1.4-1.2,2.3-1.5
	C6.1,1,7,0.8,8,0.9 M8,0C3.6,0,0,3.6,0,8s3.6,8,8,8s8-3.6,8-8S12.4,0,8,0L8,0z"/>
<path d="M6.4,12.4V12c0.9-0.1,1-0.2,1-1.1v-3c0-0.9,0-0.9-0.9-1.1V6.5c0.7-0.1,1.4-0.3,2-0.6v5c0,1,0.1,1.1,1,1.1v0.4L6.4,12.4z
	 M7.2,4c0-0.4,0.3-0.7,0.7-0.7c0,0,0,0,0,0c0.4,0,0.7,0.3,0.7,0.7c0,0.4-0.3,0.7-0.7,0.7C7.5,4.7,7.2,4.4,7.2,4z"/>
</svg>
