

<svg class="bk-icon" style="width: 1em; height: 1em;vertical-align: middle;fill: currentColor;overflow: hidden;" viewBox="0 0 64 64" version="1.1" xmlns="http://www.w3.org/2000/svg">

<g>
	<path  class="st0" d="M20.7,15c1.6,1.6,1.6,4.1,0,5.7s-4.1,1.6-5.7,0l-2.8-2.8c-1.6-1.6-1.6-4.1,0-5.7s4.1-1.6,5.7,0
		L20.7,15z"/>
	<path  class="st1" d="M12,28c2.2,0,4,1.8,4,4s-1.8,4-4,4H8c-2.2,0-4-1.8-4-4s1.8-4,4-4H12z"/>
	<path  class="st2" d="M15,43.3c1.6-1.6,4.1-1.6,5.7,0c1.6,1.6,1.6,4.1,0,5.7l-2.8,2.8c-1.6,1.6-4.1,1.6-5.7,0
		s-1.6-4.1,0-5.7L15,43.3z"/>
	<path  class="st3" d="M28,52c0-2.2,1.8-4,4-4s4,1.8,4,4v4c0,2.2-1.8,4-4,4s-4-1.8-4-4V52z"/>
	<path  class="st4" d="M51.8,46.1c1.6,1.6,1.6,4.1,0,5.7s-4.1,1.6-5.7,0L43.3,49c-1.6-1.6-1.6-4.1,0-5.7s4.1-1.6,5.7,0
		L51.8,46.1z"/>
	<path  class="st5" d="M56,28c2.2,0,4,1.8,4,4s-1.8,4-4,4h-4c-2.2,0-4-1.8-4-4s1.8-4,4-4H56z"/>
	<path  class="st6" d="M46.1,12.2c1.6-1.6,4.1-1.6,5.7,0s1.6,4.1,0,5.7l0,0L49,20.7c-1.6,1.6-4.1,1.6-5.7,0
		c-1.6-1.6-1.6-4.1,0-5.7L46.1,12.2z"/>
	<path  fill="#737987" d="M28,8c0-2.2,1.8-4,4-4s4,1.8,4,4v4c0,2.2-1.8,4-4,4s-4-1.8-4-4V8z"/>
</g>
</svg>
