<?xml version="1.0" standalone="no"?><!DOCTYPE svg PUBLIC "-//W3C//DTD SVG 1.1//EN" "http://www.w3.org/Graphics/SVG/1.1/DTD/svg11.dtd"><svg t="1677478239711" class="icon" viewBox="0 0 1024 1024" version="1.1" xmlns="http://www.w3.org/2000/svg" p-id="4092" xmlns:xlink="http://www.w3.org/1999/xlink" width="200" height="200"><path d="M936.773603 0a85.161237 85.161237 0 0 1 85.161237 85.161237v853.677526a85.161237 85.161237 0 0 1-85.161237 85.161237H85.161237a85.161237 85.161237 0 0 1-85.161237-85.161237V85.161237a85.161237 85.161237 0 0 1 85.161237-85.161237h851.612366zM702.580203 170.322473H319.354638a42.580618 42.580618 0 0 0-42.580619 42.580619v42.580618a42.580618 42.580618 0 0 0 42.580619 42.580618h383.225565a42.580618 42.580618 0 0 0 42.580618-42.580618v-42.580618a42.580618 42.580618 0 0 0-42.580618-42.580619z" p-id="4093"></path></svg>