<?xml version="1.0" encoding="utf-8"?>
<!-- Generator: Adobe Illustrator 16.0.0, SVG Export Plug-In . SVG Version: 6.00 Build 0)  -->
<!DOCTYPE svg PUBLIC "-//W3C//DTD SVG 1.1//EN" "http://www.w3.org/Graphics/SVG/1.1/DTD/svg11.dtd">
<svg version="1.1" id="图层_1" xmlns="http://www.w3.org/2000/svg" xmlns:xlink="http://www.w3.org/1999/xlink" x="0px" y="0px"
	 width="40px" height="40px" viewBox="0 0 40 40" enable-background="new 0 0 40 40" xml:space="preserve">
<path fill-rule="evenodd" clip-rule="evenodd" d="M20.022,8.324c5.354,0,10.707,0,16.062,0c1.182,0,2.084,0.491,2.594,1.566
	c0.173,0.369,0.265,0.812,0.266,1.221c0.016,5.972,0.014,11.945,0.005,17.918c-0.002,1.49-1.233,2.643-2.805,2.645
	c-4.573,0.006-9.146,0.002-13.718,0.002c-6.104,0-12.206-0.002-18.308,0c-2,0-3.071-1.068-3.071-3.074
	c-0.001-5.777-0.002-11.556-0.001-17.333c0-1.787,1.125-2.937,2.916-2.939c5.354-0.008,10.708-0.003,16.062-0.003
	C20.022,8.325,20.022,8.325,20.022,8.324z M19.97,29.852c0-0.002,0-0.002,0-0.002c5.337,0,10.674,0,16.011,0
	c0.804,0,1.145-0.309,1.145-1.051c0.001-5.775-0.001-11.552-0.005-17.328c0-1.085-0.233-1.315-1.317-1.315
	c-10.576-0.001-21.151-0.001-31.727,0c-0.885,0-1.207,0.325-1.207,1.203c-0.001,5.76-0.001,11.521-0.003,17.28
	c0,0.891,0.307,1.211,1.191,1.211C9.361,29.852,14.666,29.852,19.97,29.852z"/>
<path fill-rule="evenodd" clip-rule="evenodd" d="M17.416,19.141c-1.229,1.533-2.39,2.982-3.612,4.506
	c-1.199-1.494-2.357-2.94-3.583-4.469c-0.033,0.205-0.061,0.304-0.061,0.403c-0.002,2.033-0.01,4.066,0.006,6.1
	c0.003,0.393-0.091,0.551-0.515,0.537c-0.894-0.031-1.79-0.02-2.684-0.006c-0.313,0.004-0.466-0.057-0.465-0.426
	c0.011-3.855,0.008-7.711-0.001-11.566c-0.001-0.32,0.11-0.428,0.425-0.423c0.927,0.014,1.854,0.021,2.781-0.003
	c0.349-0.008,0.566,0.122,0.774,0.387c1.013,1.292,2.041,2.572,3.066,3.854c0.068,0.086,0.149,0.163,0.334,0.364
	c0.063-0.132,0.094-0.248,0.162-0.334c1.042-1.311,2.08-2.625,3.146-3.915c0.149-0.18,0.447-0.323,0.682-0.333
	c0.925-0.039,1.854-0.006,2.781-0.021c0.319-0.005,0.456,0.064,0.454,0.429c-0.015,3.823-0.016,7.646-0.005,11.469
	c0.001,0.4-0.109,0.537-0.522,0.523c-0.878-0.031-1.757-0.027-2.635-0.004c-0.376,0.008-0.509-0.09-0.504-0.49
	c0.023-2.082,0.015-4.164,0.017-6.247C17.458,19.403,17.44,19.33,17.416,19.141z"/>
<path fill-rule="evenodd" clip-rule="evenodd" d="M23.649,20.005c1.139,0,2.124-0.022,3.107,0.01
	c0.441,0.015,0.549-0.128,0.542-0.554c-0.023-1.723,0.003-3.447-0.018-5.17c-0.005-0.397,0.128-0.504,0.504-0.496
	c0.895,0.021,1.789,0.023,2.684-0.004c0.401-0.013,0.486,0.141,0.481,0.513c-0.018,1.74,0.004,3.48-0.015,5.22
	c-0.005,0.393,0.123,0.502,0.506,0.49c0.908-0.027,1.82-0.013,2.73-0.013c0.089,0,0.177,0.019,0.377,0.04
	c-1.839,2.148-3.614,4.227-5.434,6.354C27.309,24.281,25.53,22.203,23.649,20.005z"/>
</svg>
