<?xml version="1.0" encoding="UTF-8"?>
<svg width="14px" height="14px" viewBox="0 0 14 14" version="1.1" xmlns="http://www.w3.org/2000/svg" xmlns:xlink="http://www.w3.org/1999/xlink">
    <g id="仓库详情顶部优化" stroke="none" stroke-width="1" fill="none" fill-rule="evenodd">
        <g id="文件列表增加元数据" transform="translate(-973.000000, -279.000000)" fill="#3A84FF" fill-rule="nonzero">
            <g id="拖动排序" transform="translate(980.000000, 286.000000) rotate(90.000000) translate(-980.000000, -286.000000) translate(973.000000, 279.000000)">
                <path d="M7,11.4545455 C7.70290786,11.4545455 8.27272727,12.0243649 8.27272727,12.7272727 C8.27272727,13.4301806 7.70290786,14 7,14 C6.29709214,14 5.72727273,13.4301806 5.72727273,12.7272727 C5.72727273,12.0243649 6.29709214,11.4545455 7,11.4545455 Z M7,5.72727273 C7.70290786,5.72727273 8.27272727,6.29709214 8.27272727,7 C8.27272727,7.70290786 7.70290786,8.27272727 7,8.27272727 C6.29709214,8.27272727 5.72727273,7.70290786 5.72727273,7 C5.72727273,6.29709214 6.29709214,5.72727273 7,5.72727273 Z M7,0 C7.70290786,0 8.27272727,0.569819409 8.27272727,1.27272727 C8.27272727,1.97563514 7.70290786,2.54545455 7,2.54545455 C6.29709214,2.54545455 5.72727273,1.97563514 5.72727273,1.27272727 C5.72727273,0.569819409 6.29709214,0 7,0 Z" id="形状结合"></path>
            </g>
        </g>
    </g>
</svg>