<?xml version="1.0" standalone="no"?><!DOCTYPE svg PUBLIC "-//W3C//DTD SVG 1.1//EN" "http://www.w3.org/Graphics/SVG/1.1/DTD/svg11.dtd"><svg class="icon" width="200px" height="200.00px" viewBox="0 0 1024 1024" version="1.1" xmlns="http://www.w3.org/2000/svg"><path d="M245.378937 0a149.307795 149.307795 0 0 1 42.680699 292.429982L288.038307 643.559258h361.751459a86.171928 86.171928 0 0 0 86.065279-81.863331l0.106648-4.287267c0-3.007486 0.319945-5.972312 0.895847-8.78783a149.307795 149.307795 0 1 1 83.505717 0.042659c0.597231 2.772859 0.917176 5.737685 0.917176 8.745171a171.490668 171.490668 0 0 1-166.158246 171.405349l-5.332421 0.085319-361.751459-0.02133 0.021329 2.516903a149.307795 149.307795 0 1 1-85.340069 0V292.429982A149.307795 149.307795 0 0 1 245.378937 0z m0 810.528033a63.989055 63.989055 0 1 0 0 127.97811 63.989055 63.989055 0 0 0 0-127.97811z m533.242126-469.253072a63.989055 63.989055 0 1 0 0 127.978111 63.989055 63.989055 0 0 0 0-127.978111z m-533.242126-255.956221a63.989055 63.989055 0 1 0 0 127.978111 63.989055 63.989055 0 0 0 0-127.978111z" /></svg>