<?xml version="1.0" standalone="no"?><!DOCTYPE svg PUBLIC "-//W3C//DTD SVG 1.1//EN" "http://www.w3.org/Graphics/SVG/1.1/DTD/svg11.dtd"><svg t="1623137827218" class="icon" viewBox="0 0 1024 1024" version="1.1" xmlns="http://www.w3.org/2000/svg" p-id="9423" xmlns:xlink="http://www.w3.org/1999/xlink" width="32" height="32"><defs><style type="text/css"></style></defs><path d="M753.952 923.008a170.464 170.464 0 0 1 0-340.928 170.464 170.464 0 0 1 0 340.928z m-340-390.688a106.56 106.56 0 0 1 0-213.056 106.56 106.56 0 0 1 0 213.056z m347.52-332.608H477.024a262.624 262.624 0 0 0-262.56 262.624v284.448a262.56 262.56 0 0 0 262.56 262.56H761.472A262.56 262.56 0 0 0 1024.032 746.784V462.336a262.624 262.624 0 0 0-262.56-262.624zM170.496 99.808a85.248 85.248 0 0 1-170.496 0 85.248 85.248 0 0 1 170.496 0z" fill="#004880" p-id="9424"></path></svg>