<?xml version="1.0" standalone="no"?><!DOCTYPE svg PUBLIC "-//W3C//DTD SVG 1.1//EN" "http://www.w3.org/Graphics/SVG/1.1/DTD/svg11.dtd"><svg t="1630389520358" class="icon" viewBox="0 0 1024 1024" version="1.1" xmlns="http://www.w3.org/2000/svg" p-id="2337" xmlns:xlink="http://www.w3.org/1999/xlink" width="200" height="200"><defs><style type="text/css"></style></defs><path d="M1023.68 136.832L1024 128c0-42.688-21.312-64-64-64H512c-39.616 0-60.8 18.368-63.68 55.168L448 128c0 42.688 21.312 64 64 64h448c39.68 0 60.8-18.368 63.68-55.168z m0 320L1024 448c0-42.688-21.312-64-64-64H512c-39.616 0-60.8 18.368-63.68 55.168L448 448c0 42.688 21.312 64 64 64h448c39.68 0 60.8-18.368 63.68-55.168zM192 960l192-192h-128V439.168H128V768H0l192 192z m831.68-183.168L1024 768c0-42.688-21.312-64-64-64H512c-39.616 0-60.8 18.368-63.68 55.168L448 768c0 42.688 21.312 64 64 64h448c39.68 0 60.8-18.368 63.68-55.168z" p-id="2338"></path></svg>