<?xml version="1.0" standalone="no"?><!DOCTYPE svg PUBLIC "-//W3C//DTD SVG 1.1//EN" "http://www.w3.org/Graphics/SVG/1.1/DTD/svg11.dtd"><svg t="1634784720961" class="icon" viewBox="0 0 1024 1024" version="1.1" xmlns="http://www.w3.org/2000/svg" p-id="6303" xmlns:xlink="http://www.w3.org/1999/xlink" width="200" height="200"><defs><style type="text/css"></style></defs><path d="M512 771.413333c-282.88 0-512-116.053333-512-259.413333s229.12-259.413333 512-259.413333S1024 368.64 1024 512s-229.12 259.413333-512 259.413333m-221.44-339.2c23.04 0 38.826667 4.266667 46.506667 13.226667 7.68 8.533333 9.386667 23.893333 5.546666 43.946667-4.266667 22.613333-12.373333 37.12-24.746666 46.506666-11.946667 9.386667-30.293333 14.08-55.04 14.08h-37.12l22.613333-117.76h42.24m-149.333333 236.8h61.44l14.506666-74.666666h52.48c23.04 0 41.813333-2.56 56.746667-7.253334 14.933333-5.12 28.586667-13.226667 40.96-24.746666 10.24-9.386667 18.346667-19.626667 24.746667-31.146667 6.4-11.093333 11.093333-23.893333 13.226666-37.546667 6.826667-33.28 2.133333-59.306667-14.08-77.653333-16.64-18.773333-42.24-27.733333-77.653333-27.733333H195.84l-54.613333 280.746666m309.333333-355.413333l-54.613333 280.746667h60.586666l31.573334-160.853334h48.64c15.36 0 25.6 2.56 30.293333 7.68 4.693333 5.12 5.546667 14.506667 2.986667 28.16l-24.32 125.013334h61.866666l25.173334-130.986667c5.546667-26.453333 1.28-45.653333-11.52-58.026667-12.8-11.52-36.266667-17.066667-70.4-17.066666h-54.186667L512 313.6h-61.44M768 432.213333c23.466667 0 38.826667 4.266667 46.506667 13.226667 7.68 8.533333 9.386667 23.893333 5.546666 43.946667-4.266667 22.613333-12.373333 37.12-24.32 46.506666-12.373333 9.386667-30.72 14.08-55.466666 14.08h-36.266667l21.333333-117.76h42.666667m-149.333333 236.8h61.44l14.506666-74.666666h52.053334c23.466667 0 42.666667-2.56 57.6-7.253334 14.933333-5.12 27.733333-13.226667 40.533333-24.746666 10.24-9.386667 18.773333-19.626667 24.746667-31.146667 6.4-11.093333 11.093333-23.893333 13.653333-37.546667 6.4-33.28 1.706667-59.306667-14.506667-77.653333-15.36-18.773333-42.24-27.733333-77.653333-27.733333h-117.333333l-55.04 280.746666z" fill="#1E88E5" p-id="6304"></path></svg>