<?xml version="1.0" standalone="no"?><!DOCTYPE svg PUBLIC "-//W3C//DTD SVG 1.1//EN" "http://www.w3.org/Graphics/SVG/1.1/DTD/svg11.dtd"><svg t="1634784889213" class="icon" viewBox="0 0 1024 1024" version="1.1" xmlns="http://www.w3.org/2000/svg" p-id="7877" xmlns:xlink="http://www.w3.org/1999/xlink" width="200" height="200"><defs><style type="text/css"></style></defs><path d="M553.642667 387.072h229.034666l-229.034666-228.992v228.992M262.144 95.616h333.141333l249.856 249.813333v499.669334a83.285333 83.285333 0 0 1-83.285333 83.285333H262.186667a83.242667 83.242667 0 0 1-83.285334-83.285333V178.858667c0-46.208 37.034667-83.242667 83.285334-83.242667m0 749.525333h499.626666V512l-166.528 166.570667L512 595.285333l-249.856 249.856M345.429333 387.114667a83.285333 83.285333 0 0 0-83.285333 83.285333 83.285333 83.285333 0 0 0 83.285333 83.242667 83.285333 83.285333 0 0 0 83.285334-83.242667 83.285333 83.285333 0 0 0-83.285334-83.285333z" fill="#26A69A" p-id="7878"></path></svg>