<?xml version="1.0" standalone="no"?><!DOCTYPE svg PUBLIC "-//W3C//DTD SVG 1.1//EN" "http://www.w3.org/Graphics/SVG/1.1/DTD/svg11.dtd"><svg t="1588240381716" class="icon" viewBox="0 0 1024 1024" version="1.1" xmlns="http://www.w3.org/2000/svg" p-id="4925" xmlns:xlink="http://www.w3.org/1999/xlink" width="40" height="40"><defs><style type="text/css"></style></defs><path d="M554.666667 42.666667C294.4 42.666667 85.333333 251.733333 85.333333 512l631.466667 162.133333L554.666667 42.666667z" fill="#ED6C47" p-id="4926"></path><path d="M554.666667 42.666667c256 0 469.333333 209.066667 469.333333 469.333333l-234.666667 123.733333L554.666667 512V42.666667z" fill="#FF8F6B" p-id="4927"></path><path d="M85.333333 512c0 256 213.333333 469.333333 469.333334 469.333333s469.333333-213.333333 469.333333-469.333333H85.333333z" fill="#D35230" p-id="4928"></path><path d="M640 793.6V307.2c0-29.866667-21.333333-51.2-51.2-51.2h-426.666667C115.2 328.533333 85.333333 418.133333 85.333333 512c0 132.266667 55.466667 256 149.333334 341.333333h345.6c29.866667 0 59.733333-29.866667 59.733333-59.733333z" opacity=".5" p-id="4929"></path><path d="M640 793.6V307.2c0-29.866667-21.333333-51.2-51.2-51.2h-426.666667C115.2 328.533333 85.333333 418.133333 85.333333 512c0 132.266667 55.466667 256 149.333334 341.333333h345.6c29.866667 0 59.733333-29.866667 59.733333-59.733333z" opacity=".1" p-id="4930"></path><path d="M546.133333 810.666667H51.2C21.333333 810.666667 0 789.333333 0 759.466667V264.533333C0 234.666667 21.333333 213.333333 51.2 213.333333h499.2c25.6 0 46.933333 21.333333 46.933333 51.2v499.2c0 25.6-21.333333 46.933333-51.2 46.933334z" fill="#C43E1C" p-id="4931"></path><path d="M315.733333 341.333333c42.666667 0 72.533333 8.533333 93.866667 25.6 21.333333 17.066667 34.133333 42.666667 34.133333 81.066667 0 21.333333-4.266667 51.2-17.066666 68.266667-12.8 17.066667-25.6 29.866667-46.933334 38.4-21.333333 8.533333-42.666667 12.8-68.266666 12.8H247.466667V682.666667H179.2V341.333333h136.533333z m-68.266666 170.666667h55.466666c21.333333 0 38.4-4.266667 51.2-17.066667 12.8-8.533333 17.066667-25.6 17.066667-46.933333 0-38.4-21.333333-55.466667-64-55.466667H247.466667V512z" fill="#FFFFFF" p-id="4932"></path></svg>