<?xml version="1.0" encoding="UTF-8"?>
<svg width="110px" height="110px" viewBox="0 0 110 110" version="1.1" xmlns="http://www.w3.org/2000/svg" xmlns:xlink="http://www.w3.org/1999/xlink">
    <title>画板</title>
    <g id="图标绘制" stroke="none" stroke-width="1" fill="none" fill-rule="evenodd">
        <g id="编组" fill="#03A14D">
            <text id="RDS" font-family="SourceHanSansCN-Bold, Source Han Sans CN" font-size="32" font-weight="bold">
                <tspan x="22" y="66">RDS</tspan>
            </text>
            <path d="M49.1538735,1.84537211 L54.1538735,7.71006751 L33,32.7100675 L23,32.7100675 L44.1538735,7.71006751 L49.1538735,1.84537211 Z M50.0823556,1 L76.7838888,32.2650305 L76.4036779,32.5897452 L49.7021446,1.3247147 L50.0823556,1 Z M52.7838888,1 L79.4854221,32.2650305 L79.1052111,32.5897452 L52.4036779,1.3247147 L52.7838888,1 Z M55.4854221,1 L82.1869553,32.2650305 L81.8067444,32.5897452 L55.1052111,1.3247147 L55.4854221,1 Z M58.1869553,1 L84.8884885,32.2650305 L84.5082776,32.5897452 L57.8067444,1.3247147 L58.1869553,1 Z" id="形状结合" fill-rule="nonzero"></path>
            <path d="M49.1538735,77.8453721 L54.1538735,83.7100675 L33,108.710068 L23,108.710068 L44.1538735,83.7100675 L49.1538735,77.8453721 Z M50.0823556,77 L76.7838888,108.26503 L76.4036779,108.589745 L49.7021446,77.3247147 L50.0823556,77 Z M52.7838888,77 L79.4854221,108.26503 L79.1052111,108.589745 L52.4036779,77.3247147 L52.7838888,77 Z M55.4854221,77 L82.1869553,108.26503 L81.8067444,108.589745 L55.1052111,77.3247147 L55.4854221,77 Z M58.1869553,77 L84.8884885,108.26503 L84.5082776,108.589745 L57.8067444,77.3247147 L58.1869553,77 Z" id="形状结合" fill-rule="nonzero" transform="translate(53.944244, 92.855034) scale(-1, -1) translate(-53.944244, -92.855034) "></path>
        </g>
    </g>
</svg>