<?xml version="1.0" standalone="no"?><!DOCTYPE svg PUBLIC "-//W3C//DTD SVG 1.1//EN" "http://www.w3.org/Graphics/SVG/1.1/DTD/svg11.dtd"><svg t="1678798417104" class="icon" viewBox="0 0 1024 1024" version="1.1" xmlns="http://www.w3.org/2000/svg" p-id="4077" xmlns:xlink="http://www.w3.org/1999/xlink" width="200" height="200"><path d="M597.333333 341.333333a85.333333 85.333333 0 0 1 85.333334 85.333334v512a85.333333 85.333333 0 0 1-85.333334 85.333333H85.333333a85.333333 85.333333 0 0 1-85.333333-85.333333V426.666667a85.333333 85.333333 0 0 1 85.333333-85.333334h512z m329.792 512.853334l25.429334 59.178666a118.442667 118.442667 0 0 1-44.757334 9.536H852.906667v-64.362666l54.229333-0.021334c6.997333-0.149333 13.738667-1.621333 20.010667-4.309333z m-160.106666 4.352v64.384h-11.754667v-64.384h11.754667zM1024 731.818667v73.045333c0 5.888-0.426667 11.733333-1.28 17.493333l-63.701333-9.472c0.384-2.624 0.597333-5.312 0.597333-8.021333v-73.066667H1024z m0-171.733334v85.866667h-64.384v-85.845333H1024z m-568.810667-105.194666H227.477333a42.581333 42.581333 0 0 0-3.2 85.034666l3.2 0.128h227.712a42.581333 42.581333 0 0 0 0-85.162666zM1024 388.394667v85.845333h-64.384v-85.845333H1024z m0-171.712v85.866666h-64.384v-85.866666H1024zM165.461333 185.834667v85.845333H101.077333V185.834667h64.384zM981.418667 27.306667A117.845333 117.845333 0 0 1 1024 118.037333v12.8h-64.384v-12.8c0-16.170667-7.168-31.104-19.370667-41.258666zM178.709333 7.104L200.746667 67.626667a53.824 53.824 0 0 0-34.090667 39.189333l-62.976-13.44A118.186667 118.186667 0 0 1 178.709333 7.125333zM363.306667 0v64.384h-85.845334V0h85.845334z m171.712 0v64.384h-85.845334V0h85.845334z m171.712 0v64.384h-85.866667V0h85.866667z m171.690666 0v64.384h-85.845333V0h85.845333z" p-id="4078"></path></svg>