<?xml version="1.0" standalone="no"?><!DOCTYPE svg PUBLIC "-//W3C//DTD SVG 1.1//EN" "http://www.w3.org/Graphics/SVG/1.1/DTD/svg11.dtd"><svg class="icon" width="200px" height="200.00px" viewBox="0 0 1024 1024" version="1.1" xmlns="http://www.w3.org/2000/svg"><path d="M970.666667 918.698667a42.666667 42.666667 0 1 1 0 85.333333h-917.333334a42.666667 42.666667 0 1 1 0-85.333333h917.333334zM963.882667 5.866667a54.250667 54.250667 0 0 1 54.144 50.688l0.106666 3.562666v677.824a54.250667 54.250667 0 0 1-50.688 54.144l-3.562666 0.106667H60.117333A54.250667 54.250667 0 0 1 5.973333 741.504l-0.106666-3.562667V60.117333A54.250667 54.250667 0 0 1 56.554667 5.973333l3.562666-0.106666h903.765334z m-31.68 85.909333H91.776v614.485333h840.426667V91.776z m-241.749334 136.832l2.752 2.176 3.157334 2.986667 140.416 146.88c16.384 17.130667 15.786667 44.330667-1.365334 60.736a43.008 43.008 0 0 1-54.997333 3.626666l-2.901333-2.304-2.837334-2.688-105.173333-110.016-186.816 252.714667a42.944 42.944 0 0 1-50.325333 14.378667l-3.328-1.493334-3.264-1.749333-3.050667-2.048-229.888-168.96a42.965333 42.965333 0 0 1-9.173333-60.053333 43.008 43.008 0 0 1 53.909333-12.928l3.072 1.706666 3.072 2.048 195.349333 143.552 191.722667-259.242666a42.965333 42.965333 0 0 1 59.669333-9.322667z" /></svg>