<?xml version="1.0" standalone="no"?><!DOCTYPE svg PUBLIC "-//W3C//DTD SVG 1.1//EN" "http://www.w3.org/Graphics/SVG/1.1/DTD/svg11.dtd"><svg t="1634540987981" class="icon" viewBox="0 0 1024 1024" version="1.1" xmlns="http://www.w3.org/2000/svg" p-id="8554" xmlns:xlink="http://www.w3.org/1999/xlink" width="200" height="200"><defs><style type="text/css"></style></defs><path d="M981.333333 277.333333a42.666667 42.666667 0 0 1 42.666667 42.666667v512a42.666667 42.666667 0 0 1-42.666667 42.666667H42.666667a42.666667 42.666667 0 0 1-42.666667-42.666667V320a42.666667 42.666667 0 0 1 42.666667-42.666667h938.666666zM709.418667 583.552h-35.008c-1.386667 37.418667-5.845333 64.213333-13.397334 80.341333-7.893333 16.490667-21.290667 30.912-40.533333 43.264l23.04 28.842667c23.338667-15.786667 39.808-34.688 49.770667-56.32 8.917333-20.266667 14.08-52.181333 16.128-96.128zM452.266667 420.8c-68.693333 12.714667-152.106667 19.242667-250.304 19.242667l10.304 30.890666c28.842667 0 56.32-0.682667 83.072-1.365333-17.834667 19.904-32.618667 32.618667-44.629334 38.442667-7.552 3.434667-15.445333 5.504-24.021333 6.528l7.210667 31.253333 34.88-2.090667c17.152-1.066667 33.856-2.176 49.92-3.413333-28.842667 20.949333-55.274667 36.394667-78.976 46.698667a120.106667 120.106667 0 0 1-30.890667 6.528l9.941333 31.232 46.933334-2.346667c20.117333-1.130667 39.36-2.304 57.813333-3.477333v72.789333c0 7.210667-3.456 10.986667-9.984 10.986667a310.613333 310.613333 0 0 1-35.008-2.410667l8.234667 35.029333h39.146666c22.314667 0 33.642667-11.669333 33.642667-34.688v-84.458666l30.336-2.496c14.656-1.28 28.586667-2.581333 41.770667-4.032l10.986666 16.789333c3.52 5.546667 6.869333 11.029333 9.962667 16.512l28.501333-19.562667c-15.125333-25.066667-37.098667-54.250667-65.6-87.552l-26.432 16.469334c7.552 9.621333 15.104 19.242667 22.314667 28.842666l-23.274667 2.666667c-28.16 2.986667-59.776 5.589333-94.506666 7.978667 39.168-22.656 85.504-56.981333 138.730666-102.656l-32.96-16.128a1279.381333 1279.381333 0 0 1-43.605333 38.101333c-22.656 1.706667-45.653333 3.434667-68.330667 4.8 18.197333-13.034667 35.712-29.525333 52.202667-48.746667 50.133333-3.413333 93.376-8.917333 130.133333-16.469333l-17.514666-29.866667z m323.776 158.634667h-34.005334v117.077333c0 22.314667 12.714667 33.642667 38.464 33.642667h20.949334c16.469333-1.365333 27.456-5.141333 32.256-12.010667 4.181333-6.549333 6.784-22.378667 7.424-47.936l0.149333-12.501333-30.570667-10.986667c0 11.306667-0.341333 20.992-0.789333 29.013333l-0.576 8.746667c-0.682667 8.597333-3.776 13.418667-9.6 14.08h-18.218667c-3.776-1.024-5.482667-4.096-5.482666-9.258667v-109.866666zM405.546667 630.592l-23.68 22.997333c36.053333 27.136 63.850667 52.544 83.413333 75.882667l25.408-25.386667c-22.997333-24.384-51.498667-48.768-85.141333-73.493333z m-139.733334 2.410667c-22.677333 25.066667-50.133333 47.04-83.114666 65.92l22.336 29.184c34.325333-20.608 62.826667-44.992 85.824-72.789334l-25.066667-22.314666z m374.570667 17.493333c-31.573333 15.125333-68.672 27.477333-110.890667 36.757333l4.458667 35.690667c39.829333-9.6 75.2-22.656 106.453333-38.442667v-34.005333z m-61.802667-233.472a632.170667 632.170667 0 0 1-41.194666 99.925333c-4.8 6.869333-9.962667 11.306667-15.445334 13.738667l8.917334 32.96c15.786667-2.410667 31.573333-4.821333 46.698666-6.869333l-7.317333 12.373333c-11.84 19.562667-21.76 33.621333-29.76 42.218667-4.117333 4.117333-9.6 7.552-16.149333 10.304l9.621333 32.96c33.301333-5.162667 68.672-15.466667 106.453333-31.253334v-32.96c-20.949333 9.28-41.557333 16.832-61.824 22.314667 17.856-24.384 40.170667-61.802667 66.965334-112.277333l-31.936-12.373334-13.952 27.306667a1811.2 1811.2 0 0 0-4.266667 8.426667c-10.282667 1.706667-20.586667 3.072-30.890667 4.117333 16.490667-25.408 32.64-57.685333 48.426667-97.514667l-34.346667-13.397333z m163.434667-1.024l-36.394667 6.186667c4.821333 8.917333 8.938667 18.88 12.714667 29.184H635.946667v33.984h51.157333c-15.445333 29.184-28.16 47.381333-37.76 54.933333l-2.794667 1.258667a67.2 67.2 0 0 1-4.074666 1.493333l7.552 31.573333a1998.912 1998.912 0 0 0 138.026666-15.104c4.8 7.573333 9.258667 15.466667 13.397334 23.018667l27.797333-19.584c-12.010667-21.632-29.184-47.04-51.498667-76.224l-27.456 17.173333 18.538667 25.749334a1129.877333 1129.877333 0 0 1-77.269333 9.962666c9.621333-13.056 20.608-30.912 32.96-54.250666h104.384v-33.984h-74.496a514.986667 514.986667 0 0 0-12.373334-35.370667z" p-id="8555"></path></svg>