<?xml version="1.0" standalone="no"?><!DOCTYPE svg PUBLIC "-//W3C//DTD SVG 1.1//EN" "http://www.w3.org/Graphics/SVG/1.1/DTD/svg11.dtd"><svg class="icon" width="200px" height="200.00px" viewBox="0 0 1024 1024" version="1.1" xmlns="http://www.w3.org/2000/svg"><path d="M64.032664 362.651957c0-31.5497 32.850938-51.793557 60.71024-38.653182l2.87979 1.471893 341.308446 191.986001a42.663556 42.663556 0 0 1 21.58776 33.640214L490.668222 554.637958v426.635557c0 31.5497-32.850938 51.793557-60.71024 38.653182l-2.87979-1.471893-341.308446-191.986001a42.663556 42.663556 0 0 1-21.587759-33.640213L64.032664 789.287514V362.651957z m832.365974-37.181289c27.47533-15.465539 61.222203 3.221098 63.462039 33.96019L959.967336 362.651957v426.635557a42.663556 42.663556 0 0 1-18.729301 35.325425l-3.007781 1.855864-341.308446 191.986001c-27.517993 15.465539-61.264866-3.221098-63.483371-33.96019L533.331778 981.273515V554.637958a42.663556 42.663556 0 0 1 18.729301-35.325425l3.007781-1.855864 341.308446-191.986001zM149.359776 435.606637v328.722697l255.981335 143.989501V579.596138L149.359776 435.606637z m725.280448-0.021332l-255.981335 143.989501v328.722697l255.981335-143.9895v-328.722698zM492.929391 4.512738a42.663556 42.663556 0 0 1 34.493484-1.621216l3.647734 1.621216 383.972002 191.986001c29.629839 14.825586 31.528368 55.825263 4.628996 73.637297l-2.986449 1.813201-383.972002 213.317779a42.663556 42.663556 0 0 1-38.16255 1.642547l-3.263762-1.642547-383.972002-213.317779c-28.947223-16.084161-29.075213-57.147833-1.429229-73.765288l3.071776-1.68521 383.972002-191.986001zM512 90.351812l-292.544002 146.293333L512 399.150629l292.52267-162.505484L512 90.351812z" /></svg>