<?xml version="1.0" standalone="no"?><!DOCTYPE svg PUBLIC "-//W3C//DTD SVG 1.1//EN" "http://www.w3.org/Graphics/SVG/1.1/DTD/svg11.dtd"><svg t="1642995393058" class="icon" viewBox="0 0 1024 1024" version="1.1" xmlns="http://www.w3.org/2000/svg" p-id="1169" xmlns:xlink="http://www.w3.org/1999/xlink" width="200" height="200"><defs><style type="text/css"></style></defs><path d="M143.445333 541.930667V204.8l369.109334-122.645333L880.490667 204.8v337.130667c0 184.085333-122.666667 317.44-367.936 399.914666C266.453333 860.16 143.36 726.805333 143.36 541.930667h0.085333z m816.042667-1.024V149.44L512.469333 0 64.512 149.333333v391.488c0 110.933333 35.754667 206.229333 107.2 285.866667 71.466667 79.637333 175.808 142.165333 313.024 187.712l27.818667 9.6 28.736-9.6c136.597333-45.546667 240.426667-108.074667 311.466666-187.733333 71.125333-79.616 106.730667-174.848 106.730667-285.909334v0.149334z" p-id="1170"></path><path d="M724.586667 345.386667l2.816 2.602666a37.653333 37.653333 0 0 1-0.32 53.013334L468.885333 658.346667a21.333333 21.333333 0 0 1-30.144-0.021334l-38.272-38.272 0.128-0.128-103.68-103.594666a37.76 37.76 0 0 1 50.602667-55.872l2.709333 2.474666 103.850667 103.850667 220.714667-219.136a37.077333 37.077333 0 0 1 49.792-2.218667z" p-id="1171"></path></svg>