<?xml version="1.0" standalone="no"?><!DOCTYPE svg PUBLIC "-//W3C//DTD SVG 1.1//EN" "http://www.w3.org/Graphics/SVG/1.1/DTD/svg11.dtd"><svg class="icon" width="200px" height="200.00px" viewBox="0 0 1024 1024" version="1.1" xmlns="http://www.w3.org/2000/svg"><path d="M512 0c282.773333 0 512 229.226667 512 512S794.773333 1024 512 1024 0 794.773333 0 512 229.226667 0 512 0z m0 85.333333C276.352 85.333333 85.333333 276.352 85.333333 512s191.018667 426.666667 426.666667 426.666667 426.666667-191.018667 426.666667-426.666667S747.648 85.333333 512 85.333333z m-4.544 612.330667c12.842667 0 23.68 4.117333 32 12.586667 9.216 8.426667 13.866667 19.776 13.866667 33.258666 0 12.672-4.565333 23.829333-13.866667 33.237334-9.002667 8.234667-19.861333 12.586667-32 12.586666a45.76 45.76 0 0 1-33.066667-13.674666c-8.789333-8.917333-12.8-19.285333-12.8-32.149334 0-13.866667 4.117333-24.96 12.8-32.853333 8.661333-8.810667 20.074667-12.992 33.066667-12.992zM517.269333 234.666667c46.826667 0 84.693333 13.546667 113.536 40.896 27.541333 26.026667 41.301333 61.205333 41.301334 104.810666a139.733333 139.733333 0 0 1-29.013334 86.058667l-2.986666 3.626667-3.754667 4.181333-4.522667 4.757333-8.341333 8.32-10.304 9.856-12.373333 11.52-14.613334 13.333334c-15.36 13.418667-26.24 25.941333-32.981333 37.418666a93.696 93.696 0 0 0-13.162667 42.986667l-0.149333 5.802667v20.394666c0 20.117333-11.946667 32-32.128 32-19.050667 0-30.762667-10.581333-32-28.714666l-0.106667-3.285334v-20.394666c0-22.101333 4.608-42.709333 13.653334-60.778667 10.986667-23.509333 33.770667-50.773333 66.837333-79.68l20.992-21.226667 5.781333-6.122666 3.050667-3.434667 1.642667-1.984c13.610667-17.493333 20.266667-34.965333 20.266666-53.226667 0-27.114667-7.893333-48.554667-22.912-64.213333-15.786667-15.765333-38.784-23.594667-69.824-23.594667-34.688 0-59.648 11.178667-76.757333 33.984-15.146667 18.922667-22.976 46.037333-23.125333 82.282667-3.136 18.986667-14.08 30.250667-31.253334 30.250667-17.024 0-28.16-11.050667-32.128-32 0-49.578667 13.802667-90.261333 41.28-122.325334C423.210667 251.605333 464.661333 234.666667 517.269333 234.666667z" /></svg>