<?xml version="1.0" standalone="no"?><!DOCTYPE svg PUBLIC "-//W3C//DTD SVG 1.1//EN" "http://www.w3.org/Graphics/SVG/1.1/DTD/svg11.dtd"><svg class="icon" width="200px" height="200.00px" viewBox="0 0 1024 1024" version="1.1" xmlns="http://www.w3.org/2000/svg"><path d="M642.837333 11.2c8.789333 0 17.301333 2.688 24.704 7.893333l3.093334 2.346667 2.773333 2.581333 261.696 266.496c5.994667 6.122667 10.026667 13.866667 11.584 22.549334l0.512 3.776 0.170667 3.690666v649.429334c0 21.098667-15.317333 38.826667-36.074667 42.261333l-3.328 0.426667-3.434667 0.149333H119.466667a42.88 42.88 0 0 1-42.282667-36.096l-0.426667-3.306667-0.128-3.434666V54.037333c0-21.098667 15.317333-38.826667 36.074667-42.261333l3.328-0.426667L119.466667 11.2h523.370666zM578.176 96.853333l-415.872 0.021334v830.229333h699.370667V380.352l-240.64 0.042667a42.88 42.88 0 0 1-42.24-35.904l-0.426667-3.328-0.170667-3.626667-0.021333-240.682667zM708.266667 698.133333c23.68 0 42.837333 19.2 42.837333 42.837334a42.88 42.88 0 0 1-35.904 42.24l-3.306667 0.448-3.626666 0.170666H315.733333c-23.68 0-42.837333-19.2-42.837333-42.858666a42.88 42.88 0 0 1 35.904-42.24l3.306667-0.426667 3.626666-0.170667h392.533334z m0-196.266666c23.68 0 42.837333 19.2 42.837333 42.837333a42.88 42.88 0 0 1-35.904 42.24l-3.306667 0.448-3.626666 0.170667H315.733333c-23.68 0-42.837333-19.2-42.837333-42.858667a42.88 42.88 0 0 1 35.904-42.24l3.306667-0.426667 3.626666-0.170666h392.533334zM663.850667 136.576l0.021333 158.101333h155.242667l-155.264-158.101333z" /></svg>