<svg viewBox="0 0 1024 1024" version="1.1" xmlns="http://www.w3.org/2000/svg"><g fill="none"><path fill="#E5F6EA" d="M512 0C229.25714285714287 0 0 229.25714285714287 0 512 0 794.742857142857 229.25714285714287 1024 512 1024 794.742857142857 1024 1024 794.742857142857 1024 512 1024 229.25714285714287 794.742857142857 0 512 0L512 0Z"/><path fill="#3FC06D" d="M674.1692196571429 381.5977910857143C685.5948434285714 370.17216365714285 704.1194422857143 370.17216365714285 715.5450660571428 381.5977910857143 725.9319990857142 391.9847204571429 726.8762660571429 408.2385737142857 718.3778669714286 419.69221851428574L715.5450660571428 422.9736374857142 487.0551990857142 651.4635044571428C476.66826605714283 661.8504374857142 460.4144164571428 662.7947044571429 448.96077165714286 654.2963053714285L445.67935268571426 651.4635044571428 308.45493394285717 514.2390893714286C297.0293065142857 502.81346194285715 297.0293065142857 484.2888667428571 308.45493394285717 472.8632393142857 318.8418633142857 462.47630994285714 335.09571657142857 461.53204297142855 346.5493613714286 470.03044205714286L349.8307803428571 472.8632393142857 466.3588571428571 589.3851428571428 674.1692196571429 381.5977910857143Z"/></g></svg>