<?xml version="1.0" standalone="no"?><!DOCTYPE svg PUBLIC "-//W3C//DTD SVG 1.1//EN" "http://www.w3.org/Graphics/SVG/1.1/DTD/svg11.dtd"><svg t="1588241132051" class="icon" viewBox="0 0 1024 1024" version="1.1" xmlns="http://www.w3.org/2000/svg" p-id="6062" xmlns:xlink="http://www.w3.org/1999/xlink" width="40" height="40"><defs><style type="text/css"></style></defs><path d="M0 76.8h158.72v125.952H0V76.8z m209.92 0v870.4h606.208v-870.4H209.92z m147.456 193.536c5.12 0 10.24 1.024 14.336 4.096l153.6 108.544 153.6 108.544c12.288 8.192 15.36 26.624 8.192 39.936-2.048 4.096-5.12 7.168-8.192 9.216l-153.6 108.544-153.6 108.544c-12.288 8.192-27.648 4.096-34.816-9.216-3.072-5.12-4.096-10.24-4.096-15.36V299.008c0-15.36 10.24-27.648 24.576-28.672zM868.352 76.8H1024v125.952H868.352V76.8zM0 260.096h158.72V389.12H0V260.096z m868.352 0H1024V389.12H868.352V260.096zM0 447.488h158.72v129.024H0V447.488z m868.352 0H1024v129.024H868.352V447.488zM0 633.856h158.72v129.024H0V633.856z m868.352 0H1024v129.024H868.352V633.856zM0 820.224h158.72v125.952H0V820.224z m868.352 0H1024v125.952H868.352V820.224z" fill="#6AE5B9" p-id="6063"></path></svg>