<?xml version="1.0" encoding="UTF-8"?>
<svg width="16px" height="16px" viewBox="0 0 16 16" version="1.1" xmlns="http://www.w3.org/2000/svg" xmlns:xlink="http://www.w3.org/1999/xlink">
    <defs>
        <path d="M330,5 C331.104569,5 332,5.8954305 332,7 L332,7 L332,272 C332,273.104569 331.104569,274 330,274 L330,274 L2,274 C0.8954305,274 -1.3527075e-16,273.104569 0,272 L0,272 L0,7 C1.3527075e-16,5.8954305 0.8954305,5 2,5 L2,5 Z M58.2928932,0.292893219 C58.6834175,-0.0976310729 59.3165825,-0.0976310729 59.7071068,0.292893219 L59.7071068,0.292893219 L64,4.58578644 L54,4.58578644 Z" id="path-1"></path>
        <filter x="-4.5%" y="-5.5%" width="109.0%" height="110.9%" filterUnits="objectBoundingBox" id="filter-2">
            <feOffset dx="0" dy="0" in="SourceAlpha" result="shadowOffsetOuter1"></feOffset>
            <feGaussianBlur stdDeviation="5" in="shadowOffsetOuter1" result="shadowBlurOuter1"></feGaussianBlur>
            <feColorMatrix values="0 0 0 0 0.031372549   0 0 0 0 0.117647059   0 0 0 0 0.250980392  0 0 0 0.15 0" type="matrix" in="shadowBlurOuter1"></feColorMatrix>
        </filter>
    </defs>
    <g id="质量规则展示优化" stroke="none" stroke-width="1" fill="none" fill-rule="evenodd">
        <g id="仓库详情" transform="translate(-570.000000, -582.000000)">
            <rect fill="#FFFFFF" x="0" y="0" width="1366" height="768"></rect>
            <polygon id="bg" fill="#F0F2F5" fill-rule="nonzero" points="0 0 1366 0 1366 1286 0 1286"></polygon>
            <path d="M442,190 L1354,190 C1355.10457,190 1356,190.895431 1356,192 L1356,998 C1356,999.104569 1355.10457,1000 1354,1000 L442,1000 C440.895431,1000 440,999.104569 440,998 L440,192 C440,190.895431 440.895431,190 442,190 Z" id="矩形" fill="#FFFFFF" fill-rule="nonzero"></path>
            <g id="使用说明" transform="translate(460.000000, 522.000000)">
                <path d="M0,34 L876,34 L876,344 L0,344 L0,34 Z" id="矩形" stroke="#B7C5D7" fill="#FFFFFF" fill-rule="nonzero" stroke-dasharray="2"></path>
                <g id="01" transform="translate(20.000000, 54.000000)"></g>
            </g>
            <g id="编组-9" transform="translate(493.000000, 344.000000)">
                <g id="编组-24" transform="translate(41.000000, 21.000000)">
                    <g id="形状结合">
                        <use fill="black" fill-opacity="1" filter="url(#filter-2)" xlink:href="#path-1"></use>
                        <use fill="#FFFFFF" fill-rule="evenodd" xlink:href="#path-1"></use>
                    </g>
                    <g id="编组-5" transform="translate(16.000000, 76.585786)" fill-rule="nonzero">
                        <rect id="矩形" stroke="#CBD5E0" x="0" y="123.414214" width="300" height="50" rx="2"></rect>
                        <g id="未通过" transform="translate(20.000000, 140.414214)" fill="#8797AA">
                            <path d="M7.99980698,0.000260127917 L8.0695222,0.0062761621 L14.337522,1.99369075 C14.4904001,2.04146514 14.5859489,2.18478831 14.5859489,2.33766635 L14.5859489,2.33766635 L14.5477294,10.3637637 C14.5286196,10.421093 14.2801928,11.7301113 12.9998392,12.9818002 C11.8628087,14.099721 8.81480267,15.6189465 8.21284537,15.9151477 L8.21284537,15.9151477 L8.16507098,15.9438124 C8.01219293,16.0202514 7.83065025,16.0202514 7.67777221,15.9342575 C7.60133318,15.896038 7.48667465,15.8387087 7.32424173,15.7527148 C6.29231492,15.2176417 3.89404059,13.9468429 2.90988817,12.9818002 C1.63908942,11.7301113 1.38110772,10.4306479 1.37155284,10.3733186 L1.37155284,10.3733186 L1.36199797,10.2873247 L1.33333333,2.34722123 C1.33333333,2.18478831 1.43843699,2.05102002 1.58176016,2.00324563 L1.58176016,2.00324563 L7.84976001,0.0158310399 C7.92619903,-0.00327871572 8.00263805,-0.00327871572 8.0695222,0.0062761621 Z M10.6666667,6.66666667 L5.33333333,6.66666667 C4.9651435,6.66666667 4.66666667,6.9651435 4.66666667,7.33333333 C4.66666667,7.70152317 4.9651435,8 5.33333333,8 L5.33333333,8 L10.6666667,8 C11.0348565,8 11.3333333,7.70152317 11.3333333,7.33333333 C11.3333333,6.9651435 11.0348565,6.66666667 10.6666667,6.66666667 L10.6666667,6.66666667 Z" id="形状结合"></path>
                        </g>
                    </g>
                </g>
            </g>
        </g>
    </g>
</svg>