<?xml version="1.0" encoding="UTF-8"?>
<svg width="16px" height="16px" viewBox="0 0 16 16" version="1.1" xmlns="http://www.w3.org/2000/svg" xmlns:xlink="http://www.w3.org/1999/xlink">
    <g id="质量规则展示优化" stroke="none" stroke-width="1" fill="none" fill-rule="evenodd">
        <g id="仓库详情" transform="translate(-570.000000, -512.000000)">
            <g id="编组-9" transform="translate(493.000000, 344.000000)">
                <g id="编组-24" transform="translate(41.000000, 21.000000)">
                    <g id="编组-5" transform="translate(16.000000, 76.585786)" fill="#14AB5B" fill-rule="nonzero">
                        <g id="未通过" transform="translate(20.000000, 70.414214)">
                            <path d="M7.99980698,0.000260127917 L8.0695222,0.0062761621 L14.337522,1.99369075 C14.4904001,2.04146514 14.5859489,2.18478831 14.5859489,2.33766635 L14.5859489,2.33766635 L14.5477294,10.3637637 C14.5286196,10.421093 14.2801928,11.7301113 12.9998392,12.9818002 C11.8628087,14.099721 8.81480267,15.6189465 8.21284537,15.9151477 L8.21284537,15.9151477 L8.16507098,15.9438124 C8.01219293,16.0202514 7.83065025,16.0202514 7.67777221,15.9342575 C7.60133318,15.896038 7.48667465,15.8387087 7.32424173,15.7527148 C6.29231492,15.2176417 3.89404059,13.9468429 2.90988817,12.9818002 C1.63908942,11.7301113 1.38110772,10.4306479 1.37155284,10.3733186 L1.37155284,10.3733186 L1.36199797,10.2873247 L1.33333333,2.34722123 C1.33333333,2.18478831 1.43843699,2.05102002 1.58176016,2.00324563 L1.58176016,2.00324563 L7.84976001,0.0158310399 C7.92619903,-0.00327871572 8.00263805,-0.00327871572 8.0695222,0.0062761621 Z M10.8653595,5.03417549 L6.727,9.172 L4.88400896,7.32923016 L4.85818201,7.30494661 C4.596854,7.07921617 4.21673035,7.09100586 3.97848187,7.32925433 C3.7284295,7.5793067 3.72844508,7.98472629 3.97850313,8.23478434 L6.27448421,10.5306166 L6.30030597,10.554895 C6.56163105,10.7806239 6.94175309,10.7688419 7.17999635,10.5305987 L11.7708895,5.9397055 L11.795167,5.91388694 C12.0209145,5.6525636 12.0091405,5.27242647 11.7708895,5.03417549 L11.7383889,5.00390441 C11.4825673,4.78316205 11.1025353,4.79699976 10.8653595,5.03417549 Z" id="形状结合"></path>
                        </g>
                    </g>
                </g>
            </g>
        </g>
    </g>
</svg>