<?xml version="1.0" encoding="UTF-8"?>
<svg width="16px" height="16px" viewBox="0 0 16 16" version="1.1" xmlns="http://www.w3.org/2000/svg" xmlns:xlink="http://www.w3.org/1999/xlink">
    <g id="质量规则展示优化" stroke="none" stroke-width="1" fill="none" fill-rule="evenodd">
        <g id="制品列表" transform="translate(-445.000000, -584.000000)" fill="#DD8300" fill-rule="nonzero">
            <g id="未通过" transform="translate(445.000000, 584.000000)">
                <path d="M7.99980698,0.000260127917 L8.0695222,0.0062761621 L14.337522,1.99369075 C14.4904001,2.04146514 14.5859489,2.18478831 14.5859489,2.33766635 L14.5859489,2.33766635 L14.5477294,10.3637637 C14.5286196,10.421093 14.2801928,11.7301113 12.9998392,12.9818002 C11.8628087,14.099721 8.81480267,15.6189465 8.21284537,15.9151477 L8.21284537,15.9151477 L8.16507098,15.9438124 C8.01219293,16.0202514 7.83065025,16.0202514 7.67777221,15.9342575 C7.60133318,15.896038 7.48667465,15.8387087 7.32424173,15.7527148 C6.29231492,15.2176417 3.89404059,13.9468429 2.90988817,12.9818002 C1.63908942,11.7301113 1.38110772,10.4306479 1.37155284,10.3733186 L1.37155284,10.3733186 L1.36199797,10.2873247 L1.33333333,2.34722123 C1.33333333,2.18478831 1.43843699,2.05102002 1.58176016,2.00324563 L1.58176016,2.00324563 L7.84976001,0.0158310399 C7.92619903,-0.00327871572 8.00263805,-0.00327871572 8.0695222,0.0062761621 Z M10.3570226,4.97631073 C10.0966731,4.7159612 9.67456309,4.7159612 9.41421356,4.97631073 L9.41421356,4.97631073 L7.9995286,6.39005289 L6.58578644,4.97631073 C6.32543691,4.7159612 5.90332692,4.7159612 5.6429774,4.97631073 C5.38262787,5.23666026 5.38262787,5.65877024 5.6429774,5.91911977 L5.6429774,5.91911977 L7.05624815,7.33333333 L5.6429774,8.7475469 C5.38262787,9.00789642 5.38262787,9.43000641 5.6429774,9.69035594 C5.90332692,9.95070547 6.32543691,9.95070547 6.58578644,9.69035594 L6.58578644,9.69035594 L7.99882149,8.27590667 L9.41421356,9.69035594 C9.67456309,9.95070547 10.0966731,9.95070547 10.3570226,9.69035594 C10.6173721,9.43000641 10.6173721,9.00789642 10.3570226,8.7475469 L10.3570226,8.7475469 L8.94210193,7.33262623 L10.3570226,5.91911977 C10.6173721,5.65877024 10.6173721,5.23666026 10.3570226,4.97631073 Z" id="形状结合"></path>
            </g>
        </g>
    </g>
</svg>