<?xml version="1.0" encoding="UTF-8"?>
<svg width="48px" height="48px" viewBox="0 0 48 48" version="1.1" xmlns="http://www.w3.org/2000/svg" xmlns:xlink="http://www.w3.org/1999/xlink">
    <g id="面性" stroke="none" stroke-width="1" fill="none" fill-rule="evenodd">
        <g id="扫描异常" fill="#EA3736" fill-rule="nonzero">
            <g id="未通过">
                <path d="M23.54928,0.0474931198 C23.7785971,-0.00983614716 24.0079142,-0.00983614716 24.2085666,0.0188284863 L24.2085666,0.0188284863 L43.0125661,5.98107225 C43.4712003,6.12439541 43.7578466,6.55436492 43.7578466,7.01299905 L43.7578466,7.01299905 L43.6431881,31.0912912 C43.6326582,31.1228808 43.5989197,31.2811511 43.5270526,31.5417685 L43.4733288,31.730409 C43.0952292,33.017779 41.9782994,36.033308 38.9995175,38.9454007 C35.5884261,42.2991629 26.444408,46.8568396 24.6385361,47.7454432 L24.6385361,47.7454432 L24.4952129,47.8314371 C24.0365788,48.0607542 23.4919508,48.0607542 23.0333166,47.8027725 C22.8039996,47.6881139 22.460024,47.5161261 21.9727252,47.2581444 C18.8769448,45.652925 11.6821218,41.8405287 8.72966452,38.9454007 C4.91726827,35.1903338 4.14332317,31.2919436 4.11465853,31.1199558 L4.11465853,31.1199558 L4.0859939,30.8619741 L4,7.04166369 C4,6.55436492 4.31531097,6.15306005 4.74528047,6.00973688 L4.74528047,6.00973688 Z M19.7573593,14.9289322 C18.9763107,14.1478836 17.7099808,14.1478836 16.9289322,14.9289322 C16.1478836,15.7099808 16.1478836,16.9763107 16.9289322,17.7573593 L16.9289322,17.7573593 L21.1708658,21.9992929 L16.9289322,26.2426407 C16.1478836,27.0236893 16.1478836,28.2900192 16.9289322,29.0710678 C17.7099808,29.8521164 18.9763107,29.8521164 19.7573593,29.0710678 L19.7573593,29.0710678 L23.9992929,24.82772 L28.2426407,29.0710678 C29.0236893,29.8521164 30.2900192,29.8521164 31.0710678,29.0710678 C31.8521164,28.2900192 31.8521164,27.0236893 31.0710678,26.2426407 L31.0710678,26.2426407 L26.8284271,22 L31.0710678,17.7573593 C31.8521164,16.9763107 31.8521164,15.7099808 31.0710678,14.9289322 C30.2900192,14.1478836 29.0236893,14.1478836 28.2426407,14.9289322 L28.2426407,14.9289322 L24,19.1715729 Z" id="形状结合"></path>
            </g>
        </g>
    </g>
</svg>