<?xml version="1.0" encoding="UTF-8"?>
<svg width="16px" height="16px" viewBox="0 0 16 16" version="1.1" xmlns="http://www.w3.org/2000/svg" xmlns:xlink="http://www.w3.org/1999/xlink">
    <g id="质量规则展示优化" stroke="none" stroke-width="1" fill="none" fill-rule="evenodd">
        <g id="制品列表" transform="translate(-445.000000, -693.000000)" fill="#EA3736" fill-rule="nonzero">
            <g id="未通过" transform="translate(445.000000, 693.000000)">
                <path d="M7.99980698,0.000260127917 L8.0695222,0.0062761621 L14.337522,1.99369075 C14.4904001,2.04146514 14.5859489,2.18478831 14.5859489,2.33766635 L14.5859489,2.33766635 L14.5477294,10.3637637 C14.5286196,10.421093 14.2801928,11.7301113 12.9998392,12.9818002 C11.8628087,14.099721 8.81480267,15.6189465 8.21284537,15.9151477 L8.21284537,15.9151477 L8.16507098,15.9438124 C8.01219293,16.0202514 7.83065025,16.0202514 7.67777221,15.9342575 C7.60133318,15.896038 7.48667465,15.8387087 7.32424173,15.7527148 C6.29231492,15.2176417 3.89404059,13.9468429 2.90988817,12.9818002 C1.63908942,11.7301113 1.38110772,10.4306479 1.37155284,10.3733186 L1.37155284,10.3733186 L1.36199797,10.2873247 L1.33333333,2.34722123 C1.33333333,2.18478831 1.43843699,2.05102002 1.58176016,2.00324563 L1.58176016,2.00324563 L7.84976001,0.0158310399 C7.92619903,-0.00327871572 8.00263805,-0.00327871572 8.0695222,0.0062761621 Z M8,6.33333333 C7.6778339,6.33333333 7.41666667,6.59450056 7.41666667,6.91666667 L7.41666667,6.91666667 L7.41666667,11.0833333 C7.41666667,11.4054994 7.6778339,11.6666667 8,11.6666667 C8.3221661,11.6666667 8.58333333,11.4054994 8.58333333,11.0833333 L8.58333333,11.0833333 L8.58333333,6.91666667 C8.58333333,6.59450056 8.3221661,6.33333333 8,6.33333333 Z M8,4.33333333 C7.6778339,4.33333333 7.41666667,4.59450056 7.41666667,4.91666667 C7.41666667,5.23883277 7.6778339,5.5 8,5.5 C8.3221661,5.5 8.58333333,5.23883277 8.58333333,4.91666667 C8.58333333,4.59450056 8.3221661,4.33333333 8,4.33333333 Z" id="形状结合"></path>
            </g>
        </g>
    </g>
</svg>