<?xml version="1.0" encoding="utf-8"?>
<!-- Generator: Adobe Illustrator 24.0.0, SVG Export Plug-In . SVG Version: 6.00 Build 0)  -->
<svg version="1.1" id="图层_1" xmlns="http://www.w3.org/2000/svg" xmlns:xlink="http://www.w3.org/1999/xlink" x="0px" y="0px"
	 viewBox="0 0 16 16" style="enable-background:new 0 0 16 16;" xml:space="preserve">
<path d="M11.7,7.9H8.4V4.7c0-0.1-0.1-0.2-0.2-0.2H7.7c-0.1,0-0.2,0.1-0.2,0.2v4c0,0.1,0.1,0.2,0.2,0.2h4c0.1,0,0.2-0.1,0.2-0.2V8.2
	C11.9,8,11.8,7.9,11.7,7.9C11.7,7.9,11.7,7.9,11.7,7.9L11.7,7.9z"/>
<path d="M8,0.9c3.9,0,7.1,3.2,7.2,7.1c0,1.9-0.8,3.7-2.1,5.1c-2.8,2.8-7.3,2.8-10.1,0S0.2,5.7,3,2.9c0.6-0.6,1.4-1.2,2.3-1.5
	C6.1,1,7,0.8,8,0.9 M8,0C3.6,0,0,3.6,0,8s3.6,8,8,8s8-3.6,8-8S12.4,0,8,0L8,0z"/>
</svg>
