<?xml version="1.0" encoding="utf-8"?>
<!-- Generator: Adobe Illustrator 24.0.0, SVG Export Plug-In . SVG Version: 6.00 Build 0)  -->
<svg version="1.1" id="图层_1" xmlns="http://www.w3.org/2000/svg" xmlns:xlink="http://www.w3.org/1999/xlink" x="0px" y="0px"
	 viewBox="0 0 16 16" style="enable-background:new 0 0 16 16;" xml:space="preserve">
<path d="M14.4,15.5c-0.3,0-0.5-0.2-0.5-0.5c0-3.1-2.6-5.5-5.9-5.5c0,0-0.1,0-0.1,0c0,0-0.1,0-0.1,0c0,0-0.1,0-0.1,0
	C4.5,9.7,2.1,12.1,2.1,15c0,0.3-0.2,0.5-0.5,0.5S1.1,15.3,1.1,15c0-1.4,0.5-2.8,1.4-3.9c0.8-1,1.9-1.8,3.1-2.2
	c-1.3-0.8-2.2-2.3-2.2-4c0-2.5,2-4.5,4.6-4.5c2.5,0,4.6,2,4.6,4.5c0,1.2-0.5,2.3-1.3,3.1c-0.2,0.2-0.5,0.2-0.7,0
	c-0.2-0.2-0.2-0.5,0-0.7c0.6-0.6,1-1.5,1-2.4C11.5,3,9.9,1.5,8,1.5C6,1.5,4.4,3,4.4,4.9c0,2,1.4,3.5,3.2,3.6c0.1,0,0.3,0,0.4,0
	c3.8,0,6.9,2.9,6.9,6.5C14.9,15.3,14.7,15.5,14.4,15.5z"/>
</svg>
