<?xml version="1.0" standalone="no"?><!DOCTYPE svg PUBLIC "-//W3C//DTD SVG 1.1//EN" "http://www.w3.org/Graphics/SVG/1.1/DTD/svg11.dtd"><svg class="icon" width="200px" height="200.00px" viewBox="0 0 1024 1024" version="1.1" xmlns="http://www.w3.org/2000/svg"><path d="M766.08 634.666667a194.666667 194.666667 0 0 1 5.653333 389.248l-5.632 0.085333h-490.666666a194.666667 194.666667 0 0 1-5.653334-389.248l5.653334-0.085333h490.666666z m-0.192 85.333333h-490.453333a109.333333 109.333333 0 0 0-109.333334 109.333333 109.312 109.312 0 0 0 100.117334 108.970667l4.693333 0.277333 4.522667 0.085334h490.666666a109.333333 109.333333 0 0 0 109.333334-109.333334 109.312 109.312 0 0 0-100.138667-108.970666l-4.693333-0.277334-4.693334-0.085333zM794.965333 0a10.666667 10.666667 0 0 1 10.496 8.746667l0.170667 1.92v272.32c0 156.373333-125.738667 283.050667-281.024 283.050666-155.242667 0-281.045333-126.741333-281.045333-283.050666C243.562667 128.938667 365.781333 3.626667 517.973333 0.085333L524.586667 0h270.378666z m-74.666666 85.333333H524.586667c-108.032 0-195.690667 88.426667-195.690667 197.653334 0 109.248 87.68 197.717333 195.712 197.717333 104.106667 0 189.568-82.133333 195.370667-186.24l0.256-5.674667 0.064-5.802666V85.333333z" /></svg>