<svg viewBox="0 0 1024 1024" version="1.1" xmlns="http://www.w3.org/2000/svg"><path  fill-rule="evenodd" d="M405.7858816 162.66256256C416.4461344 160.6535248 439.8986944 159.44810208 457.3815104 160.25171712 484.2453504 161.05533248 494.052784 163.4661776 516.226112 174.7167888 567.8217376 200.43247136 597.670448 242.22045568 606.6250624 301.28616416 617.711728 374.415136 593.4063488 443.5260352 535.8409792 500.180896 509.8299584 525.8965792 505.565856 537.5489984 514.0940608 557.237568 521.3430336 572.9080608 546.0748224 586.5695168 629.2248 620.3213504 691.054272 645.2334208 760.985536 687.4232096 767.8080992 703.8973216 774.6306624 720.3714304 784.8645056 752.114224 791.6870688 777.4280992 799.7888608 807.1618592 793.3927072 818.8142784 761.8383584 832.4757344 720.4765728 850.155264 669.3073536 857.3878016 546.9276416 862.2094912 392.9935776 868.2366048 227.12002944 858.5932224 162.30568672 840.1100768 134.5890272 832.4757344 108.15159776 815.1980096 100.47621504 799.5275136 93.6536528 786.2678656 94.08006304 784.2588288 105.59313696 746.4889184 116.67980096 709.924432 119.23826176 705.5045504 141.41158944 685.4141728 143.84821888 683.2001312 146.05397248 681.2036448 148.2232096 679.3252416L152.13038144 676.0501632C159.5946992 670.0236288 167.98497088 664.6722176 184.94031712 656.0863296L191.29263904 652.915344C215.97973152 640.7492736 256.51622304 622.3959904 329.458464 589.3821696 359.7335872 575.3189056 371.2466592 563.6664896 375.084352 542.772496 377.2164032 530.316464 374.6579424 526.7001952 345.2356416 496.9664352 295.34565344 446.338688 274.02514592 396.9163584 273.59873568 331.0199232 273.59873568 291.24097568 282.12693888 265.52529312 307.71154784 228.15719168 332.8697472 191.19089792 365.703328 169.49329056 405.7858816 162.66256256ZM668.7713728 226.60405184C756.683056 211.50282816 820.4190272 263.09867616 827.0124032 354.9644544 831.8475456 416.6277856 815.1443264 461.931456 770.3093664 510.1714752 752.287472 529.4674848 747.891888 536.5986176 748.3314464 548.344016 748.7710048 555.8946272 751.4083552 565.123152 754.485264 568.8984576 757.5621728 572.2542848 788.331264 588.1944672 823.0563776 604.1346464 944.3745024 659.92528 966.791984 682.996592 958.4403712 744.6599232 954.923904 771.9260224 956.6821376 771.0870656 890.308816 787.0272448 867.4517792 792.8999456 845.0343008 798.3531648 841.0782752 799.6116 835.3640128 801.2895136 833.1662208 797.9336864 830.5288704 781.5740256 824.3750528 739.6261824 812.0674176 710.6821696 790.0894976 687.6108576 752.287472 647.3409248 703.9360448 619.6553504 624.3759712 593.6476864 597.5629088 584.4191616 560.64 550.8608864 560.64 534.920704 560.64 527.7895712 569.8707264 514.7857408 589.6508544 494.6507744 620.859504 461.931456 639.7605152 429.631616 648.5516832 394.8149056 655.5846208 366.7098496 652.0681504 283.23364096 642.837424 254.7091072 635.3649312 231.63779328 634.4858144 232.47675008 668.7713728 226.60405184Z"/></svg>