<?xml version="1.0" encoding="utf-8"?>
<!-- Generator: Adobe Illustrator 24.0.0, SVG Export Plug-In . SVG Version: 6.00 Build 0)  -->
<svg version="1.1" id="图层_1" xmlns="http://www.w3.org/2000/svg" xmlns:xlink="http://www.w3.org/1999/xlink" x="0px" y="0px"
	 viewBox="0 0 16 16" style="enable-background:new 0 0 16 16;" xml:space="preserve">
<path d="M2.1,13.3V1.2C2.1,1.1,2.1,1,2.2,1l0,0h10.2c0.1,0,0.1,0.1,0.1,0.1c0,0,0,0,0,0v6.1h0.9V1.2c0-0.6-0.5-1-1-1c0,0,0,0,0,0
	H2.2c-0.6,0-1,0.5-1,1c0,0,0,0,0,0v12.2c0,0.6,0.5,1,1,1h2.9v-0.9H2.2C2.1,13.5,2.1,13.4,2.1,13.3C2.1,13.3,2.1,13.3,2.1,13.3z"/>
<path d="M4.5,7.9c-0.4,0-0.6,0.2-0.6,0.4c0,0.2,0.3,0.4,0.6,0.4h2.6c0.4,0,0.6-0.2,0.6-0.4c0-0.2-0.3-0.4-0.6-0.4H4.5z"/>
<path d="M9.4,6c0-0.2-0.2-0.4-0.4-0.4c0,0,0,0,0,0H4.3C4.1,5.5,3.9,5.7,3.9,6s0.2,0.4,0.4,0.4H9C9.3,6.4,9.4,6.2,9.4,6
	C9.4,6,9.4,6,9.4,6L9.4,6z"/>
<path d="M10,3.2H4.4c-0.3,0-0.5,0.2-0.5,0.4c0,0,0,0,0,0c0,0.3,0.2,0.5,0.5,0.4c0,0,0,0,0,0H10c0.3,0,0.5-0.2,0.5-0.4c0,0,0,0,0,0
	C10.5,3.4,10.3,3.2,10,3.2C10,3.2,10,3.2,10,3.2z"/>
<path d="M10.8,8.3c2,0,3.5,1.6,3.5,3.5c0,0.9-0.4,1.8-1,2.5c-1.4,1.4-3.6,1.4-5,0s-1.4-3.6,0-5C8.6,9,9,8.8,9.4,8.6
	C9.9,8.4,10.4,8.3,10.8,8.3 M10.8,7.9c-2.2,0-4,1.8-4,4s1.8,4,4,4s4-1.8,4-4S13,7.9,10.8,7.9L10.8,7.9z"/>
<path d="M10,14v-0.2c0.4,0,0.5-0.1,0.5-0.6v-1.5c0-0.4,0-0.5-0.4-0.5v-0.2c0.3-0.1,0.7-0.1,1-0.3v2.5c0,0.5,0,0.5,0.5,0.6V14H10z
	 M10.4,9.9c0-0.2,0.2-0.4,0.4-0.4c0,0,0,0,0,0c0.2,0,0.4,0.2,0.4,0.4c0,0.2-0.2,0.4-0.4,0.4C10.6,10.2,10.4,10.1,10.4,9.9z"/>
</svg>
