<?xml version="1.0" standalone="no"?><!DOCTYPE svg PUBLIC "-//W3C//DTD SVG 1.1//EN" "http://www.w3.org/Graphics/SVG/1.1/DTD/svg11.dtd"><svg t="1678798462424" class="icon" viewBox="0 0 1024 1024" version="1.1" xmlns="http://www.w3.org/2000/svg" p-id="4373" xmlns:xlink="http://www.w3.org/1999/xlink" width="200" height="200"><path d="M834.922667 960v64h-64v-64h64z m-128 0v64h-64v-64h64z m-128 0v64h-64v-64h64z m-128 0v64h-64v-64h64z m-128 0v64h-64v-64h64z m-191.850667-2.474667c6.549333 1.621333 13.397333 2.474667 20.458667 2.474667h43.392v64H151.530667a149.546667 149.546667 0 0 1-35.733334-4.309333z m817.92-42.666666l56.469333 30.144a149.568 149.568 0 0 1-85.888 71.808l-19.648-60.906667a85.589333 85.589333 0 0 0 49.066667-41.066667zM66.197333 856.661333V874.666667c0 16.938667 4.949333 32.725333 13.461334 45.994666l-53.888 34.538667a149.973333 149.973333 0 0 1-23.530667-78.506667l-0.021333-19.925333 63.978666-0.085333z m892.864-68.629333h64v64h-64v-64z m-388.906666-372.949333a42.666667 42.666667 0 0 1 42.666666 42.666666v341.333334a42.666667 42.666667 0 0 1-42.666666 42.666666h-341.333334a42.666667 42.666667 0 0 1-42.666666-42.666666v-341.333334a42.666667 42.666667 0 0 1 42.666666-42.666666h341.333334z m-503.957334 313.6v64h-64v-64h64z m737.749334-0.917334v9.514667c0 19.2-7.936 37.184-21.632 50.090667l-31.488-33.386667a22.826667 22.826667 0 0 0 7.210666-16.704v-9.514667h45.909334z m155.114666-67.733333h64v64h-64v-64z m-155.114666-24.064v45.888h-45.909334v-45.888h45.909334zM66.176 600.682667v64h-64v-64h64z m892.864-68.629334h64v64h-64v-64z m-155.114667 12.138667v45.888h-45.909333V544.213333h45.909333zM470.613333 486.058667H328.32a26.602667 26.602667 0 0 0-2.730667 53.098666l2.730667 0.128h142.314667a26.602667 26.602667 0 1 0 0-53.226666z m-404.437333-13.376v64h-64v-64h64z m737.749333-20.288v45.888h-45.909333v-45.888h45.909333z m155.114667-48.341334h64v64h-64v-64zM66.176 344.682667v64h-64v-64h64z m737.749333 15.893333v45.909333h-45.909333v-45.909333h45.909333z m155.114667-84.522667h64v64h-64v-64z m-177.066667-21.013333a68.693333 68.693333 0 0 1 21.952 50.410667v9.237333h-45.909333v-9.237333a22.826667 22.826667 0 0 0-7.317333-16.810667z m-528.682666-8.533333l23.786666 39.274666c-6.848 4.16-11.093333 11.52-11.093333 19.669334v0.789333h-45.909333l0.149333-5.333333a68.821333 68.821333 0 0 1 33.066667-54.4z m469.482666-9.898667v45.888h-45.909333v-45.888h45.909333z m-367.189333 0v45.888h-45.909333v-45.888h45.909333z m91.797333 0v45.888h-45.909333v-45.888h45.909333z m91.797334 0v45.888h-45.909334v-45.888h45.909334z m91.797333 0v45.888h-45.909333v-45.888h45.909333z m-564.8-19.925333v64h-64v-64h64z m956.8-70.912l0.064 66.304h-64V150.677333l-0.064-2.858666 64-2.069334zM41.6 49.6l47.125333 43.306667a85.034667 85.034667 0 0 0-22.528 57.792l-0.021333 1.984h-64v-1.984c0-37.909333 14.293333-73.749333 39.424-101.098667zM873.706667 1.365333c39.210667 0 76.202667 15.253333 103.829333 41.984L933.034667 89.386667a85.056 85.056 0 0 0-59.328-24z m-662.826667 0v64H151.530667c-1.706667 0-3.349333 0.042667-5.013334 0.128L142.848 1.6c2.666667-0.149333 5.354667-0.213333 8.32-0.234667h59.733333z m512 0v64h-64v-64h64z m128 0v64h-64v-64h64z m-384 0v64h-64v-64h64z m-128 0v64h-64v-64h64z m256 0v64h-64v-64h64z" p-id="4374"></path></svg>