<?xml version="1.0" standalone="no"?><!DOCTYPE svg PUBLIC "-//W3C//DTD SVG 1.1//EN" "http://www.w3.org/Graphics/SVG/1.1/DTD/svg11.dtd"><svg t="1635994381170" class="icon" viewBox="0 0 3927 1024" version="1.1" xmlns="http://www.w3.org/2000/svg" p-id="1875" xmlns:xlink="http://www.w3.org/1999/xlink" width="766.9921875" height="200"><defs><style type="text/css"></style></defs><path d="M701.696 800.085333l-30.464 162.474667H353.109333c-60.074667 0-105.386667-3.157333-136.106666-9.557333-107.861333-21.845333-175.786667-84.224-203.946667-187.050667-17.92-69.12-17.408-154.709333 1.706667-256.682667 22.784-122.026667 65.024-221.184 126.72-297.642666a399.701333 399.701333 0 0 1 161.28-121.514667c62.549333-25.514667 139.349333-38.229333 230.4-38.229333h308.565333l-30.378667 162.474666h-286.72c-86.528 0-154.112 23.210667-202.837333 69.632-40.874667 38.229333-70.656 107.434667-89.344 207.530667-25.258667 134.741333-15.872 222.976 28.16 264.874667 30.976 29.098667 85.162667 43.690667 162.56 43.690666h278.528z" fill="#081E40" p-id="1876"></path><path d="M1012.736 651.52l-62.464 318.122667H756.394667l151.893333-772.949334A170.666667 170.666667 0 0 1 1075.797333 58.965333h314.282667c82.773333 0 140.8 5.973333 173.994667 17.749334 56.149333 20.053333 95.317333 61.44 117.504 124.245333 16.213333 47.36 18.773333 98.730667 7.936 154.282667a404.48 404.48 0 0 1-51.2 131.754666A352.853333 352.853333 0 0 1 1548.032 588.8c-31.914667 23.637333-64 40.106667-96.426667 49.152-32.170667 9.130667-74.752 13.653333-127.573333 13.653333h-311.296z m32-162.474667h263.509333c47.274667 0 81.92-7.253333 103.936-21.845333 32.682667-22.784 54.613333-62.293333 65.706667-118.784 11.946667-61.013333-1.706667-100.096-41.130667-117.418667-14.165333-6.4-38.144-9.557333-71.850666-9.557333H1097.386667l-52.565334 267.605333z m1181.013333 76.458667c9.130667-46.421333 5.973333-77.824-9.472-94.208-15.445333-16.384-50.944-24.576-106.496-24.576h-308.565333l27.904-141.994667h308.565333c55.552 0 93.525333 1.109333 114.090667 3.413334 20.48 2.304 40.96 6.570667 61.610667 12.970666 93.525333 38.229333 123.306667 129.706667 89.344 274.432l-73.472 374.101334h-385.024c-69.205333 0-116.565333-2.048-142.165334-6.144a147.882667 147.882667 0 0 1-64.682666-25.258667c-46.506667-36.437333-62.549333-91.477333-48.042667-165.205333 8.704-44.629333 27.306667-84.48 55.466667-119.466667 28.330667-34.986667 61.44-58.88 99.498666-71.68 33.109333-10.922667 85.589333-16.384 157.525334-16.384h223.914666zM2174.208 827.733333l23.637333-120.149333h-241.664a85.333333 85.333333 0 0 0-53.077333 16.384 71.68 71.68 0 0 0-27.306667 45.056c-4.096 20.906667 0.426667 35.925333 13.653334 45.056 13.226667 9.130667 38.058667 13.653333 74.496 13.653333h210.261333z m1012.053333-522.922666l-27.904 141.994666h-218.453333c-73.728 0-127.914667 16.384-162.56 49.152-33.365333 30.976-56.32 78.250667-68.864 141.994667-13.994667 70.997333-1.877333 122.88 36.266667 155.648 15.701333 12.8 33.792 21.589333 54.186666 26.624 20.48 5.034667 49.749333 7.509333 87.893334 7.509333h196.693333l-27.904 141.994667H2805.76c-67.413333 0-119.296-6.826667-155.733333-20.48a187.989333 187.989333 0 0 1-89.856-70.997333c-44.8-63.744-57.514667-144.725333-38.229334-243.029334 23.296-118.357333 74.752-206.592 154.453334-264.874666a302.933333 302.933333 0 0 1 108.288-50.517334c40.106667-9.984 90.794667-15.018667 151.722666-15.018666h249.856zM3558.485333 54.357333l-98.986666 505.685334 0.597333 0.682666 261.461333-215.978666h205.909334L3544.576 657.066667l274.517333 312.576h-205.909333l-191.573333-212.224-0.853334 0.682666-41.386666 211.626667h-183.893334L3374.592 54.272H3558.4z" fill="#3A84FF" p-id="1877"></path></svg>