<svg viewBox="0 0 1024 1024" version="1.1" xmlns="http://www.w3.org/2000/svg"><g fill="none"><path fill="#FDD" d="M512 0C229.25714285714287 0 0 229.25714285714287 0 512 0 794.742857142857 229.25714285714287 1024 512 1024 794.742857142857 1024 1024 794.742857142857 1024 512 1024 229.25714285714287 794.742857142857 0 512 0L512 0Z"/><path fill="#EA3636" d="M375.8065042285714 334.8792758857143L379.0879232 337.7120768 504.6857142857143 463.32342857142856 630.2835053714285 337.7120768C641.7091291428571 326.28644937142855 660.233728 326.28644937142855 671.6593517714285 337.7120768 682.0462848 348.0990061714285 682.9905517714286 364.35285942857143 674.4921526857142 375.8065042285714L671.6593517714285 379.0879232 546.048 504.6857142857143 671.6593517714285 630.2835053714285C683.0849792 641.7091291428571 683.0849792 660.233728 671.6593517714285 671.6593517714285 661.2724224 682.0462848 645.0185691428571 682.9905517714286 633.5649243428571 674.4921526857142L630.2835053714285 671.6593517714285 504.6857142857143 546.048 379.0879232 671.6593517714285C367.66229942857143 683.0849792 349.1377005714286 683.0849792 337.7120768 671.6593517714285 327.32514377142854 661.2724224 326.3808768 645.0185691428571 334.8792758857143 633.5649243428571L337.7120768 630.2835053714285 463.32342857142856 504.6857142857143 337.7120768 379.0879232C326.28644937142855 367.66229942857143 326.28644937142855 349.1377005714286 337.7120768 337.7120768 348.0990061714285 327.32514377142854 364.35285942857143 326.3808768 375.8065042285714 334.8792758857143Z"/></g></svg>