<?xml version="1.0" standalone="no"?><!DOCTYPE svg PUBLIC "-//W3C//DTD SVG 1.1//EN" "http://www.w3.org/Graphics/SVG/1.1/DTD/svg11.dtd"><svg t="1634784844083" class="icon" viewBox="0 0 1024 1024" version="1.1" xmlns="http://www.w3.org/2000/svg" p-id="7615" xmlns:xlink="http://www.w3.org/1999/xlink" width="200" height="200"><defs><style type="text/css"></style></defs><path d="M597.333333 725.333333h-85.333333v-85.333333h-85.333333v-85.333333h85.333333v85.333333h85.333333m0-256h-85.333333v85.333333h85.333333v85.333334h-85.333333v-85.333334h-85.333333V384h85.333333V298.666667h-85.333333V213.333333h85.333333v85.333334h85.333333m213.333334-170.666667H213.333333c-47.36 0-85.333333 37.973333-85.333333 85.333333v597.333334a85.333333 85.333333 0 0 0 85.333333 85.333333h597.333334a85.333333 85.333333 0 0 0 85.333333-85.333333V213.333333a85.333333 85.333333 0 0 0-85.333333-85.333333z" fill="#AFB42B" p-id="7616"></path></svg>