<svg class="bk-icon" style="width: 1em; height: 1em;vertical-align: middle;fill: currentColor;overflow: hidden;" viewBox="0 0 64 64" version="1.1" xmlns="http://www.w3.org/2000/svg"><g><g><g><g><path  fill="#727985" d="M19.11,55.25h-.2a3,3,0,0,1-2.51-1.36c-5.77-.46-10.32-5.63-10.32-12,0-6.59,5-11.95,11.11-12h1.92V26.62a.63.63,0,0,1,.61-.65H44.36a.63.63,0,0,1,.61.65v2A3.05,3.05,0,0,1,47.47,30a7.83,7.83,0,0,0,6.86-8,7.78,7.78,0,0,0-7.43-8H45v3.39a.63.63,0,0,1-.61.65H19.72a.63.63,0,0,1-.61-.65V6.65A.63.63,0,0,1,19.72,6H44.36a.63.63,0,0,1,.61.65V10H46.9C53,10,58,15.38,58,22c0,6.39-4.66,11.62-10.54,12A3,3,0,0,1,45,35.29v2a.64.64,0,0,1-.61.66H19.72a.64.64,0,0,1-.61-.66V33.9H17.19a7.79,7.79,0,0,0-7.43,8,7.85,7.85,0,0,0,6.66,8,3,3,0,0,1,2.49-1.33h.2v-2a.63.63,0,0,1,.61-.65H44.36a.63.63,0,0,1,.61.65V57.26a.64.64,0,0,1-.61.66H19.72a.64.64,0,0,1-.61-.66Z"/></g></g></g></g></svg>
