<svg viewBox="0 0 18 24" version="1.1" xmlns="http://www.w3.org/2000/svg"><path d="M15.75 9h-0.75v-2.25c0.006-0.103 0.009-0.222 0.009-0.343 0-3.401-2.645-6.185-5.99-6.406-3.384 0.221-6.028 3.005-6.028 6.406 0 0.121 0.003 0.241 0.010 0.36l-0.001 2.233h-0.75c-1.243 0-2.25 1.007-2.25 2.25v10.5c0 1.243 1.007 2.25 2.25 2.25h13.5c1.243 0 2.25-1.007 2.25-2.25v-10.5c0-1.243-1.007-2.25-2.25-2.25zM9.75 18c0 0.414-0.336 0.75-0.75 0.75s-0.75-0.336-0.75-0.75v-3c0-0.414 0.336-0.75 0.75-0.75s0.75 0.336 0.75 0.75zM13.5 9h-9v-2.25c-0.008-0.104-0.012-0.225-0.012-0.347 0-2.574 1.976-4.686 4.494-4.902 2.554 0.216 4.531 2.328 4.531 4.902 0 0.122-0.004 0.243-0.013 0.363z"/></svg>