<svg class="bk-icon" style="width: 1em; height: 1em;vertical-align: middle;fill: currentColor;overflow: hidden;" viewBox="0 0 64 64" version="1.1" xmlns="http://www.w3.org/2000/svg"><g><g><g><g><g><g><g><path  fill="#727985" d="M8,6.08H28a2,2,0,0,1,2,2v20a2,2,0,0,1-2,2H8a2,2,0,0,1-2-2v-20A2,2,0,0,1,8,6.08Zm27.94,0h20a2,2,0,0,1,2,2v20a2,2,0,0,1-2,2h-20a2,2,0,0,1-2-2v-20A2,2,0,0,1,35.94,6.08Zm0,27.91h20a2,2,0,0,1,2,2V56a2,2,0,0,1-2,2h-20a2,2,0,0,1-2-2V36A2,2,0,0,1,35.94,34ZM8,34H28a2,2,0,0,1,2,2V56a2,2,0,0,1-2,2H8a2,2,0,0,1-2-2V36A2,2,0,0,1,8,34Z"/></g></g></g></g></g></g></g></svg>