

<svg class="bk-icon" style="width: 1em; height: 1em;vertical-align: middle;fill: currentColor;overflow: hidden;" viewBox="0 0 1024 1024" version="1.1" xmlns="http://www.w3.org/2000/svg">























<path fill="#737987" d="M863.5,511.5c0-21-1.8-41.5-5.3-61.4l81.7-71.8c-8-25.9-18.4-50.8-30.7-74.4l-18.6-32.1
	C876.3,249.2,860,228,842,208.3L739.2,243c-31.6-26.9-68.1-48.2-107.9-62.6L610,73.9c-22.2-5-45.1-8.4-68.4-9.9h-60.2
	c-23,1.5-45.4,4.8-67.3,9.6L392.8,180c-40.1,14.4-76.8,35.8-108.7,62.8L181.3,208c-14.8,16-28.3,33.2-40.7,51.2l-33.5,58
	c-9.3,19.4-17.3,39.5-23.8,60.3l81.6,71.7c-3.6,20.2-5.5,41-5.5,62.2c0,21.5,1.9,42.6,5.6,63l-81.5,71.7c7.2,23,16.3,45.2,26.9,66.4
	l26,45c13.6,20.6,28.8,40.1,45.5,58.2l103-34.8c31.6,26.6,68,47.7,107.6,62l21.3,106.4c31.4,7,64.1,10.7,97.6,10.7
	c33.9,0,66.9-3.8,98.7-10.9l21.3-106.6c39.3-14.3,75.4-35.3,106.8-61.8l102.9,34.8c44.4-48.1,78.4-106,98.4-170L858,573.8
	C861.6,553.6,863.5,532.8,863.5,511.5z M511.5,671.5c-88.4,0-160-71.6-160-160s71.6-160,160-160s160,71.6,160,160
	S599.9,671.5,511.5,671.5z"/>





























































</svg>
