<svg viewBox="0 0 21 24" version="1.1" xmlns="http://www.w3.org/2000/svg"><path d="M3.615 5.1c2.066 0.506 4.438 0.797 6.877 0.797s4.811-0.29 7.083-0.838c2.18-0.558 3.425-1.518 3.425-2.058 0-1.005-3.705-3-10.5-3s-10.5 1.965-10.5 3c0 0.54 1.245 1.5 3.615 2.1z"/><path d="M17.565 18.945c-2.035 0.525-4.371 0.826-6.777 0.826-0.101 0-0.202-0.001-0.303-0.002-0.071 0.001-0.172 0.002-0.274 0.002-2.406 0-4.741-0.301-6.97-0.869-2.325 0.762-3.24 1.677-3.24 2.097 0 1.005 3.705 3 10.5 3s10.5-1.95 10.5-3c0-0.42-0.915-1.335-3.435-2.055z"/><path d="M17.565 12.855c-2.12 0.514-4.554 0.809-7.058 0.809s-4.937-0.295-7.27-0.852c-2.323 0.763-3.238 1.693-3.238 2.188 0 1.005 3.705 3 10.5 3s10.5-1.95 10.5-3c0-0.495-0.915-1.425-3.435-2.145z"/><path d="M17.565 6.81h-0.27c-2.039 0.521-4.381 0.821-6.793 0.825-0.063 0-0.134 0.001-0.206 0.001-2.338 0-4.612-0.279-6.788-0.806l-0.059 0.040c-2.535 0.63-3.45 1.59-3.45 2.040 0 1.005 3.705 3 10.5 3s10.5-1.965 10.5-3c0-0.45-0.915-1.41-3.435-2.1z"/></svg>