<?xml version="1.0" standalone="no"?><!DOCTYPE svg PUBLIC "-//W3C//DTD SVG 1.1//EN" "http://www.w3.org/Graphics/SVG/1.1/DTD/svg11.dtd"><svg t="1634886148589" class="icon" viewBox="0 0 1024 1024" version="1.1" xmlns="http://www.w3.org/2000/svg" p-id="2272" xmlns:xlink="http://www.w3.org/1999/xlink" width="16" height="16"><defs><style type="text/css"></style></defs><path d="M969.152 886.314667a42.666667 42.666667 0 0 1 42.666667 42.666666 42.773333 42.773333 0 0 1-39.082667 42.517334l-3.584 0.149333H54.826667a42.666667 42.666667 0 0 1-42.666667-42.666667c0-22.037333 16.789333-40.384 39.082667-42.517333l3.584-0.149333z m-185.386667-533.184a21.333333 21.333333 0 0 1 30.08-2.346667l168.512 143.957333a21.333333 21.333333 0 0 1 0 32.426667l-168.490666 144a21.333333 21.333333 0 0 1-35.2-16.213333V366.976a21.333333 21.333333 0 0 1 5.12-13.866667z m-151.125333 115.178666a42.666667 42.666667 0 0 1 42.666667 42.666667 42.773333 42.773333 0 0 1-39.082667 42.496l-3.584 0.170667H54.826667a42.666667 42.666667 0 0 1-42.666667-42.666667c0-22.037333 16.789333-40.405333 39.082667-42.517333l3.584-0.149334zM969.152 50.282667a42.666667 42.666667 0 0 1 42.666667 42.666666 42.773333 42.773333 0 0 1-39.082667 42.517334l-3.584 0.149333H54.826667a42.666667 42.666667 0 0 1-42.666667-42.666667c0-22.037333 16.789333-40.384 39.082667-42.496l3.584-0.170666z" p-id="2273"></path></svg>