<?xml version="1.0" encoding="utf-8"?>
<!-- Generator: Adobe Illustrator 24.0.0, SVG Export Plug-In . SVG Version: 6.00 Build 0)  -->
<svg version="1.1" id="图层_1" xmlns="http://www.w3.org/2000/svg" xmlns:xlink="http://www.w3.org/1999/xlink" x="0px" y="0px"
	 viewBox="0 0 20 20" style="enable-background:new 0 0 20 20;" xml:space="preserve">
<style type="text/css">
	.st0{fill:#D1D2D3;}
	.st1{fill:#A2A7AA;}
	.st2{fill:#CDD1D3;}
</style>
<path class="st0" d="M2,5.4l8-4.6l1,0.6L11.5,1L10,0.2L1.5,5.1v6.8H2V5.4z M10,19.2l-8-4.6v-1H1.5v1.4l8.5,4.9l5.8-3.3l-0.5-0.3
	L10,19.2z M12.9,1.8l-0.5,0.3L18,5.4v9.2l-1.4,0.8l0.5,0.3l1.4-0.8V5.1L12.9,1.8z"/>
<path class="st1" d="M10,10.1c0,0-2.6-1.5-2.6-1.5L10,10.1l6.2-3.6L13.7,5L13.6,5L7.4,8.6v1.8l0.1,0l2.6,1.5v0l6.2-3.6V6.5L10,10.1
	L10,10.1z"/>
<path class="st1" d="M7.4,11.3l-1.1-0.7L3.7,9.2V11l2.6,1.5l1.1,0.7l2.6,1.5l6.2-3.6V9.2L10,12.8L7.4,11.3z"/>
<path class="st1" d="M7.4,14.1l-3.7-2.1v1.8l3.7,2.1l2.6,1.5l6.2-3.6v-1.8L10,15.5C10,15.5,7.4,14.1,7.4,14.1z M3.8,6.5L3.8,6.5
	l0,1.8l2.6,1.5l0.1,0V8l6.2-3.6l-0.1,0L10,2.9L3.8,6.5z"/>
<polygon class="st2" points="7.4,8.6 13.6,5 16.2,6.5 10,10.1 "/>
<polygon class="st2" points="3.8,6.5 10,2.9 12.6,4.4 6.4,8 "/>
</svg>
