<?xml version="1.0" encoding="UTF-8"?>
<svg width="32px" height="32px" viewBox="0 0 32 32" version="1.1" xmlns="http://www.w3.org/2000/svg" xmlns:xlink="http://www.w3.org/1999/xlink">
    <title>Docker</title>
    <g id="Docker" stroke="none" stroke-width="1" fill="none" fill-rule="evenodd">
        <g id="docker" transform="translate(0.000000, 4.512821)" fill="#1488C6" fill-rule="nonzero">
            <path d="M6.42749909,18.5048763 C5.51537422,18.5048763 4.68826099,17.7591306 4.68826099,16.8546518 C4.68826099,15.9501731 5.43536327,15.2004341 6.42849923,15.2004341 C7.42563574,15.2004341 8.17573843,15.9461798 8.17573843,16.8536535 C8.17573843,17.7611272 7.34662492,18.503878 6.43550019,18.503878 L6.42749909,18.5048763 Z M27.7794222,9.50301669 C27.5993976,8.18223813 26.7792853,7.10704652 25.6991374,6.28143513 L25.2790799,5.94899427 L24.9400335,6.3613008 C24.2809433,7.10704652 24.0199075,8.4288234 24.0999185,9.41616277 C24.1799294,10.1639051 24.4199623,10.9066559 24.8390197,11.4846837 C24.4999732,11.6573932 24.081916,11.8171245 23.7588718,11.9868391 C22.9987677,12.235421 22.2596665,12.31928 21.5185651,12.31928 L0.128636767,12.31928 L0.0486258138,12.8114522 C-0.116771209,14.4204521 0.141440632,16.0446803 0.797728367,17.5235268 L1.12277287,18.102553 L1.12277287,18.1824186 C3.12304671,21.4878591 6.68353414,22.974359 10.561065,22.974359 C18.0210863,22.974359 24.1389238,19.7527774 27.0393209,12.8144471 C28.939581,12.8973078 30.8588438,12.4021406 31.7599671,10.5831999 L32,10.1708934 L31.5999452,9.92231147 C30.5197974,9.26441799 29.0395947,9.17656575 27.7994249,9.51000494 L27.7754216,9.5129999 L27.7794222,9.50301669 Z M17.1009603,8.18223813 L13.8635171,8.18223813 L13.8635171,11.4038197 L17.1039607,11.4038197 L17.1039607,8.18024149 L17.1009603,8.18423477 L17.1009603,8.18223813 Z M17.1009603,4.13205022 L13.8635171,4.13205022 L13.8635171,7.35363178 L17.1039607,7.35363178 L17.1039607,4.13604351 L17.1009603,4.13205022 Z M17.1009603,0 L13.8635171,0 L13.8635171,3.22158156 L17.1039607,3.22158156 L17.1039607,0 L17.1009603,0 L17.1009603,0 Z M21.0615025,8.18223813 L17.8420618,8.18223813 L17.8420618,11.4038197 L21.0695036,11.4038197 L21.0695036,8.18024149 L21.0605024,8.18423477 L21.0615025,8.18223813 Z M9.06185974,8.18223813 L5.84441927,8.18223813 L5.84441927,11.4038197 L9.07386138,11.4038197 L9.07386138,8.18024149 L9.0608596,8.18423477 L9.06185974,8.18223813 Z M13.1024129,8.18223813 L9.90197475,8.18223813 L9.90197475,11.4038197 L13.1214155,11.4038197 L13.1214155,8.18024149 L13.1014128,8.18423477 L13.1024129,8.18223813 Z M5.06131206,8.18223813 L1.8658746,8.18223813 L1.8658746,11.4038197 L5.10331781,11.4038197 L5.10331781,8.18024149 L5.06331233,8.18423477 L5.06131206,8.18223813 Z M13.1024129,4.13205022 L9.90197475,4.13205022 L9.90197475,7.35363178 L13.1214155,7.35363178 L13.1214155,4.13604351 L13.1014128,4.13205022 L13.1024129,4.13205022 Z M9.041857,4.13205022 L5.84941995,4.13205022 L5.84941995,7.35363178 L9.06686042,7.35363178 L9.06686042,4.13604351 L9.04585755,4.13205022 L9.041857,4.13205022 Z" id="形状"></path>
        </g>
    </g>
</svg>