<?xml version="1.0" encoding="utf-8"?>
<!-- Generator: Adobe Illustrator 24.0.0, SVG Export Plug-In . SVG Version: 6.00 Build 0)  -->
<svg version="1.1" id="图层_1" xmlns="http://www.w3.org/2000/svg" xmlns:xlink="http://www.w3.org/1999/xlink" x="0px" y="0px"
	 viewBox="0 0 16 16" style="enable-background:new 0 0 16 16;" xml:space="preserve">
<path d="M11.8,12.9h-0.6c-0.2,0-0.3-0.1-0.3-0.3s0.1-0.3,0.3-0.3h0.3v0l0.3,0h0c1.9,0,3.4-1.5,3.4-3.4s-1.5-3.4-3.4-3.4h0l-0.2,0
	l-0.1-0.2C11,3.5,9.5,2.4,7.8,2.4c-1.9,0-3.5,1.4-3.8,3.4L4,6L3.8,6c-1.7,0.1-3,1.4-3,3.1c0,1.7,1.4,3.1,3.1,3.1h1
	c0.2,0,0.3,0.1,0.3,0.3s-0.1,0.3-0.3,0.3h-1c-1,0-1.9-0.4-2.6-1.1C0.5,11,0.1,10.1,0.1,9.1c0-1,0.4-1.9,1.1-2.6
	c0.6-0.6,1.4-1,2.3-1.1c0.2-1,0.7-1.9,1.4-2.5c0.8-0.7,1.9-1.1,2.9-1.1c1,0,1.9,0.3,2.7,0.9c0.7,0.5,1.2,1.3,1.5,2.1
	c1,0,1.9,0.5,2.7,1.2c0.8,0.8,1.2,1.8,1.2,2.9s-0.4,2.1-1.2,2.9c-0.7,0.7-1.6,1.1-2.6,1.2v0C12.1,12.9,11.8,12.9,11.8,12.9z"/>
<path d="M7.7,7.4h0.6V13H7.7V7.4z"/>
<path d="M7.8,13.7l-1.5-1.5c-0.1-0.1-0.1-0.3,0-0.4s0.3-0.1,0.4,0l1.5,1.5c0.1,0.1,0.1,0.3,0,0.4C8.1,13.8,7.9,13.8,7.8,13.7z"/>
<path d="M9.3,11.7l-1.5,1.5c-0.1,0.1-0.1,0.3,0,0.4s0.3,0.1,0.4,0l1.5-1.5c0.1-0.1,0.1-0.3,0-0.4S9.4,11.6,9.3,11.7z"/>
</svg>
