<?xml version="1.0" standalone="no"?><!DOCTYPE svg PUBLIC "-//W3C//DTD SVG 1.1//EN" "http://www.w3.org/Graphics/SVG/1.1/DTD/svg11.dtd"><svg t="1630483758688" class="icon" viewBox="0 0 1024 1024" version="1.1" xmlns="http://www.w3.org/2000/svg" p-id="8631" xmlns:xlink="http://www.w3.org/1999/xlink" width="200" height="200"><defs><style type="text/css"></style></defs><path d="M628.928 21.184c-32.704 0-57.28 24.512-57.28 57.28s27.264 57.216 57.28 57.216a55.936 55.936 0 0 0 57.28-57.28c2.688-32.704-24.576-57.216-57.28-57.216z m0 289.024c-32.704 0-57.28 24.512-57.28 57.28s27.264 57.28 57.28 57.28a55.936 55.936 0 0 0 57.28-57.28c2.688-32.704-24.576-57.28-57.28-57.28z m0 289.024a55.936 55.936 0 0 0-57.28 57.28 57.6 57.6 0 0 0 57.28 57.28 55.936 55.936 0 0 0 57.28-57.28c2.688-32.704-24.576-57.28-57.28-57.28-30.016 0 0 0 0 0z m0 289.088a55.936 55.936 0 0 0-57.28 57.28 57.6 57.6 0 0 0 57.28 57.28 55.936 55.936 0 0 0 57.28-57.28c2.688-32.768-24.576-57.28-57.28-57.28-30.016 0 0 0 0 0zM378.048 21.184c-30.016 0-57.28 24.512-57.28 57.28s27.264 57.216 57.28 57.216a55.936 55.936 0 0 0 57.28-57.28c2.688-32.704-24.576-57.216-57.28-57.216z m0 289.024c-32.704 0-57.28 24.512-57.28 57.28s27.264 57.28 57.28 57.28a55.936 55.936 0 0 0 57.28-57.28c2.688-32.704-24.576-57.28-57.28-57.28z m0 289.024a55.936 55.936 0 0 0-57.28 57.28 57.6 57.6 0 0 0 57.28 57.28 55.936 55.936 0 0 0 57.28-57.28c2.688-32.704-24.576-57.28-57.28-57.28z m0 289.088a55.936 55.936 0 0 0-57.28 57.28 57.6 57.6 0 0 0 57.28 57.28 55.936 55.936 0 0 0 57.28-57.28c2.688-32.768-24.576-57.28-57.28-57.28z" p-id="8632"></path></svg>