<?xml version="1.0" standalone="no"?><!DOCTYPE svg PUBLIC "-//W3C//DTD SVG 1.1//EN" "http://www.w3.org/Graphics/SVG/1.1/DTD/svg11.dtd"><svg t="1630046609183" class="icon" viewBox="0 0 1024 1024" version="1.1" xmlns="http://www.w3.org/2000/svg" p-id="2789" xmlns:xlink="http://www.w3.org/1999/xlink" width="200" height="200"><defs><style type="text/css"></style></defs><path d="M6.794667 0m84.158619 0l684.882844 0q84.158619 0 84.158619 84.158619l0 714.191083q0 84.158619-84.158619 84.158619l-684.882844 0q-84.158619 0-84.158619-84.158619l0-714.191083q0-84.158619 84.158619-84.158619Z" fill="#DCDEE5" p-id="2790"></path><path d="M919.137219 170.757839a84.158619 84.158619 0 0 1 84.158619 84.158619V939.841381a84.158619 84.158619 0 0 1-84.158619 84.158619H234.233335a84.158619 84.158619 0 0 1-84.158619-84.158619V254.916458a84.158619 84.158619 0 0 1 84.158619-84.158619h684.903884z m-127.500309 606.194534H331.520699a36.819396 36.819396 0 0 0 0 73.638792h460.074132a36.819396 36.819396 0 0 0 0-73.638792z m0-158.702116H331.520699a36.819396 36.819396 0 0 0 0 73.638792h460.074132a36.819396 36.819396 0 0 0 0-73.638792z m-230.047585-158.681077H331.541739a36.819396 36.819396 0 0 0 0 73.638792h230.047586a36.819396 36.819396 0 0 0 0-73.638792z" fill="#B6BAC6" p-id="2791"></path></svg>