<svg width="200" height="180" viewBox="0 0 200 180" fill="none" xmlns="http://www.w3.org/2000/svg">
<rect width="200" height="180" fill="black"/>
<rect width="2500" height="1671" transform="translate(-820 -1315)" fill="white"/>
<circle cx="97.5258" cy="95.4256" r="77.5076" fill="#F5F7F9"/>
<path opacity="0.200293" fill-rule="evenodd" clip-rule="evenodd" d="M152.868 160.881C153.593 159.999 154.895 159.871 155.777 160.596C156.63 161.297 156.777 162.537 156.132 163.416L156.062 163.505L149.828 171.091C149.197 171.858 148.115 172.065 147.25 171.598L147.155 171.543L142.344 168.61L137.26 173.952C136.499 174.752 135.251 174.808 134.422 174.1L134.338 174.024C133.539 173.264 133.482 172.016 134.19 171.186L134.266 171.102L140.5 164.553C141.145 163.875 142.16 163.719 142.976 164.158L143.073 164.213L147.774 167.079L152.868 160.881Z" fill="#3A84FF"/>
<circle opacity="0.200293" cx="9.16717" cy="86.1246" r="5.16717" fill="#3A84FF"/>
<g filter="url(#filter0_d_1_402)">
<path d="M20.0182 48.9948H175.033V148.849C175.033 152.163 172.347 154.849 169.033 154.849H26.0182C22.7045 154.849 20.0182 152.163 20.0182 148.849V48.9948Z" fill="white"/>
</g>
<rect x="67.0395" y="65.4559" width="90.9422" height="5.16717" rx="1" fill="#DEE2E8"/>
<rect x="67.0395" y="73.7234" width="57.8723" height="2.58359" rx="1" fill="#DEE2E8"/>
<rect x="67.0395" y="94.3921" width="90.9422" height="5.16717" rx="1" fill="#DEE2E8"/>
<rect x="67.0395" y="102.66" width="57.8723" height="2.58359" rx="1" fill="#DEE2E8"/>
<rect opacity="0.500309" x="67.0395" y="123.328" width="90.9422" height="5.16717" rx="1" fill="#DEE2E8"/>
<rect opacity="0.500309" x="67.0395" y="131.596" width="57.8723" height="2.58359" rx="1" fill="#DEE2E8"/>
<path d="M42.5129 74.2575C42.0853 74.2575 41.6976 73.908 41.6976 73.484C41.6976 73.06 42.0478 72.7086 42.5134 72.7086C42.9808 72.7086 43.3324 73.0581 43.3324 73.4835C43.3324 73.9089 42.9437 74.2571 42.5166 74.2571L42.5129 74.2575ZM52.5216 70.0379C52.4372 69.4188 52.0528 68.9148 51.5465 68.5278L51.3496 68.372L51.1906 68.5652C50.8817 68.9148 50.7593 69.5344 50.7968 69.9972C50.8343 70.3477 50.9469 70.6959 51.1433 70.9668C50.9844 71.0478 50.7884 71.1227 50.637 71.2022C50.2807 71.3187 49.9342 71.358 49.5868 71.358H39.5603L39.5228 71.5887C39.4453 72.343 39.5663 73.1043 39.8739 73.7975L40.0263 74.0689V74.1064C40.9639 75.6558 42.6329 76.3526 44.4505 76.3526C47.9474 76.3526 50.8151 74.8425 52.1747 71.5901C53.0654 71.629 53.9651 71.3969 54.3875 70.5442L54.5 70.351L54.3125 70.2345C53.8062 69.9261 53.1123 69.8849 52.531 70.0412L52.5197 70.0426L52.5216 70.0379ZM47.5161 69.4188H45.9985V70.9289H47.5175V69.4179L47.5161 69.4197V69.4188ZM47.5161 67.5203H45.9985V69.0304H47.5175V67.5221L47.5161 67.5203ZM47.5161 65.5834H45.9985V67.0935H47.5175V65.5834H47.5161ZM49.3726 69.4188H47.8635V70.9289H49.3763V69.4179L49.3721 69.4197L49.3726 69.4188ZM43.7477 69.4188H42.2396V70.9289H43.7534V69.4179L43.7473 69.4197L43.7477 69.4188ZM45.6418 69.4188H44.1416V70.9289H45.6507V69.4179L45.6413 69.4197L45.6418 69.4188ZM41.8725 69.4188H40.3746V70.9289H41.8922V69.4179L41.8734 69.4197L41.8725 69.4188ZM45.6418 67.5203H44.1416V69.0304H45.6507V67.5221L45.6413 67.5203H45.6418ZM43.7384 67.5203H42.2419V69.0304H43.7501V67.5221L43.7402 67.5203H43.7384Z" fill="#1488C6"/>
<g filter="url(#filter1_d_1_402)">
<path d="M20.0182 42.003C20.0182 38.6893 22.7045 36.0031 26.0182 36.0031H169.033C172.347 36.0031 175.033 38.6893 175.033 42.0031V48.9948H20.0182V42.003Z" fill="#DEE2E8"/>
</g>
<circle cx="27.769" cy="42.4989" r="2.58359" fill="#FF3F3E"/>
<circle cx="37.0699" cy="42.4989" r="2.58359" fill="#FFBB49"/>
<circle cx="46.3708" cy="42.4989" r="2.58359" fill="#17C568"/>
<path opacity="0.2" d="M141.347 19.5675C138.724 16.9442 138.724 12.691 141.347 10.0678V10.0678C143.971 7.44448 148.224 7.44448 150.847 10.0678V10.0678C153.47 12.691 153.47 16.9442 150.847 19.5675V19.5675C148.224 22.1908 143.971 22.1908 141.347 19.5675V19.5675Z" fill="#00CBCF"/>
<g opacity="0.1" filter="url(#filter2_f_1_402)">
<path d="M183.781 113.031C181.763 111.013 181.763 107.741 183.781 105.723V105.723C185.799 103.705 189.07 103.705 191.088 105.723V105.723C193.106 107.741 193.106 111.013 191.088 113.031V113.031C189.07 115.049 185.799 115.049 183.781 113.031V113.031Z" fill="#00CBCF"/>
</g>
<g opacity="0.200293" filter="url(#filter3_f_1_402)">
<path fill-rule="evenodd" clip-rule="evenodd" d="M100.589 27.2555C98.5715 25.2376 98.5715 21.966 100.589 19.9481V19.9481C102.607 17.9302 105.879 17.9302 107.897 19.9481V19.9481C109.915 21.966 109.915 25.2376 107.897 27.2555V27.2555C105.879 29.2735 102.607 29.2735 100.589 27.2555V27.2555Z" fill="#3A84FF"/>
</g>
<path d="M44.0672 92.9797C44.7227 92.6487 45.4718 92.5553 46.1953 92.5213C46.7231 92.4704 47.2509 92.5213 47.7701 92.5638C48.4341 92.6487 49.1236 92.8015 49.6684 93.209C50.0089 93.4721 50.2812 93.8627 50.2812 94.3041C50.2727 95.4332 50.2812 96.5623 50.2727 97.6914C50.2727 98.1838 50.0855 98.6847 49.7109 99.0158C49.3449 99.3299 48.8682 99.4827 48.3915 99.5082H44.7653C44.2886 99.5166 43.7948 99.6525 43.4373 99.9921C43.0032 100.4 42.8159 101.011 42.833 101.597C42.833 102.157 42.8415 102.717 42.833 103.277C42.3988 103.277 41.9647 103.286 41.5306 103.277C40.9517 103.252 40.4495 102.887 40.1345 102.42C39.6749 101.707 39.5472 100.849 39.5131 100.018C39.5131 99.8817 39.4706 99.7289 39.5387 99.593C39.4876 99.4997 39.5216 99.3808 39.5216 99.2789C39.5642 98.4894 39.7174 97.6574 40.2197 97.0207C40.6112 96.5029 41.2752 96.2057 41.9306 96.2397C43.5395 96.2482 45.1483 96.2397 46.7486 96.2397V95.7898H43.2501C43.2501 95.204 43.2415 94.6182 43.2415 94.0324C43.2841 93.5485 43.6672 93.192 44.0672 92.9797ZM44.561 93.7014C44.1268 93.8542 44.0417 94.5079 44.4248 94.7625C44.7908 95.0427 45.3867 94.7625 45.3952 94.3041C45.4462 93.8796 44.9525 93.5231 44.561 93.7014Z" fill="#3774A7"/>
<path d="M51.1965 96.7235H52.2806C52.8098 96.6809 53.3391 96.9278 53.6891 97.3194C54.2354 97.9408 54.3976 98.775 54.5 99.5666V100.988C54.4061 101.771 54.2098 102.605 53.6378 103.184C53.2537 103.559 52.7159 103.789 52.1781 103.763C50.5392 103.755 48.9002 103.763 47.2527 103.763V104.214H50.7611C50.7611 104.785 50.7611 105.346 50.7697 105.917C50.7867 106.368 50.4538 106.734 50.0868 106.955C49.3953 107.364 48.5673 107.432 47.7905 107.5H46.8686C46.0662 107.432 45.2211 107.347 44.5126 106.913C44.0773 106.657 43.7358 106.198 43.7188 105.687C43.7273 104.555 43.7102 103.423 43.7273 102.291C43.7358 101.822 43.898 101.346 44.248 101.022C44.6321 100.665 45.1614 100.503 45.6821 100.477H49.2673C49.7624 100.477 50.2746 100.316 50.616 99.9582C51.0001 99.5751 51.1709 99.0303 51.1879 98.494C51.1965 97.9152 51.1879 97.3194 51.1965 96.7235ZM49.0624 105.168C48.9088 105.219 48.7637 105.321 48.6868 105.466C48.5161 105.781 48.6783 106.223 49.0283 106.325C49.3953 106.479 49.8563 106.155 49.8307 105.755C49.8734 105.372 49.4295 105.04 49.0624 105.168Z" fill="#FFD140"/>
<path d="M39.5 135.5V120.5H54.5V135.5H39.5ZM42.3211 123.311V132.666H47.0484V125.262H49.8032V132.668H51.6786V123.311H42.3211Z" fill="#CB3837"/>
<defs>
<filter id="filter0_d_1_402" x="0.0182343" y="30.9948" width="195.015" height="145.855" filterUnits="userSpaceOnUse" color-interpolation-filters="sRGB">
<feFlood flood-opacity="0" result="BackgroundImageFix"/>
<feColorMatrix in="SourceAlpha" type="matrix" values="0 0 0 0 0 0 0 0 0 0 0 0 0 0 0 0 0 0 127 0" result="hardAlpha"/>
<feOffset dy="2"/>
<feGaussianBlur stdDeviation="10"/>
<feColorMatrix type="matrix" values="0 0 0 0 0.181559 0 0 0 0 0.403917 0 0 0 0 0.747561 0 0 0 0.12 0"/>
<feBlend mode="normal" in2="BackgroundImageFix" result="effect1_dropShadow_1_402"/>
<feBlend mode="normal" in="SourceGraphic" in2="effect1_dropShadow_1_402" result="shape"/>
</filter>
<filter id="filter1_d_1_402" x="0.0182343" y="12.0031" width="195.015" height="52.9917" filterUnits="userSpaceOnUse" color-interpolation-filters="sRGB">
<feFlood flood-opacity="0" result="BackgroundImageFix"/>
<feColorMatrix in="SourceAlpha" type="matrix" values="0 0 0 0 0 0 0 0 0 0 0 0 0 0 0 0 0 0 127 0" result="hardAlpha"/>
<feOffset dy="-4"/>
<feGaussianBlur stdDeviation="10"/>
<feColorMatrix type="matrix" values="0 0 0 0 0.0313726 0 0 0 0 0.117647 0 0 0 0 0.25098 0 0 0 0.08 0"/>
<feBlend mode="normal" in2="BackgroundImageFix" result="effect1_dropShadow_1_402"/>
<feBlend mode="normal" in="SourceGraphic" in2="effect1_dropShadow_1_402" result="shape"/>
</filter>
<filter id="filter2_f_1_402" x="176.831" y="98.7733" width="21.2075" height="21.2074" filterUnits="userSpaceOnUse" color-interpolation-filters="sRGB">
<feFlood flood-opacity="0" result="BackgroundImageFix"/>
<feBlend mode="normal" in="SourceGraphic" in2="BackgroundImageFix" result="shape"/>
<feGaussianBlur stdDeviation="2.71828" result="effect1_foregroundBlur_1_402"/>
</filter>
<filter id="filter3_f_1_402" x="93.6394" y="12.9981" width="21.2075" height="21.2074" filterUnits="userSpaceOnUse" color-interpolation-filters="sRGB">
<feFlood flood-opacity="0" result="BackgroundImageFix"/>
<feBlend mode="normal" in="SourceGraphic" in2="BackgroundImageFix" result="shape"/>
<feGaussianBlur stdDeviation="2.71828" result="effect1_foregroundBlur_1_402"/>
</filter>
</defs>
</svg>
