<?xml version="1.0" encoding="utf-8"?>
<!-- Generator: Adobe Illustrator 24.0.0, SVG Export Plug-In . SVG Version: 6.00 Build 0)  -->
<svg version="1.1" id="图层_1" xmlns="http://www.w3.org/2000/svg" xmlns:xlink="http://www.w3.org/1999/xlink" x="0px" y="0px"
	 viewBox="0 0 16 16" style="enable-background:new 0 0 16 16;" xml:space="preserve">
<path fill="#3A84FF" d="M13.7,13.2L0.4,13.3V3.9h12.3c0.5,0,1,0.4,1,1v7C13.7,11.9,13.7,13.2,13.7,13.2z M8.7,3.9C8.7,3,8,2.2,7.1,2.2
	H0.4v1.7H8.7"/>
<path fill="#F4EFDC" d="M3.2,6.3C3.3,6.2,3.5,6,3.6,6h10.1V3.7H2.9L1.4,5.2v6.1C1.4,11.3,3.2,6.3,3.2,6.3z"/>
<path fill="#D1BF86" d="M7.6,5.1h0.7v1H7.6C7.6,6.1,7.6,5.1,7.6,5.1z M9.3,5.1H10v1H9.3V5.1z M11.1,5.1h0.7v1h-0.7V5.1z M4.2,5.1h0.7v1
	H4.2C4.2,6.1,4.2,5.1,4.2,5.1z M5.9,5.1h0.7v1H5.9V5.1z M3,5.3V3.7L1.5,5.3H3z"/>
<path fill="#3A84FF" d="M13.8,12.9l2-6.5c0.1-0.5-0.1-0.8-0.6-0.8H3.5C3,5.6,2.6,6,2.4,6.4l-2,6.5c-0.2,0.6,0.1,1,0.7,1h11.3
	C13,13.9,13.6,13.5,13.8,12.9z"/>
</svg>
