<?xml version="1.0" encoding="UTF-8"?>
<svg width="32px" height="32px" viewBox="0 0 32 32" version="1.1" xmlns="http://www.w3.org/2000/svg" xmlns:xlink="http://www.w3.org/1999/xlink">
    <title>Generic</title>
    <g id="Generic" stroke="none" stroke-width="1" fill="none" fill-rule="evenodd">
        <g id="编组" fill-rule="nonzero">
            <g id="文件" transform="translate(0.000000, 2.428208)">
                <path d="M29.8727047,27.1435715 L2.12732359,27.1435715 C1.34645468,27.1435715 0.00340630944,25.8254838 0.00340630944,25.0771463 L0.00340630944,3.77469095 C0.00340630944,3.02973454 0.633866064,2.42455633 1.41102987,2.42455633 L30.5923764,2.42455633 C31.3732454,2.42455633 32,3.02635025 32,3.77469095 L32,25.0805117 C32,25.8219266 30.6498654,27.1435715 29.8727016,27.1435715 L29.8727047,27.1435715 Z" id="路径" fill="#3377E5"></path>
                <path d="M30.3616534,7.9820878 L1.6338687,7.9820878 C0.727661435,7.9820878 0,7.79825448 0,7.5696547 L0,1.98345992 C0,1.75589396 0.731773156,1.57102682 1.6338687,1.57102682 L30.3657432,1.57102682 C31.2723266,1.57102682 32,1.75486014 32,1.98345992 L32,7.5696547 C32.0039106,7.7960898 31.2678387,7.9820878 30.3616278,7.9820878 L30.3616534,7.9820878 Z" id="路径" fill-opacity="0.2" fill="#E4FDFF"></path>
                <path d="M17.6491806,8.22286558 L0,8.22286558 L0,1.35013462 C0,0.605178208 0.630299347,0 1.40762356,0 L14.0034513,0 C14.626504,0 15.1745109,0.386809554 15.3535859,0.959940775 L17.6491806,8.22286558 L17.6491806,8.22286558 Z" id="路径" fill="#68A1FF"></path>
                <path d="M28.3721672,25.4710515 L3.62801835,25.4710515 C2.84747339,25.4710515 2.2207156,24.8692576 2.2207156,24.1209169 L2.2207156,5.83403618 C2.2207156,5.08907977 2.85101495,4.48390156 3.62801835,4.48390156 L28.3756899,4.48390156 C29.1565588,4.48390156 29.7833269,5.08569548 29.7833269,5.83403618 L29.7833269,24.1209169 C29.7866952,24.8621714 29.1526933,25.4710515 28.3721452,25.4710515 L28.3721672,25.4710515 Z" id="路径" fill="#FFFFFF"></path>
                <path d="M29.8727047,27.1435715 L2.12732359,27.1435715 C1.34645468,27.1435715 0.00340630944,26.4164895 0.00340630944,25.0771463 L0.00340630944,8.36600606 C0.00340630944,7.62104965 0.633866064,7.01587144 1.41102987,7.01587144 L30.5923764,7.01587144 C31.3732454,7.01587144 32,7.61766536 32,8.36600606 L32,25.0805117 C32,26.7280804 30.6498654,27.1435715 29.8727016,27.1435715 L29.8727047,27.1435715 Z" id="路径" fill="#3A84FF"></path>
                <polygon id="路径" fill="#3377E5" opacity="0.304863" points="23.3903374 27.1435715 12.1088796 11.7935397 3.01205192 12.1838939 6.48239872 16.6141721 3.01205192 16.7645806 11.1312091 27.1363368 23.390306 27.1435834"></polygon>
                <path d="M11.4032106,12.5885654 L3.65670306,12.5885654 C3.26989351,12.5885654 2.95120071,12.2840445 2.95120071,11.9152704 C2.95120071,11.5427906 3.26634881,11.2419755 3.65670306,11.2419755 L11.4032106,11.2419755 C11.7900201,11.2419755 12.1088733,11.5464964 12.1088733,11.9152704 C12.1088733,12.2877502 11.7900201,12.5885654 11.4032106,12.5885654 Z M11.4032106,17.1692495 L3.65670306,17.1692495 C3.26989351,17.1692495 2.95120071,16.8647286 2.95120071,16.4959546 C2.95120071,16.1234748 3.26634881,15.8226596 3.65670306,15.8226596 L11.4032106,15.8226596 C11.7900201,15.8226596 12.1088733,16.1270195 12.1088733,16.4959546 C12.1088733,16.8684343 11.7900201,17.1692495 11.4032106,17.1692495 Z" id="形状" fill="#68A1FF"></path>
            </g>
        </g>
    </g>
</svg>