<?xml version="1.0" encoding="utf-8"?>
<!-- Generator: Adobe Illustrator 24.0.0, SVG Export Plug-In . SVG Version: 6.00 Build 0)  -->
<svg version="1.1" id="图层_1" xmlns="http://www.w3.org/2000/svg" xmlns:xlink="http://www.w3.org/1999/xlink" x="0px" y="0px"
	 viewBox="0 0 20 20" style="enable-background:new 0 0 20 20;" xml:space="preserve">
<style type="text/css">
	.st0{fill:#E64A19;}
</style>
<path class="st0" d="M1.147,8.672l5.444-5.453L8.182,4.82c-0.226,0.801,0.141,1.676,0.876,2.1v5.218
	c-0.565,0.32-0.942,0.932-0.942,1.629c0,1.04,0.843,1.884,1.884,1.884l0,0c1.04,0,1.884-0.843,1.884-1.884c0,0,0,0,0,0
	c0-0.697-0.377-1.309-0.942-1.629V7.561l1.95,1.968C12.825,9.67,12.825,9.83,12.825,10c0,1.04,0.843,1.884,1.884,1.884c0,0,0,0,0,0
	c1.04,0,1.884-0.843,1.884-1.884c0,0,0,0,0,0c0-1.04-0.843-1.884-1.884-1.884l0,0c-0.17,0-0.33,0-0.471,0.066l-2.42-2.42
	c0.242-0.902-0.221-1.844-1.083-2.204C10.33,3.407,9.906,3.37,9.529,3.473L7.928,1.882l0.744-0.735c0.735-0.744,1.921-0.744,2.656,0
	l7.525,7.525c0.744,0.735,0.744,1.921,0,2.656l-7.525,7.525c-0.735,0.744-1.921,0.744-2.656,0l-7.525-7.525
	C0.403,10.593,0.403,9.407,1.147,8.672z"/>
</svg>
