<?xml version="1.0" encoding="utf-8"?>
<!-- Generator: Adobe Illustrator 24.0.0, SVG Export Plug-In . SVG Version: 6.00 Build 0)  -->
<svg version="1.1" id="图层_1" xmlns="http://www.w3.org/2000/svg" xmlns:xlink="http://www.w3.org/1999/xlink" x="0px" y="0px"
	 viewBox="0 0 16 16" style="enable-background:new 0 0 16 16;" xml:space="preserve">
<path d="M13.1,10.5c0,2.3,0,4.1-3.3,4.1c-1.4,0-2.3-0.3-2.9-1L3.4,9.8c-0.3-0.3-0.2-0.8,0-1c0.3-0.3,0.7-0.3,1,0
	c0.6,0.7,1.2,1.3,1.9,2V3.7C6.2,3.3,6.5,3,6.8,3c0.3,0,0.6,0.3,0.6,0.7v4.5h0c0,0,0,0,0,0.1c0,0.2,0.2,0.4,0.3,0.4
	c0.2,0,0.3-0.2,0.3-0.4c0,0,0,0,0-0.1h0V6.4c0-0.4,0.2-0.7,0.6-0.7c0,0,0.6,0,0.6,0.7v2.4h0c0,0,0,0,0,0.1c0,0.2,0.2,0.4,0.3,0.4
	c0.2,0,0.3-0.2,0.3-0.4c0,0,0,0,0-0.1h0V7.1c0-0.4,0.2-0.7,0.6-0.7c0,0,0.6,0,0.6,0.7v2.1h0c0,0,0,0,0,0.1c0,0.2,0.2,0.4,0.3,0.4
	s0.3-0.2,0.3-0.4c0,0,0,0,0-0.1h0V7.8c0-0.4,0.3-0.7,0.6-0.7c0,0,0.6,0,0.6,0.7L13.1,10.5L13.1,10.5 M12.6,6.4L12.6,6.4
	c-0.3,0-0.5,0.1-0.7,0.2c-0.2-0.6-0.6-1-1.2-1c-0.3,0-0.5,0.1-0.7,0.2c-0.2-0.6-0.6-1-1.2-1C8.5,4.9,8.3,5,8.1,5.1V3.6
	c0-0.8-0.6-1.4-1.3-1.4S5.5,2.9,5.5,3.6v5.5L4.7,8.2c-0.5-0.6-1.4-0.5-1.9,0c-0.4,0.5-0.7,1.4-0.1,2.1l3.7,3.9
	c0.1,0.1,0.2,0.1,0.3,0.2c0.7,0.6,1.5,0.9,3.1,0.9c3.8,0,4.1-2.2,4.1-4.8V7.8C13.9,7,13.4,6.4,12.6,6.4"/>
<path d="M4.7,5.1C4.6,5.1,4.5,5,4.4,4.9C4.1,4.5,4,4,4,3.4c0-1.6,1.3-2.9,2.9-2.9s2.9,1.3,2.9,2.9c0,0.2,0,0.4-0.1,0.6
	c0,0.2-0.2,0.3-0.4,0.3C9.1,4.3,9,4.1,9,3.9c0,0,0,0,0,0c0-0.1,0-0.3,0-0.4c0-1.2-1-2.2-2.2-2.2s-2.2,1-2.2,2.2
	c0,0.4,0.1,0.8,0.3,1.1C5.1,4.7,5.1,5,4.9,5.1C4.9,5.1,4.8,5.1,4.7,5.1"/>
</svg>
