<?xml version="1.0" encoding="UTF-8"?>
<svg width="32px" height="32px" viewBox="0 0 32 32" version="1.1" xmlns="http://www.w3.org/2000/svg" xmlns:xlink="http://www.w3.org/1999/xlink">
    <title>Helm</title>
    <g id="Helm" stroke="none" stroke-width="1" fill="none" fill-rule="evenodd">
        <g id="helm-(1)" transform="translate(0.669610, 0.000000)" fill="#00ACC1" fill-rule="nonzero">
            <path d="M15.0989656,31.8861023 C14.8680143,31.7261234 14.5948285,31.1949935 14.4392709,30.6041769 C14.3008164,30.0782827 14.2483433,28.6925746 14.3410729,28.0127517 C14.375512,27.7599269 14.3951749,27.5445662 14.3845872,27.5339785 C14.3741158,27.5235071 14.1592206,27.4899988 13.9072102,27.4595156 C12.4551836,27.2845278 10.9051919,26.7909784 9.72530395,26.1277932 C9.4750388,25.9871281 9.24059703,25.8720597 9.2044127,25.8720597 C9.16811203,25.8720597 9.04071066,26.0604275 8.92110465,26.2906808 C8.36519257,27.3609686 7.39426617,28.4236938 6.65626902,28.7697136 C6.38680639,28.8959515 6.02787195,28.9267837 5.86172663,28.837661 C5.61134514,28.7035114 5.53711492,28.1721488 5.68673882,27.5837756 C5.7891253,27.1808615 6.20064918,26.3332643 6.53433603,25.8378533 C6.68174929,25.6191185 6.97273636,25.2482002 7.18123247,25.0135257 L7.56017881,24.5868766 L7.36261942,24.3981596 C6.84207721,23.9007707 5.86451896,22.7504353 5.86451899,22.6352505 C5.86451899,22.5939469 7.19833567,21.6674655 7.29548648,21.6411708 C7.34493451,21.6277908 7.46442418,21.746117 7.62614829,21.9683422 C7.97670565,22.4502567 8.91389105,23.3769708 9.46526554,23.7868658 C13.6691616,26.912097 19.5945468,26.1270951 22.7848166,22.0224441 C22.9543361,21.8042911 23.1194343,21.6259292 23.1516628,21.6259292 C23.2156543,21.6259292 24.5356256,22.5208802 24.5815831,22.5953431 C24.6227704,22.6620106 24.0457993,23.409781 23.552948,23.928578 C23.3190879,24.174771 23.1278113,24.3962981 23.1281604,24.4207312 C23.1283931,24.4451644 23.3122234,24.6586634 23.5365429,24.8951995 C24.2485943,25.645995 24.9494764,26.8180875 25.144127,27.5838919 C25.2936346,28.1721488 25.2194044,28.7035114 24.9690229,28.8377773 C24.9150373,28.866748 24.7715799,28.890134 24.6503449,28.8899014 C23.8831444,28.8881561 22.6106432,27.6559115 21.8553102,26.1834077 C21.7098748,25.8995179 21.5692098,25.667403 21.5429151,25.667403 C21.5166204,25.667403 21.3683927,25.7486141 21.2136495,25.8477429 C20.1164852,26.5508355 18.4783014,27.1573591 17.0611794,27.385169 C16.7598373,27.4335699 16.4885131,27.4923258 16.4581462,27.5158282 C16.4189369,27.5460787 16.4240562,27.6880236 16.4755985,28.0069343 C16.56763,28.5758773 16.5321437,29.9270299 16.4107925,30.4734014 C16.2854854,31.0373416 16.0931616,31.474462 15.8558112,31.7339187 C15.5832072,32.0322357 15.3711043,32.0748192 15.0988493,31.8862186 L15.0989656,31.8861023 Z M0.014876534,20.3862383 C0.00126378483,20.3505193 -0.00397188794,18.4795226 0.00324168293,16.2286488 L0.0165053873,12.1359818 L2.16173497,12.1359818 L2.17523139,13.642692 C2.18547002,14.7697578 2.20466749,15.1592918 2.25190488,15.1893096 C2.28657666,15.2114158 2.82352398,15.2297988 3.44505652,15.2302643 C4.32546394,15.230846 4.58771299,15.2159534 4.63180895,15.1627822 C4.66950579,15.1172901 4.69277546,14.6023326 4.70185063,13.6153501 L4.71546337,12.1359818 L6.86046025,12.1359818 L6.86046025,20.4235861 L4.71534704,20.4235861 L4.70173429,18.8420639 C4.69265912,17.7792224 4.6697385,17.2380865 4.63169261,17.1922453 C4.58759662,17.1389578 4.32395142,17.1238325 3.43842467,17.1238325 C2.55289792,17.1238325 2.28925272,17.1389578 2.24515669,17.1921289 C2.20722714,17.2380865 2.18419018,17.7792223 2.17511505,18.8419475 L2.16161864,20.4235861 L1.10052232,20.4374315 C0.279568868,20.4481356 0.0339576298,20.4365007 0.014876534,20.3862383 L0.014876534,20.3862383 Z M8.69725056,20.3856565 C8.68375415,20.3502867 8.67863485,18.4795227 8.68584842,16.2285325 L8.69911213,12.1358654 L14.0108765,12.1358654 L14.0248383,13.0431493 L14.0388001,13.9505495 L12.4670512,13.9640459 L10.8954186,13.9775423 L10.8808751,14.58744 C10.870171,15.0408493 10.8832021,15.2079254 10.9320683,15.2389904 C10.9680199,15.2617946 11.578383,15.2808758 12.2883402,15.2813411 L13.579108,15.2821556 L13.5651462,16.1901376 L13.5511844,17.0982359 L12.2233015,17.1238325 L10.8954186,17.1494291 L10.8954186,18.5817928 L12.5297629,18.6073894 L14.1641072,18.632986 L14.1641072,20.4235861 L11.4429536,20.4367334 C9.29330276,20.4472048 8.71679704,20.4365007 8.6973669,20.3855402 L8.69725056,20.3856565 Z M15.8476668,20.3856565 C15.8341704,20.3502867 15.8290511,18.4795227 15.8362647,16.2285325 L15.8495284,12.1358654 L17.9944089,12.1358654 L18.0200055,15.3588291 L18.0456021,18.5817928 L19.6032729,18.6073894 L21.16106,18.632986 L21.16106,20.4235861 L18.5166963,20.4367334 C16.4282447,20.4472048 15.8668643,20.4365007 15.8476668,20.3855402 L15.8476668,20.3856565 Z M22.6400794,20.3851911 C22.6268157,20.3500539 22.6216963,18.4795226 22.6290263,16.2286488 L22.6421736,12.1359818 L23.7658653,12.1234161 C24.383791,12.1164352 24.9148046,12.1280701 24.9458696,12.1490128 C25.021496,12.200206 26.1558917,15.2898346 26.4060405,16.1262624 C26.666428,16.9965475 26.6461834,16.9450052 26.7050556,16.8860166 C26.7327465,16.8583257 26.853516,16.5148656 26.9735874,16.1227719 C27.2379307,15.2588859 28.2837854,12.2639648 28.3527799,12.1734459 C28.3905931,12.1236488 28.6659895,12.1117813 29.531388,12.1222526 L30.6607807,12.1359818 L30.6607807,20.4237024 L29.7043979,20.4376642 L28.748015,20.4515096 L28.7141577,20.3161966 C28.6436506,20.0349828 28.7382418,17.0742681 28.8447004,16.2286488 C29.012242,14.8978572 28.9866454,14.8772636 28.5918756,16.0238759 C28.1648774,17.2640322 27.3157677,19.5441094 27.234673,19.6690675 C27.1650967,19.7761079 27.1233276,19.7841359 26.6310581,19.7841359 C26.2686332,19.7841359 26.0865481,19.7640077 26.0523417,19.7201444 C25.9890483,19.639166 24.9464513,16.8015478 24.6615144,15.9349858 C24.4604645,15.3236919 24.3510972,15.1034446 24.354704,15.3175255 C24.3556348,15.3683697 24.4025231,15.7898995 24.4590684,16.2541291 C24.564829,17.1237161 24.6582566,20.0389387 24.5891458,20.3146841 L24.5555211,20.4490663 L23.6099586,20.4490663 C22.9006995,20.4490663 22.6584624,20.4330103 22.6401957,20.3850748 L22.6400794,20.3851911 Z M23.3158302,10.9363146 C23.1145477,10.5950651 22.6084326,9.95817466 22.1801546,9.50755776 C20.8008458,8.05576392 19.1397414,7.13824138 17.1006214,6.70146993 C16.5167858,6.57639554 16.3618098,6.56452801 15.2874498,6.5620847 C14.0226277,6.55940868 13.7440899,6.59082271 12.7644374,6.84737068 C11.4382997,7.1946703 10.2292083,7.81096714 9.15857149,8.68520812 C8.6438467,9.10557446 7.82405672,9.97015852 7.47384839,10.4619627 C7.25802234,10.7649336 7.14946939,10.8770933 7.09269142,10.8554526 C6.90653417,10.7847128 5.66009505,9.94677252 5.66079313,9.89290327 C5.66253836,9.77178471 6.50210756,8.71871643 7.0718651,8.12324591 L7.66116911,7.50706545 L7.27140238,7.08448847 C6.55935092,6.31228492 5.87661919,5.16148411 5.68638978,4.41301562 C5.53688225,3.82464237 5.61111243,3.29327977 5.86149392,3.15901387 C5.91547954,3.13004315 6.05893694,3.10665714 6.18017187,3.10688985 C6.94737242,3.10863508 8.21998992,4.3408797 8.9752066,5.81338353 C9.12064197,6.09727333 9.25781656,6.32938815 9.27992276,6.32938815 C9.30202892,6.32938815 9.50156624,6.22572183 9.72344239,6.09901855 C10.8641209,5.44793357 12.6954429,4.86770472 13.942231,4.76252585 C14.1574753,4.74437552 14.3605031,4.71284514 14.3934297,4.69236783 C14.4386892,4.66444425 14.4320573,4.52715328 14.3662042,4.13296531 C14.2449693,3.40648664 14.2825497,1.98377989 14.4386891,1.39273062 C14.6860455,0.456010611 15.0832586,-0.068720137 15.4876852,0.00725530364 C15.86477,0.0782277454 16.230569,0.693710155 16.4209148,1.57772439 C16.5450584,2.1546955 16.5483161,3.77728864 16.4263831,4.30876758 C16.3811236,4.50574521 16.3592502,4.68271095 16.3776332,4.70202475 C16.3960162,4.72145493 16.6409294,4.77346261 16.9217941,4.81767494 C18.5495066,5.07375749 19.7839618,5.52798117 21.2968385,6.4278188 C21.3996904,6.48890165 21.4966085,6.51845412 21.5120828,6.49332286 C21.5275571,6.4681916 21.6670587,6.19384238 21.822151,5.88365788 C22.4207628,4.68596869 23.3843593,3.59764688 24.1742478,3.22719395 C24.4437104,3.10095605 24.8026449,3.07012377 24.9687902,3.15924654 C25.2191717,3.2933961 25.2934019,3.8247587 25.143778,4.41313199 C25.0346433,4.84268983 24.614626,5.69098515 24.2383557,6.24212694 C24.0626698,6.49937299 23.7058296,6.92520768 23.4454422,7.1883875 L22.9721374,7.66692795 L23.4378795,8.16198989 C23.9086247,8.66252021 24.7401658,9.7240819 24.8924657,10.0189084 C24.9613439,10.1523599 24.9636709,10.1895914 24.9066602,10.2421808 C24.7898465,10.3498029 23.5339832,11.0872183 23.467432,11.0872183 C23.4328765,11.0872183 23.3645801,11.0192709 23.3157138,10.9363146 L23.3158302,10.9363146 Z" id="形状"></path>
        </g>
    </g>
</svg>