<?xml version="1.0" encoding="UTF-8"?>
<svg width="14px" height="14px" viewBox="0 0 14 14" version="1.1" xmlns="http://www.w3.org/2000/svg" xmlns:xlink="http://www.w3.org/1999/xlink">
    <g id="仓库权限设置" stroke="none" stroke-width="1">
        <g id="权限管理" transform="translate(-380.000000, -423.000000)">
            <g id="编组-2" transform="translate(210.000000, 410.000000)">
                <g id="编辑" transform="translate(170.000000, 13.000000)">
                    <path d="M7.61729958,0.360839811 C7.94613466,0.360839811 8.21270816,0.627413309 8.21270816,0.956248385 C8.21270816,1.24839022 8.0014422,1.49413502 7.71358818,1.54332323 L7.66752072,1.54943446 L7.61729958,1.55165696 L1.41954841,1.55165696 C1.38491053,1.55165696 1.35479044,1.5730886 1.3431006,1.59804944 L1.33840963,1.61330622 L1.33665048,1.63455489 L1.33665048,12.5804516 C1.33665048,12.6150895 1.35808212,12.6452096 1.38304296,12.6568994 L1.39829975,12.6615904 L1.41954841,12.6633495 L12.3654451,12.6633495 C12.400083,12.6633495 12.4302031,12.6419179 12.4418929,12.616957 L12.4465839,12.6017003 L12.448343,12.5804516 L12.448343,6.38270042 C12.448343,6.05386534 12.7149165,5.78729184 13.0437516,5.78729184 C13.3358935,5.78729184 13.5816383,5.9985578 13.6308265,6.28641182 L13.6369377,6.33247928 L13.6391602,6.38270042 L13.6391602,12.5804516 C13.6391602,13.2389377 13.1382352,13.7842931 12.4885091,13.8480933 L12.4271721,13.8526525 L12.3654451,13.8541667 L1.41954841,13.8541667 C0.761062288,13.8541667 0.215706859,13.3532417 0.151906735,12.7035156 L0.147347524,12.6421785 L0.145833333,12.5804516 L0.145833333,1.63455489 C0.145833333,0.976068765 0.646758329,0.430713336 1.29648444,0.366913213 L1.35782146,0.362354001 L1.41954841,0.360839811 L7.61729958,0.360839811 Z M11.0712327,0.408009493 C11.3901239,0.0891182578 11.8928495,0.0595878034 12.2453496,0.327822512 L12.2942757,0.367941993 L12.3371312,0.408009493 L13.5919905,1.66286884 C13.9114363,1.98231467 13.940514,2.48623484 13.6677291,2.84220961 L13.632058,2.88591186 L13.5919905,2.92876733 L6.51860339,10.0021544 C6.39775506,10.1230028 6.24526728,10.2063178 6.07543987,10.2436071 L6.01096972,10.2554166 L5.94519701,10.262348 L4.25892999,10.3747658 C3.93441365,10.3964003 3.65647946,10.1543805 3.62655842,9.83221668 L3.62403447,9.78780573 L3.62523416,9.74107001 L3.73765196,8.05480299 C3.74902042,7.88427618 3.80891583,7.72116131 3.91216879,7.58126611 L3.95291095,7.5299247 L3.99784556,7.48139661 L11.0712327,0.408009493 Z M11.704,1.458625 L4.918375,8.24425 L4.85858333,9.14083333 L5.75516667,9.08104167 L12.5407917,2.295125 L11.704,1.458625 Z" id="形状结合"></path>
                </g>
            </g>
        </g>
    </g>
</svg>