<?xml version="1.0" encoding="UTF-8"?>
<svg width="12px" height="12px" viewBox="0 0 12 12" version="1.1" xmlns="http://www.w3.org/2000/svg" xmlns:xlink="http://www.w3.org/1999/xlink">
    <g id="页面-1" stroke="none" stroke-width="1" fill-rule="evenodd">
        <g id="扫描计划-详情" transform="translate(-380.000000, -480.000000)" fill-rule="nonzero">
            <g id="编组-9" transform="translate(210.000000, 334.000000)">
                <g id="编组" transform="translate(170.000000, 146.000000)">
                    <path d="M2.56538462,1.2625 C2.83465299,1.2625 3.05480769,1.48265471 3.05480769,1.75192308 C3.05480769,1.91035122 2.97119748,2.05827699 2.83765643,2.16510749 C1.7077317,3.08749502 1.04375,4.46929477 1.04375,5.97740385 C1.04375,8.71342394 3.24138376,10.9110577 5.97740385,10.9110577 C8.71342394,10.9110577 10.9110577,8.71342394 10.9110577,5.97740385 C10.9110577,4.47128682 10.2269031,3.06696949 9.06915657,2.11738189 C8.97384829,2.0220736 8.92259615,1.90034979 8.92259615,1.77451923 C8.92259615,1.50525086 9.14275086,1.28509615 9.40585427,1.28560638 C9.54345894,1.26267227 9.67153495,1.30311733 9.75227417,1.38409098 C11.1125377,2.50982628 11.9125,4.16429386 11.9125,5.95480769 C11.9125,9.22936452 9.27455683,11.8673077 6,11.8673077 C2.72544317,11.8673077 0.0875,9.22936452 0.0875,5.95480769 C0.0875,4.16429386 0.887462347,2.50982628 2.24913462,1.38298077 C2.35726311,1.3018844 2.45291094,1.2625 2.56538462,1.2625 Z M6,0.132692308 C6.2570289,0.132692308 6.46930754,0.333287815 6.48807454,0.585717457 L6.48942308,0.622115385 L6.48942308,6.94903846 C6.48942308,7.21830683 6.26926837,7.43846154 6,7.43846154 C5.7429711,7.43846154 5.53069246,7.23786603 5.51192546,6.98543639 L5.51057692,6.94903846 L5.51057692,0.622115385 C5.51057692,0.352847014 5.73073163,0.132692308 6,0.132692308 Z" id="形状"></path>
                </g>
            </g>
        </g>
    </g>
</svg>