<svg viewBox="0 0 1024 1024" version="1.1" xmlns="http://www.w3.org/2000/svg"><path  d="M839.6752768 834.4C839.6752768 848.2666656 829.0479712 858.6666656 814.8782272 858.6666656L202.03690048 858.6666656C187.86715872 858.6666656 177.23985248 848.2666656 177.23985248 834.4L177.23985248 480.8 32 619.4666656 106.391144 619.4666656 106.391144 858.6666656C106.391144 896.8 138.27306271999998 928 177.23985248 928L839.6752768 928C878.6420672 928 910.523984 896.8 910.523984 858.6666656L910.523984 553.6 839.6752768 619.4666656 839.6752768 834.4 839.6752768 834.4ZM177.23985248 189.6C177.23985248 175.73333344 187.86715872 165.33333344 202.03690048 165.33333344L821.9631008 165.33333344C836.1328416 165.33333344 846.7601472 175.73333344 846.7601472 189.6L846.7601472 512 992 362.93333344 910.523984 362.93333344 910.523984 165.33333344C910.523984 127.2 878.6420672 96 839.6752768 96L177.23985248 96C138.27306271999998 96 106.391144 127.2 106.391144 165.33333344L106.391144 439.2 177.23985248 369.86666656 177.23985248 189.6ZM577.535056 754.6666656C581.0774912 737.3333344 581.0774912 716.5333344 584.6199264 699.2 602.3321024 706.1333344 736.9446496 591.7333344 627.129152 546.6666656L627.129152 546.6666656C605.8745376 581.3333344 573.9926208 619.4666656 527.94096 654.1333344 535.0258304 664.5333344 538.5682656 674.9333344 545.653136 685.3333344 520.8560896 702.6666656 499.6014752 716.5333344 496.05904 720 496.05904 720 485.4317344 709.6 474.8044288 685.3333344 460.6346848 692.2666656 446.464944 699.2 428.752768 702.6666656 343.73431744 730.4 315.39483392 595.2 326.02214016 567.4666655999999 336.6494464 546.6666656 368.5313664 505.0666656 439.3800736 487.7333344 439.3800736 473.8666656 442.9225088 463.4666656 446.464944 449.6 403.9557184 449.6 357.9040576 446.1333344 311.8523984 428.8 322.47970464 411.46666656 329.56457568 394.13333344 336.6494464 380.26666656 336.6494464 380.26666656 375.6162368 397.6 460.6346848 390.66666656 467.7195584 362.93333344 481.8892992 335.2 492.5166048 310.93333344L542.1107008 331.73333344C542.1107008 331.73333344 531.4833952 349.06666656 524.3985248 380.26666656 552.7380064 373.33333344 584.6199264 366.4 612.959408 356 627.129152 383.73333344 648.3837632 397.6 648.3837632 397.6 648.3837632 397.6 588.1623616 428.8 506.6863456 442.6666656 503.1439104 456.5333344 503.1439104 466.9333344 499.6014752 480.8 527.94096 480.8 556.2804416 480.8 591.7047968 484.2666656 605.8745376 470.4 602.3321024 449.6 602.3321024 449.6L655.4686336 456.5333344C655.4686336 456.5333344 651.9261984 470.4 641.2988928 494.6666656 659.0110688 501.6 705.0627296 522.4 712.1476 581.3333344 733.4022144 647.2 644.841328 761.6 577.535056 754.6666656L577.535056 754.6666656 577.535056 754.6666656ZM375.6162368 591.7333344C375.6162368 605.6 386.2435424 654.1333344 403.9557184 654.1333344 421.6678976 654.1333344 446.464944 640.2666656 446.464944 640.2666656 446.464944 640.2666656 435.8376384 588.2666656 435.8376384 550.1333344 403.9557184 557.0666656000001 375.6162368 577.8666656 375.6162368 591.7333344L375.6162368 591.7333344ZM559.8228768 539.7333344C552.7380064 536.2666656 496.05904 539.7333344 496.05904 539.7333344 488.9741696 553.6 503.1439104 602.1333344 503.1439104 602.1333344 503.1439104 602.1333344 570.4501856 543.2 559.8228768 539.7333344Z"/></svg>