<?xml version="1.0" standalone="no"?><!DOCTYPE svg PUBLIC "-//W3C//DTD SVG 1.1//EN" "http://www.w3.org/Graphics/SVG/1.1/DTD/svg11.dtd"><svg t="1609122935360" class="icon" viewBox="0 0 1024 1024" version="1.1" xmlns="http://www.w3.org/2000/svg" p-id="1671" xmlns:xlink="http://www.w3.org/1999/xlink" width="200" height="200"><defs><style type="text/css"></style></defs><path d="M511.372 64.548c-247.628 0-448.369 200.319-448.369 447.426S263.744 959.4 511.372 959.4s448.369-200.32 448.369-447.426S758.999 64.548 511.372 64.548z m-0.203 823.564c-207.318 0-375.382-167.71-375.382-374.592s168.064-374.592 375.382-374.592 375.382 167.71 375.382 374.592-168.064 374.592-375.382 374.592z" p-id="1672"></path><path d="M720.065 463.455L512.233 256.026l-0.069-0.073-0.002 0.002-0.003-0.002-0.04 0.04-0.041-0.04-211.101 210.698 45.19 45.137 134.14-133.884-0.047 389.898h64.013l0.047-389.511 130.555 130.302z" p-id="1673"></path></svg>