<svg viewBox="0 0 1024 1024" version="1.1" xmlns="http://www.w3.org/2000/svg"><g fill="none"><path fill="#3A84FF" d="M305.37142848 201.14285728C334.6285728 230.4 334.6285728 276.11428576 305.37142848 305.37142848 276.11428576 334.6285728 230.4 334.6285728 201.14285728 305.37142848L149.94285728 254.17142848C120.68571424 224.91428576 120.68571424 179.2 149.94285728 149.94285728 179.2 120.68571424 224.91428576 120.68571424 254.17142848 149.94285728L305.37142848 201.14285728Z"/><path fill="#3A84FF" d="M146.28571424 438.8571424C186.51428576 438.8571424 219.42857152 471.7714272 219.42857152 512 219.42857152 552.2285728 186.51428576 585.1428576 146.28571424 585.1428576L73.14285728 585.1428576C32.91428576 585.1428576 0 552.2285728 0 512 0 471.7714272 32.91428576 438.8571424 73.14285728 438.8571424L146.28571424 438.8571424Z"/><path fill="#3A84FF" d="M201.14285728 718.6285728C230.4 689.3714272 276.11428576 689.3714272 305.37142848 718.6285728 334.6285728 747.8857152 334.6285728 793.6 305.37142848 822.8571424L254.17142848 874.0571424C224.91428576 903.3142848 179.2 903.3142848 149.94285728 874.0571424 120.68571424 844.8 120.68571424 799.0857152 149.94285728 769.8285728L201.14285728 718.6285728Z"/><path fill="#3A84FF" d="M438.8571424 877.7142848C438.8571424 837.4857152 471.7714272 804.5714272 512 804.5714272 552.2285728 804.5714272 585.1428576 837.4857152 585.1428576 877.7142848L585.1428576 950.8571424C585.1428576 991.0857152 552.2285728 1024 512 1024 471.7714272 1024 438.8571424 991.0857152 438.8571424 950.8571424L438.8571424 877.7142848Z"/><path fill="#3A84FF" d="M874.0571424 769.8285728C903.3142848 799.0857152 903.3142848 844.8 874.0571424 874.0571424 844.8 903.3142848 799.0857152 903.3142848 769.8285728 874.0571424L718.6285728 822.8571424C689.3714272 793.6 689.3714272 747.8857152 718.6285728 718.6285728 747.8857152 689.3714272 793.6 689.3714272 822.8571424 718.6285728L874.0571424 769.8285728Z"/><path fill="#3A84FF" d="M950.8571424 438.8571424C991.0857152 438.8571424 1024 471.7714272 1024 512 1024 552.2285728 991.0857152 585.1428576 950.8571424 585.1428576L877.7142848 585.1428576C837.4857152 585.1428576 804.5714272 552.2285728 804.5714272 512 804.5714272 471.7714272 837.4857152 438.8571424 877.7142848 438.8571424L950.8571424 438.8571424Z"/><path fill="#3A84FF" d="M769.8285728 149.94285728C799.0857152 120.68571424 844.8 120.68571424 874.0571424 149.94285728 903.3142848 179.2 903.3142848 224.91428576 874.0571424 254.17142848L874.0571424 254.17142848 822.8571424 305.37142848C793.6 334.6285728 747.8857152 334.6285728 718.6285728 305.37142848 689.3714272 276.11428576 689.3714272 230.4 718.6285728 201.14285728L769.8285728 149.94285728Z"/><path fill="#A3C5FD" d="M438.8571424 73.14285728C438.8571424 32.91428576 471.7714272 0 512 0 552.2285728 0 585.1428576 32.91428576 585.1428576 73.14285728L585.1428576 146.28571424C585.1428576 186.51428576 552.2285728 219.42857152 512 219.42857152 471.7714272 219.42857152 438.8571424 186.51428576 438.8571424 146.28571424L438.8571424 73.14285728Z"/></g></svg>
