<?xml version="1.0" standalone="no"?><!DOCTYPE svg PUBLIC "-//W3C//DTD SVG 1.1//EN" "http://www.w3.org/Graphics/SVG/1.1/DTD/svg11.dtd"><svg t="1588241017265" class="icon" viewBox="0 0 1024 1024" version="1.1" xmlns="http://www.w3.org/2000/svg" p-id="5644" xmlns:xlink="http://www.w3.org/1999/xlink" width="40" height="40"><defs><style type="text/css"></style></defs><path d="M979.968 126.976h-440.32v771.072h440.32c16.384 0 27.648-11.264 27.648-27.648V153.6c0-16.384-11.264-26.624-27.648-26.624z" fill="#81C784" p-id="5645"></path><path d="M924.672 484.352L815.104 594.944 704.512 484.352h82.944V319.488H594.944v-55.296h247.808v220.16h81.92z m-275.456 82.944L539.648 676.864l110.592 110.592 110.592-110.592-111.616-109.568z" fill="#FFFFFF" p-id="5646"></path><path d="M594.944 1007.616L16.384 897.024V126.976L594.944 16.384z" fill="#43A047" p-id="5647"></path><path d="M313.344 319.488H181.248v385.024h82.944V572.416h44.032c47.104 0 82.944-11.264 110.592-35.84 27.648-24.576 40.96-55.296 40.96-93.184-3.072-82.944-49.152-123.904-146.432-123.904z m-13.312 187.392h-35.84V385.024h35.84c44.032 0 68.608 19.456 68.608 60.416s-24.576 61.44-68.608 61.44z" fill="#FFFFFF" p-id="5648"></path></svg>