<?xml version="1.0" encoding="UTF-8"?>
<svg width="26px" height="26px" viewBox="0 0 26 26" version="1.1" xmlns="http://www.w3.org/2000/svg" xmlns:xlink="http://www.w3.org/1999/xlink">
    <title>Group</title>
    <defs>
        <path d="M20.290818,0 C23.4439769,0 26,2.5560231 26,5.70902876 L26,20.2909712 C26,23.4438237 23.4439769,26 20.290818,26 L5.70902876,26 C2.5560231,26 0,23.4438237 0,20.2909712 L0,5.70902876 C0,2.5560231 2.5560231,0 5.70902876,0 L20.290818,0 Z" id="path-1"></path>
        <polygon id="path-3" points="1.25571765 0.164894118 3.57044706 3.85825882 5.81665882 0.232282353 5.85618824 0.164894118 6.94437647 0.164894118 6.94437647 7.23124706 5.76018824 7.23124706 5.76018824 2.42729412 3.88743529 5.41044706 3.82569412 5.50230588 3.22804706 5.50230588 1.29731765 2.47058824 1.29731765 7.23124706 0.122541176 7.23124706 0.122541176 0.164894118"></polygon>
        <polygon id="path-5" points="1.25214118 0.164894118 1.25195294 3.01176471 4.53101176 3.01176471 4.5312 0.164894118 5.77185882 0.164894118 5.77185882 7.23124706 4.5312 7.23124706 4.53101176 4.15849412 1.25195294 4.15849412 1.25214118 7.23124706 0.0114823529 7.23124706 0.0114823529 0.164894118"></polygon>
        <path d="M2.8416,0.123482353 C3.40254118,0.123482353 3.89778824,0.246588235 4.32583529,0.492988235 C4.71642353,0.717929412 5.01157647,1.02192941 5.20941176,1.40385882 C5.21524706,1.41477647 5.22258824,1.42983529 5.23162353,1.44865882 L5.23162353,1.44865882 L5.29750588,1.58983529 L5.18550588,1.66588235 C5.15802353,1.68432941 5.13675294,1.69807059 5.12150588,1.70729412 L5.12150588,1.70729412 L4.49072941,2.0896 L4.31491765,2.19068235 L4.20592941,2.00357647 L4.16451765,1.93430588 C4.04668235,1.74851765 3.89138824,1.59435294 3.69769412,1.47143529 C3.44696471,1.312 3.16235294,1.23237647 2.8416,1.23237647 C2.48564706,1.23237647 2.19425882,1.32178824 1.96423529,1.49948235 C1.73948235,1.67303529 1.62992941,1.88517647 1.62992941,2.14362353 C1.62992941,2.34917647 1.70484706,2.51990588 1.85807059,2.66164706 C2.01788235,2.80997647 2.27614118,2.93684706 2.63341176,3.03981176 L2.63341176,3.03981176 L3.65835294,3.34117647 C4.79755294,3.68357647 5.37844706,4.34654118 5.37844706,5.31896471 C5.37844706,5.7376 5.27472941,6.10785882 5.06729412,6.42729412 C4.86004706,6.74635294 4.56884706,6.99124706 4.19595294,7.16141176 C3.82625882,7.33007059 3.40254118,7.41421176 2.92611765,7.41421176 C2.29722353,7.41421176 1.73590588,7.28395294 1.24272941,7.02287059 C0.793035294,6.78475294 0.462305882,6.46381176 0.253176471,6.06098824 C0.246588235,6.04818824 0.238494118,6.03162353 0.228517647,6.01091765 L0.228517647,6.01091765 L0.160376471,5.86258824 L0.229082353,5.81854118 C0.284235294,5.78315294 0.3232,5.75943529 0.346917647,5.74625882 L0.346917647,5.74625882 L0.990305882,5.39350588 C1.00235294,5.38691765 1.01816471,5.37863529 1.03792941,5.36847059 L1.03792941,5.36847059 L1.18832941,5.29336471 L1.27792941,5.44903529 L1.32536471,5.52602353 C1.47727059,5.75774118 1.67604706,5.93788235 1.92225882,6.06701176 C2.22512941,6.22607059 2.54682353,6.30531765 2.88865882,6.30531765 C3.2576,6.30531765 3.55557647,6.21872941 3.78578824,6.04687059 C4.00978824,5.87952941 4.11915294,5.66776471 4.11915294,5.40348235 C4.11915294,5.19792941 4.04517647,5.02682353 3.89496471,4.88470588 C3.73797647,4.73656471 3.49063529,4.60988235 3.15350588,4.50748235 L3.15350588,4.50748235 L2.11971765,4.20668235 C0.961317647,3.86371765 0.370635294,3.20037647 0.370635294,2.22814118 C0.370635294,1.81552941 0.477741176,1.44658824 0.691576471,1.12395294 C0.904847059,0.802258824 1.20018824,0.554352941 1.57628235,0.381176471 C1.94955294,0.209317647 2.37176471,0.123482353 2.8416,0.123482353 Z" id="path-7"></path>
        <path d="M3.81214118,0.172611765 C4.48771765,0.172611765 5.10588235,0.334682353 5.66475294,0.658823529 C6.22324706,0.982964706 6.66409412,1.42456471 6.98654118,1.98287059 C7.30898824,2.54155294 7.47030588,3.15802353 7.47030588,3.83096471 C7.47030588,4.50371765 7.30898824,5.12037647 6.98654118,5.67887059 C6.66409412,6.23717647 6.22324706,6.67877647 5.66475294,7.00291765 C5.10588235,7.32705882 4.48771765,7.48912941 3.81214118,7.48912941 C3.13637647,7.48912941 2.51821176,7.32705882 1.95934118,7.00291765 C1.40103529,6.67877647 0.96,6.23717647 0.637552941,5.67887059 C0.315105882,5.12037647 0.153788235,4.50371765 0.153788235,3.83096471 C0.153788235,3.15802353 0.315105882,2.54155294 0.637552941,1.98287059 C0.96,1.42456471 1.40103529,0.982964706 1.95934118,0.658823529 C2.51821176,0.334682353 3.13637647,0.172611765 3.81214118,0.172611765 Z M3.81214118,1.42061176 C3.36809412,1.42061176 2.96432941,1.52583529 2.59952941,1.73628235 C2.23472941,1.94672941 1.94804706,2.23642353 1.73872941,2.60630588 C1.52903529,2.97637647 1.42437647,3.38409412 1.42437647,3.83096471 C1.42437647,4.27764706 1.52903529,4.68517647 1.73872941,5.05543529 C1.94804706,5.42531765 2.23472941,5.71501176 2.59952941,5.92545882 C2.96432941,6.13590588 3.36809412,6.24112941 3.81214118,6.24112941 C4.25618824,6.24112941 4.65976471,6.13590588 5.02456471,5.92545882 C5.38955294,5.71501176 5.67604706,5.42531765 5.88536471,5.05543529 C6.09505882,4.68517647 6.19971765,4.27745882 6.19971765,3.83096471 C6.19971765,3.38409412 6.09505882,2.97656471 5.88536471,2.60630588 C5.67604706,2.23642353 5.38955294,1.94672941 5.02456471,1.73628235 C4.65976471,1.52583529 4.25618824,1.42061176 3.81214118,1.42061176 Z" id="path-9"></path>
        <polygon id="path-11" points="0 0.0182588235 4.98823529 0.0182588235 4.98823529 1.05618824 0 1.05618824"></polygon>
    </defs>
    <g id="Page-1" stroke="none" stroke-width="1" fill="none" fill-rule="evenodd">
        <g id="Group">
            <g id="Group-40">
                <mask id="mask-2" fill="white">
                    <use xlink:href="#path-1"></use>
                </mask>
                <g id="Clip-39"></g>
                <polygon id="Fill-38" fill="#000000" mask="url(#mask-2)" points="0 26 26 26 26 0 0 0"></polygon>
            </g>
            <g id="Group-43" transform="translate(14.694118, 3.152941)">
                <mask id="mask-4" fill="white">
                    <use xlink:href="#path-3"></use>
                </mask>
                <g id="Clip-42"></g>
                <polygon id="Fill-41" fill="#F1F3F5" mask="url(#mask-4)" points="0.120470588 7.23576471 6.96470588 7.23576471 6.96470588 0.143058824 0.120470588 0.143058824"></polygon>
            </g>
            <g id="Group-46" transform="translate(4.905882, 3.152941)">
                <mask id="mask-6" fill="white">
                    <use xlink:href="#path-5"></use>
                </mask>
                <g id="Clip-45"></g>
                <polygon id="Fill-44" fill="#F1F3F5" mask="url(#mask-6)" points="-0.00752941176 7.23576471 5.77505882 7.23576471 5.77505882 0.143058824 -0.00752941176 0.143058824"></polygon>
            </g>
            <g id="Group-49" transform="translate(15.447059, 13.317647)">
                <mask id="mask-8" fill="white">
                    <use xlink:href="#path-7"></use>
                </mask>
                <g id="Clip-48"></g>
                <polygon id="Fill-47" fill="#F1F3F5" mask="url(#mask-8)" points="0.158117647 7.41647059 5.39858824 7.41647059 5.39858824 0.120470588 0.158117647 0.120470588"></polygon>
            </g>
            <g id="Group-52" transform="translate(3.964706, 13.129412)">
                <mask id="mask-10" fill="white">
                    <use xlink:href="#path-9"></use>
                </mask>
                <g id="Clip-51"></g>
                <polygon id="Fill-50" fill="#F1F3F5" mask="url(#mask-10)" points="0.143058824 7.49176471 7.48423529 7.49176471 7.48423529 0.150588235 0.143058824 0.150588235"></polygon>
            </g>
            <g id="Group-55" transform="translate(5.282353, 21.600000)">
                <mask id="mask-12" fill="white">
                    <use xlink:href="#path-11"></use>
                </mask>
                <g id="Clip-54"></g>
                <polygon id="Fill-53" fill="#0071FF" mask="url(#mask-12)" points="0 1.07670588 4.992 1.07670588 4.992 0.0150588235 0 0.0150588235"></polygon>
            </g>
        </g>
    </g>
</svg>