<?xml version="1.0" encoding="utf-8"?>
<!-- Generator: Adobe Illustrator 24.0.0, SVG Export Plug-In . SVG Version: 6.00 Build 0)  -->
<svg version="1.1" id="图层_1" xmlns="http://www.w3.org/2000/svg" xmlns:xlink="http://www.w3.org/1999/xlink" x="0px" y="0px"
	 viewBox="0 0 16 16" style="enable-background:new 0 0 16 16;" xml:space="preserve" fill="#F59A23">
<path d="M9.5,9.6C9.4,9.5,9.3,9.2,9.3,9.1c0-0.4,0.1-0.6,0.1-0.6c0,0,1.8-1,1.7-4c0-1.2-0.8-3.3-3.1-3.3h0H8c-2.4,0-3,2.1-3.1,3.3
	c0,2.8,1.7,4,1.7,4s0.2,0.2,0.2,0.7c0,0.1-0.2,0.3-0.3,0.4c-1,0.8-4.5,1.6-4.9,3.3c-0.2,0.7-0.5,1.9,2.4,2.3c1,0.1,2.3,0.2,4,0.2
	c7,0,6.5-1.5,6.4-2.4C14.2,11.3,10.5,10.4,9.5,9.6L9.5,9.6z"/>
</svg>
