<?xml version="1.0" encoding="utf-8"?>
<!-- Generator: Adobe Illustrator 24.0.0, SVG Export Plug-In . SVG Version: 6.00 Build 0)  -->
<svg version="1.1" id="图层_1" xmlns="http://www.w3.org/2000/svg" xmlns:xlink="http://www.w3.org/1999/xlink" x="0px" y="0px"
	 viewBox="0 0 16 16" style="enable-background:new 0 0 16 16;" xml:space="preserve" fill="#5281DD">
<path d="M5.7,9.7c0.1,0,0.3-0.1,0.4-0.2c0.3-0.2,0.4-0.5,0-0.9c-1.6-2.3-1-3.7-0.8-4.3C5.1,4.2,4.9,4.2,4.7,4.2H4.6
	c-1.5,0-1.9,1.4-1.9,2.1c0,1.8,1.1,2.5,1.1,2.5s0.1,0.1,0.1,0.4c0,0.1,0,0.2-0.1,0.3c-0.6,0.5-2.7,1-2.8,2.1c-0.1,0.3,0,0.6,0,0.9
	C1.2,12.8,2.3,13,2.3,13s0.1-0.3,0.2-0.7C2.6,11.6,3.5,10.5,5.7,9.7L5.7,9.7z M15.2,11.6c-0.1-1.1-2.3-1.6-2.9-2.1
	c-0.1-0.1-0.1-0.2-0.1-0.3c0-0.3,0.1-0.4,0.1-0.4s1.1-0.7,1.1-2.5c0-0.8-0.5-2.1-2-2.1h0h-0.1c-0.3,0-0.6,0.1-0.8,0.2
	c0.3,1,0.7,3-0.9,4.3C9,9.5,11,10.1,10.7,9.9c1.9,0.8,2.4,1.5,2.5,2.2c0.1,0.6,0.2,0.9,0.2,0.9s1.4-0.2,1.8-0.5
	C15.2,12.2,15.2,11.9,15.2,11.6L15.2,11.6z M9.1,9.5C9,9.4,8.9,9.2,8.9,9.1C8.9,8.8,9,8.7,9,8.7c0,0,1.4-0.7,1.4-3.1
	c0-0.9-0.6-2.6-2.4-2.6h0H7.8C6,2.9,5.5,4.6,5.4,5.5c0,2.2,1.4,3.1,1.4,3.1S7,8.9,7,9.2c0,0.1-0.1,0.2-0.2,0.3
	C6,10.1,3.2,10.7,3,12.1c-0.1,0.6-1,1.5,1.8,1.8c0.8,0.1,1.8,0.2,3.2,0.2c6.4,0,5-1.2,4.9-2C12.6,10.8,9.8,10.1,9.1,9.5L9.1,9.5z"/>
</svg>
