<?xml version="1.0" standalone="no"?><!DOCTYPE svg PUBLIC "-//W3C//DTD SVG 1.1//EN" "http://www.w3.org/Graphics/SVG/1.1/DTD/svg11.dtd"><svg class="icon" width="200px" height="200.00px" viewBox="0 0 1024 1024" version="1.1" xmlns="http://www.w3.org/2000/svg"><path d="M537.6 10.346667a10.666667 10.666667 0 0 1 2.986667 2.986666l108.032 162.090667a10.666667 10.666667 0 0 1-8.874667 16.576h-65.365333v380.714667l0.021333 1.642666v141.930667c2.538667-2.453333 5.12-4.864 7.765333-7.232 44.522667-39.829333 100.394667-62.464 161.92-71.722667 37.674667-5.674667 69.930667-5.504 90.368-3.2l-2.474666-0.256 0.021333-63.957333a10.666667 10.666667 0 0 1 16.576-8.874667l162.112 108.053334a10.666667 10.666667 0 0 1 0 17.749333l-162.112 108.053333a10.666667 10.666667 0 0 1-16.576-8.874666V719.36a43.456 43.456 0 0 1-6.997333-0.170667l-1.770667-0.170666-7.36-0.426667-10.197333-0.170667c-14.784-0.064-30.72 0.938667-47.125334 3.306667-46.656 6.698667-88.192 22.997333-119.850666 51.541333-42.645333 38.378667-64.298667 97.386667-64.298667 175.658667v-2.090667 32.384a42.624 42.624 0 0 1-39.509333 42.496l-3.2 0.106667a42.666667 42.666667 0 0 1-42.709334-42.709333V574.250667c0-50.666667-45.653333-88.533333-136.618666-112.213334-31.914667-8.32-66.261333-13.888-101.056-17.237333a836.48 836.48 0 0 0-7.402667-0.682667l-13.952-1.109333a739.456 739.456 0 0 0-6.506667-0.426667l-12.074666-0.618666-10.624-0.341334-6.186667-0.106666c-0.853333 0-1.706667-0.021333-2.56-0.085334v68.394667a10.666667 10.666667 0 0 1-16.576 8.874667L13.312 410.645333a10.666667 10.666667 0 0 1 0-17.749333l162.112-108.053333a10.666667 10.666667 0 0 1 16.576 8.874666v62.464l2.602667-0.085333 6.869333 0.085333 10.816 0.32 5.909333 0.256 12.693334 0.704 13.824 0.981334 14.848 1.322666c39.04 3.776 77.845333 10.133333 114.346666 19.669334 47.274667 12.288 85.333333 28.373333 115.093334 47.573333L488.96 192 423.68 192a10.666667 10.666667 0 0 1-8.896-16.576L522.816 13.312a10.666667 10.666667 0 0 1 14.805333-2.965333z" /></svg>