<?xml version="1.0" standalone="no"?><!DOCTYPE svg PUBLIC "-//W3C//DTD SVG 1.1//EN" "http://www.w3.org/Graphics/SVG/1.1/DTD/svg11.dtd"><svg class="icon" width="200px" height="200.00px" viewBox="0 0 1024 1024" version="1.1" xmlns="http://www.w3.org/2000/svg"><path d="M959.103819 670.860509a42.662578 42.662578 0 0 1-7.913908 57.25318l-2.794399 2.133129L536.31767 1016.363399a42.662578 42.662578 0 0 1-45.691622 1.898484l-2.98638-1.919816L75.604488 730.246818a42.662578 42.662578 0 0 1 45.712952-71.971769l2.96505 1.898484 387.696179 269.243531 387.738841-269.243531a42.662578 42.662578 0 0 1 59.386309 10.708307z m0-183.150448a42.662578 42.662578 0 0 1-7.913908 57.274511l-2.794399 2.111798L536.31767 833.234282a42.662578 42.662578 0 0 1-45.691622 1.919816l-2.98638-1.919816L75.604488 547.09637a42.662578 42.662578 0 0 1 45.712952-71.971769l2.96505 1.877153L512 746.266616l387.71751-269.243531a42.662578 42.662578 0 0 1 59.386309 10.708307zM487.68233 7.713394a42.662578 42.662578 0 0 1 48.63534 0l412.077842 286.159243a42.662578 42.662578 0 0 1 0 70.073285L536.31767 650.105165a42.662578 42.662578 0 0 1-48.678002 0L75.604488 363.945922a42.662578 42.662578 0 0 1 0-70.073285zM512 94.68106L174.730988 328.898614l337.247681 234.217554 337.24768-234.217554L512 94.68106z" /></svg>