<?xml version="1.0" standalone="no"?><!DOCTYPE svg PUBLIC "-//W3C//DTD SVG 1.1//EN" "http://www.w3.org/Graphics/SVG/1.1/DTD/svg11.dtd"><svg t="1588240847596" class="icon" viewBox="0 0 1024 1024" version="1.1" xmlns="http://www.w3.org/2000/svg" p-id="12141" xmlns:xlink="http://www.w3.org/1999/xlink" width="40" height="40"><defs><style type="text/css"></style></defs><path d="M700.416 753.664c0 15.36 12.288 26.624 26.624 26.624h241.664c15.36 0 26.624-12.288 26.624-26.624V162.816c0-15.36-12.288-26.624-26.624-26.624H727.04c-15.36 0-26.624 12.288-26.624 26.624v590.848z" fill="#26A69A" p-id="12142"></path><path d="M700.416 162.816v169.984l107.52 17.408 45.056-9.216v-91.136L708.608 143.36c-5.12 5.12-8.192 12.288-8.192 19.456z" fill="#00796B" p-id="12143"></path><path d="M834.56 243.712h-430.08v645.12h430.08c15.36 0 26.624-12.288 26.624-26.624V270.336c0-15.36-11.264-26.624-26.624-26.624z" fill="#57C4B4" p-id="12144"></path><path d="M404.48 619.52h376.832v53.248H404.48z m0-107.52h376.832v54.272H404.48z m0-161.792h376.832v107.52H404.48z m0 376.832h376.832v53.248H404.48z" fill="#E0F2F1" p-id="12145"></path><path d="M592.896 996.352L28.672 888.832V135.168L592.896 27.648z" fill="#00897B" p-id="12146"></path><path d="M319.488 327.68H192.512v368.64h78.848V569.344h40.96c44.032 0 78.848-11.264 104.448-34.816 25.6-22.528 38.912-53.248 38.912-90.112C455.68 366.592 409.6 327.68 319.488 327.68z m-14.336 178.176h-33.792V391.168h33.792c43.008 0 64.512 18.432 64.512 56.32 0 39.936-21.504 58.368-64.512 58.368z" fill="#FFFFFF" p-id="12147"></path></svg>