<?xml version="1.0" encoding="UTF-8"?>
<svg width="32px" height="32px" viewBox="0 0 32 32" version="1.1" xmlns="http://www.w3.org/2000/svg" xmlns:xlink="http://www.w3.org/1999/xlink">
    <title>Pypi</title>
    <g id="Pypi" stroke="none" stroke-width="1" fill="none" fill-rule="evenodd">
        <g id="python" fill-rule="nonzero">
            <path d="M9.74344478,1.02346491 C11.141739,0.31714096 12.7397895,0.117921385 14.283361,0.0454779034 C15.4092602,-0.0631873191 16.5351594,0.0454779034 17.6428989,0.136032255 C19.0593528,0.31714096 20.5302856,0.643136627 21.6925041,1.51245841 C22.4188907,2.07389539 23,2.90699543 23,3.84876069 C22.9818403,6.25750646 23,8.66625222 22.9818403,11.074998 C22.9818403,12.1254285 22.5823277,13.1939698 21.7833025,13.9002938 C21.0024369,14.570396 19.9854957,14.8963916 18.9685544,14.9507243 L11.2325373,14.9507243 C10.2155961,14.9688351 9.16233551,15.2586091 8.39962959,15.9830439 C7.47348669,16.8523657 7.07397407,18.1563483 7.1102934,19.4059984 C7.1102934,20.6013158 7.12845307,21.7966333 7.1102934,22.9919507 C6.1841505,22.9919507 5.2580076,23.0100616 4.3318647,22.9919507 C3.09700751,22.9376181 2.02558729,22.1588507 1.3536797,21.1627528 C0.373057803,19.6414397 0.100662833,17.8122418 0.0280241739,16.0373765 C0.0280241739,15.7476026 -0.0627741495,15.4216069 0.082503168,15.131833 C-0.0264548202,14.9326134 0.0461838386,14.6790612 0.0461838386,14.4617308 C0.136982162,12.7774198 0.463856126,11.0025545 1.53527634,9.64423923 C2.37062092,8.53947613 3.78707476,7.90559567 5.18536894,7.97803915 C8.61754557,7.99615002 12.0497222,7.97803915 15.4637392,7.97803915 L15.4637392,7.01816301 L8.00011697,7.01816301 C8.00011697,5.76851296 7.98195731,4.5188629 7.98195731,3.26921284 C8.07275563,2.23689322 8.88994054,1.47623667 9.74344478,1.02346491 M10.7967053,2.56288889 C9.87056243,2.88888456 9.68896579,4.28342158 10.5061507,4.82674769 C11.2870163,5.42440642 12.5581928,4.82674769 12.5763525,3.84876069 C12.6853105,2.94321717 11.6320499,2.18256061 10.7967053,2.56288889 Z" id="形状" fill="#3774A7"></path>
            <path d="M24.9524941,9.01014064 L27.2652415,9.01014064 C28.3942993,8.91934341 29.5233571,9.44596736 30.2699921,10.2813019 C31.4354711,11.6069415 31.7814727,13.3865673 32,15.0753958 L32,18.1080234 C31.7996833,19.7786925 31.3808393,21.5583182 30.1607284,22.7931606 C29.341251,23.5921762 28.1939826,24.0824813 27.0467142,24.028003 C23.5502771,24.0098435 20.0538401,24.028003 16.5391924,24.028003 L16.5391924,24.9904536 L24.023753,24.9904536 C24.023753,26.2071365 24.023753,27.40566 24.0419636,28.6223429 C24.0783848,29.5847936 23.368171,30.3656498 22.5851148,30.8377954 C21.1100554,31.7094489 19.3436263,31.8547244 17.6864608,32 L15.719715,32 C14.0079177,31.8547244 12.2050673,31.67313 10.6935867,30.7469982 C9.76484561,30.2022148 9.03642122,29.2216047 9,28.1320379 C9.01821061,25.7168315 8.98178939,23.3016251 9.01821061,20.8864187 C9.03642122,19.8876491 9.3824228,18.8707201 10.1290578,18.1806612 C10.9485352,17.4179644 12.077593,17.0729349 13.1884402,17.0184566 L20.8368963,17.0184566 C21.8931116,17.0184566 22.9857482,16.6734271 23.7141726,15.9107303 C24.53365,15.0935552 24.8978622,13.9313507 24.9342835,12.7873055 C24.9524941,11.5524632 24.9342835,10.2813019 24.9524941,9.01014064 M20.3998416,27.0243116 C20.0720507,27.1332683 19.7624703,27.3511817 19.5985748,27.6598923 C19.2343626,28.3317918 19.5803642,29.276083 20.3269992,29.4939964 C21.1100554,29.8208664 22.0934283,29.1308074 22.0387965,28.2773135 C22.1298496,27.4601384 21.1828979,26.7519199 20.3998416,27.0243116 Z" id="形状" fill="#FFD140"></path>
        </g>
    </g>
</svg>