<?xml version="1.0" encoding="UTF-8"?>
<svg width="358px" height="209px" viewBox="0 0 358 209" version="1.1" xmlns="http://www.w3.org/2000/svg" xmlns:xlink="http://www.w3.org/1999/xlink">
    <title>RDS</title>
    <g id="RDS-横版LOGO" stroke="none" stroke-width="1" fill="none" fill-rule="evenodd">
        <g id="编组-2" transform="translate(52.138744, 104.000000) rotate(-90.000000) translate(-52.138744, -104.000000) translate(-49.722512, 52.000000)">
            <polygon id="路径" fill="#03A14D" points="0 103.56041 32.6298856 103.56041 101.23382 23.0683188 83.9622447 2.74596018"></polygon>
            <g id="编组" transform="translate(86.722512, 0.000000)" stroke="#03A850" stroke-width="2">
                <line x1="0.5" y1="0.5" x2="88.5" y2="103.5" id="直线"></line>
                <line x1="9.5" y1="0.5" x2="97.5" y2="103.5" id="直线备份"></line>
                <line x1="18.5" y1="0.5" x2="106.5" y2="103.5" id="直线备份-2"></line>
                <line x1="28.5" y1="0.5" x2="116.5" y2="103.5" id="直线备份-3"></line>
            </g>
        </g>
        <g id="编组-3" transform="translate(304.255654, 104.000000) rotate(-90.000000) translate(-304.255654, -104.000000) translate(201.000000, 52.000000)">
            <polygon id="路径备份" fill="#03A14D" transform="translate(155.894398, 52.153185) rotate(-180.000000) translate(-155.894398, -52.153185) " points="105.277488 102.56041 137.907373 102.56041 206.511307 22.0683188 189.239732 1.74596018"></polygon>
            <g id="编组备份" stroke="#03A850" stroke-width="2">
                <line x1="0.5" y1="0.5" x2="88.5" y2="103.5" id="直线"></line>
                <line x1="9.5" y1="0.5" x2="97.5" y2="103.5" id="直线备份"></line>
                <line x1="18.5" y1="0.5" x2="106.5" y2="103.5" id="直线备份-2"></line>
                <line x1="28.5" y1="0.5" x2="116.5" y2="103.5" id="直线备份-3"></line>
            </g>
        </g>
        <text id="RDS" font-family="KohinoorBangla-Semibold, Kohinoor Bangla" font-size="110" font-weight="500" fill="#03A850">
            <tspan x="80" y="142">RDS</tspan>
        </text>
    </g>
</svg>