<?xml version="1.0" standalone="no"?><!DOCTYPE svg PUBLIC "-//W3C//DTD SVG 1.1//EN" "http://www.w3.org/Graphics/SVG/1.1/DTD/svg11.dtd"><svg class="icon" width="200px" height="200.00px" viewBox="0 0 1024 1024" version="1.1" xmlns="http://www.w3.org/2000/svg"><path d="M491.733333 3.093333c270.997333 0 490.666667 219.690667 490.666667 490.666667 0 119.104-42.432 228.288-113.002667 313.28l141.034667 141.013333a42.666667 42.666667 0 0 1-60.330667 60.352l-140.693333-140.672a488.725333 488.725333 0 0 1-317.653333 116.693334c-270.997333 0-490.666667-219.669333-490.666667-490.666667 0-270.976 219.669333-490.666667 490.666667-490.666667z m0 85.333334c-223.850667 0-405.333333 181.482667-405.333333 405.333333 0 223.872 181.482667 405.333333 405.333333 405.333333 223.872 0 405.333333-181.461333 405.333334-405.333333 0-223.850667-181.461333-405.333333-405.333334-405.333333z" /></svg>