<?xml version="1.0" standalone="no"?><!DOCTYPE svg PUBLIC "-//W3C//DTD SVG 1.1//EN" "http://www.w3.org/Graphics/SVG/1.1/DTD/svg11.dtd"><svg class="icon" width="200px" height="200.00px" viewBox="0 0 1024 1024" version="1.1" xmlns="http://www.w3.org/2000/svg"><path d="M126.698667 131.968L510.272 10.453333 893.013333 131.882667c18.069333 5.269333 30.698667 21.674667 32.106667 40.490666l0.128 3.541334-2.346667 479.616-0.234666 2.261333-1.621334 7.168c-2.816 11.413333-7.594667 25.813333-15.616 43.904-15.978667 35.925333-39.210667 71.722667-71.04 105.088-2.837333 2.986667-5.76 5.930667-8.704 8.832-12.437333 12.224-28.586667 25.429333-48 39.466667l-13.44 9.450666c-9.28 6.4-19.157333 12.949333-29.632 19.626667l-16.128 10.154667-16.981333 10.325333-8.789333 5.248-18.176 10.624-18.432 10.517333-18.261334 10.176-18.176 9.941334-17.877333 9.578666-17.365333 9.130667-16.618667 8.576-15.637333 7.936-14.464 7.168-16.405334 8.064c-7.317333 4.565333-16.128 4.864-24.533333 1.578667l-3.114667-1.386667-7.04-4.096-13.589333-7.210667-7.445333-3.904-57.429334-30.826666-24.448-13.44-13.44-7.530667-23.36-13.418667-14.784-8.661333a1413.525333 1413.525333 0 0 1-64.810666-40.490667c-31.146667-20.757333-55.744-39.68-73.024-56.597333-35.157333-34.624-60.714667-72.213333-78.186667-110.293333-10.005333-21.802667-16.042667-40.917333-18.410667-52.885334l-0.512-2.837333-0.682666-6.592L94.72 175.850667c0-18.773333 11.306667-35.413333 28.650667-42.645334l3.328-1.237333z m379.733333-30.954667l-2.645333 0.768L182.613333 203.882667a2.624 2.624 0 0 0-1.792 1.792l-0.149333 0.96 1.770667 438.976 0.682666 2.56c2.645333 9.386667 6.912 20.928 13.226667 34.005333l2.816 5.717333a291.626667 291.626667 0 0 0 56.234667 75.946667c11.328 11.2 27.690667 24.128 48.469333 38.528l12.992 8.810667 14.016 9.152 9.344 5.909333 19.733333 12.16 10.368 6.229333 24.32 14.229334 19.925334 11.349333 20.16 11.2 28.992 15.744 42.986666 22.805333c1.408 0.704 3.413333 0.704 4.736 0.042667l30.869334-15.936 29.568-15.573333 18.922666-10.197334 18.24-10.026666 17.557334-9.834667 16.832-9.664 16.085333-9.472 15.274667-9.258667c39.701333-24.448 70.72-46.72 90.453333-66.24a291.541333 291.541333 0 0 0 56.192-75.904c7.893333-15.466667 13.013333-28.970667 16.042667-39.701333l0.682666-2.624 1.770667-439.466667a2.773333 2.773333 0 0 0-1.344-2.496l-1.066667-0.448-320.298666-101.44a20.629333 20.629333 0 0 0-8.106667-1.088l-2.666667 0.384z m9.856 138.88l6.357333 0.149334c38.506667 1.557333 74.453333 17.130667 100.842667 44.16 57.344 56.064 59.221333 147.2 5.141333 206.037333l-3.84 4.053333-1.92 1.92a154.986667 154.986667 0 0 1-49.685333 32.128l-6.954667 2.602667-3.882666 1.258667-0.384 37.312h46.144a46.933333 46.933333 0 0 1 46.336 39.701333l0.362666 3.242667 0.106667 3.285333c0 12.864-4.992 24.32-14.122667 32.682667a46.506667 46.506667 0 0 1-29.098666 13.376l-4.181334 0.170666-46.272-0.021333v84.821333c0 10.282667-3.2 19.669333-9.152 27.306667l-2.346666 2.773333-2.624 2.581334c-8.746667 8.746667-20.650667 13.546667-33.28 13.546666-24.448 0-44.949333-18.986667-46.698667-42.944l-0.106667-3.306666 0.554667-214.528-3.776-1.194667a151.530667 151.530667 0 0 1-45.866667-25.322667l-5.802666-4.906666-4.992-4.629334c-57.237333-55.957333-59.306667-147.050667-5.696-206.037333l3.84-4.053333 1.941333-1.962667c28.736-27.52 64.938667-43.136 102.826667-44.16l6.229333-0.042667z m-44.928 96.789334l-3.178667 2.944a68.096 68.096 0 0 0-3.968 93.930666l2.858667 3.072 1.194667 1.194667c13.056 13.056 30.741333 20.245333 49.557333 20.245333 37.717333-0.512 70.741333-32.874667 70.741333-69.376 0-18.453333-7.253333-36.117333-20.181333-49.066666a71.125333 71.125333 0 0 0-93.717333-5.653334l-3.306667 2.709334z" /></svg>