<?xml version="1.0" standalone="no"?><!DOCTYPE svg PUBLIC "-//W3C//DTD SVG 1.1//EN" "http://www.w3.org/Graphics/SVG/1.1/DTD/svg11.dtd"><svg class="icon" width="200px" height="200.00px" viewBox="0 0 1024 1024" version="1.1" xmlns="http://www.w3.org/2000/svg"><path d="M874.666667 0a85.333333 85.333333 0 0 1 85.226666 81.066667L960 85.333333v256a42.666667 42.666667 0 0 1-85.226667 3.2L874.666667 341.333333V85.333333H106.666667v853.333334h768V682.666667a42.666667 42.666667 0 0 1 85.226666-3.2L960 682.666667v256a85.333333 85.333333 0 0 1-81.066667 85.226666L874.666667 1024H106.666667a85.333333 85.333333 0 0 1-85.226667-81.066667L21.333333 938.666667V85.333333A85.333333 85.333333 0 0 1 102.4 0.106667L106.666667 0h768z m-57.706667 361.749333l2.773333 2.133334 188.970667 158.058666c29.738667 24.874667 13.461333 72.64-24.106667 75.285334L981.333333 597.333333H229.290667a42.666667 42.666667 0 0 1-3.178667-85.226666l3.2-0.106667 634.474667-0.021333-98.773334-82.645334a42.666667 42.666667 0 0 1-7.509333-57.322666l2.133333-2.773334a42.666667 42.666667 0 0 1 57.322667-7.488z" /></svg>