<?xml version="1.0" encoding="UTF-8"?>
<svg width="32px" height="32px" viewBox="0 0 32 32" version="1.1" xmlns="http://www.w3.org/2000/svg" xmlns:xlink="http://www.w3.org/1999/xlink">
    <title>Rpm</title>
    <g id="Rpm" stroke="none" stroke-width="1" fill="none" fill-rule="evenodd">
        <g id="编组" fill-rule="nonzero">
            <g id="download" transform="translate(0.000000, 6.802516)">
                <path d="M11.854049,0.25519317 C12.5063997,0.154957727 13.1643523,0.0816820364 13.8238563,0.0469568739 C13.9410189,0.0190422582 14.0622078,0.0247469383 14.1819033,0.0204688557 C15.1176652,-0.00937976311 16.0547168,-0.00802917442 16.9900844,0.0341106437 C18.6783303,0.153515284 20.3580266,0.433979156 21.9866202,0.901503279 L21.9797243,0.91064853 C21.7409625,1.23355698 21.5015015,1.55595723 21.2673668,1.8821843 C21.1972128,1.89512784 21.1358041,1.85075635 21.0733209,1.82840946 C19.8377161,1.3185412 18.5224406,1.02257123 17.1986136,0.862409796 C15.021125,0.639424878 12.7918556,0.818586868 10.7029204,1.48862848 C9.1649314,1.98605902 7.67970146,2.75308719 6.53282339,3.90977853 C5.72006186,4.74094323 5.09604235,5.81616724 5.01134146,6.99426399 C4.932526,7.555704 5.06695212,8.11617329 5.18586299,8.66100172 L0.0278330105,9.57028079 C0.0153668429,8.66018749 0.25286434,7.75976871 0.630823785,6.93643594 C1.38258958,5.33333938 2.68621303,4.05251092 4.13876676,3.07184181 C5.12095348,2.41238383 6.18265235,1.87438886 7.28538219,1.44779171 C8.75447094,0.873439921 10.2937091,0.481013784 11.854049,0.25519317 Z" id="path16" fill="#000000"></path>
                <path d="M21.2673668,1.8821843 C21.5015015,1.55595723 21.7409625,1.23355698 21.9797243,0.91064853 C24.1664043,1.5510917 26.278052,2.56240341 28.0029545,4.06932254 C28.7082595,4.70089649 29.3461736,5.41539532 29.8361081,6.22831268 C30.4162829,7.1849829 30.7839311,8.28056124 30.8232682,9.40297226 C29.1082326,9.10321993 27.3936745,8.80091046 25.678872,8.50013742 C25.8899242,7.82887919 25.891726,7.09803271 25.7472028,6.41302694 C25.4793549,5.22915911 24.7203808,4.21271136 23.8048836,3.4411207 C23.041702,2.7989533 22.1710294,2.28430421 21.2485601,1.90766534 L21.2673668,1.8821843 L21.2673668,1.8821843 Z" id="path20" fill="#D72123"></path>
                <path d="M14.9448093,6.61068011 C15.0457603,6.44628796 15.2235103,6.31516196 15.425685,6.33950009 C15.6542042,6.34534545 15.8303006,6.53418364 15.8776408,6.74789298 L32,9.61581738 L31.9461712,9.88591877 L15.8273146,7.05934069 C15.698728,7.28306416 15.4004429,7.39860721 15.1661013,7.26649508 C15.0036357,7.19547445 14.9482101,7.02162593 14.8748865,6.87576532 L13.882399,6.71674111 L13.927895,6.43754959 L14.9448093,6.61068011 L14.9448093,6.61068011 Z" id="path24" fill="#000000"></path>
                <path d="M9.23616796e-16,10.3809162 C0.94748922,10.3745541 1.89505363,10.3797436 2.84258089,10.3782721 C2.84351891,10.4133802 2.84539589,10.4835964 2.84633391,10.5187045 C3.53480528,10.3687775 4.24239511,10.3050162 4.94654896,10.3438853 C5.45927549,10.3908247 5.93003088,10.6105541 6.38856265,10.8286751 C5.87166655,11.1483572 5.34568771,11.4562317 4.84126441,11.7944691 C4.27916671,11.3603951 3.5152078,11.3600106 2.85969471,11.5499312 C2.85151373,11.6200689 2.84382125,11.6904482 2.84312296,11.7614618 C2.84345463,13.3926098 2.8439101,15.0237872 2.84293143,16.6549674 C1.89578494,16.6546404 0.948650406,16.655841 0.00151111291,16.6543695 C-0.000501804589,14.5632094 0.00251033094,12.4720595 9.23616796e-16,10.3809176 L9.23616796e-16,10.3809162 Z" id="path28" fill="#000000"></path>
                <path d="M8.62409684,10.3777455 C8.20693133,10.3773917 7.78976867,10.3776332 7.37263872,10.3812178 L7.37229134,18.3949678 L10.2180552,18.0046204 L10.2203471,16.7111481 C11.5291973,16.6558979 12.8151521,16.3266997 13.9722219,15.7076064 C14.603417,15.3523502 15.2235588,14.877051 15.5131247,14.1914955 C15.7598017,13.6200551 15.6499282,12.9495186 15.3356943,12.4272594 C14.9219226,11.7549423 14.2315517,11.308352 13.5178468,11.0061483 C12.3687073,10.5305675 11.1120029,10.3712121 9.87555531,10.3782315 C9.45839159,10.379098 9.0412627,10.3780992 8.62409684,10.3777455 Z M10.2222913,11.0707314 L10.222361,11.0707314 C10.9511407,11.1438628 11.6099041,11.5556751 12.1077082,12.0767734 C12.537006,12.5282802 12.8404641,13.1582621 12.7356246,13.7928149 C12.6210294,14.4285159 12.1787162,14.9449291 11.6813192,15.3293426 C11.2493128,15.6464793 10.7607695,15.9202905 10.222222,15.9920508 C10.2203628,14.3516093 10.2200865,12.711151 10.2222913,11.0707314 Z" id="path32" fill="#000000"></path>
                <path d="M17.4888105,10.3823508 C20.74478,10.3724062 24.0009541,10.3811362 27.2570203,10.3779783 C28.209603,10.381921 29.1780331,10.3879499 30.1046754,10.6343761 C30.3713638,10.7222218 30.7270294,10.8266847 30.7971765,11.1366819 C30.8041303,12.9759933 30.7997691,14.8157303 30.7992973,16.655216 C29.851614,16.6550291 28.9039783,16.654632 27.9563692,16.6554028 C27.9561824,14.830251 27.9524452,13.0050351 27.9582191,11.1799482 C27.7860626,11.0305845 27.5406347,11.0369568 27.3268838,11.0108724 C26.742423,10.9956576 26.1574932,11.006514 25.5729348,11.0048669 C25.5730282,12.8883405 25.5750416,14.7718292 25.5719444,16.6553141 C24.6229199,16.6544265 23.6739375,16.6555943 22.7249728,16.6547348 C22.7221606,15.1460557 22.7245523,13.6373846 22.7237769,12.1287241 C22.7161839,11.7990555 22.7402988,11.4681499 22.7094174,11.1395487 C22.4424141,11.0273233 22.1499235,11.0053359 21.8636305,11.0039634 C21.3553036,11.0031459 20.8470347,11.0043371 20.3388051,11.0034449 C20.3363152,12.8875567 20.3418695,14.7717082 20.3360209,16.6558139 C19.4424331,16.6546741 18.5488613,16.6540528 17.6553314,16.6561876 L17.4832118,16.6555056 C17.4979133,14.5763164 17.4867294,12.461724 17.4888152,10.3823437 L17.4888105,10.3823508 Z" id="path36" fill="#000000"></path>
            </g>
        </g>
    </g>
</svg>