<?xml version="1.0" encoding="UTF-8"?>
<svg width="18px" height="18px" viewBox="0 0 18 18" version="1.1" xmlns="http://www.w3.org/2000/svg" xmlns:xlink="http://www.w3.org/1999/xlink">
    <g id="质量规则展示优化" stroke="none" stroke-width="1" fill="none" fill-rule="evenodd">
        <g id="制品列表" transform="translate(-444.000000, -362.000000)" fill="#CBD5E0" fill-rule="nonzero">
            <g id="编组-+-编组-+-编组-+-编组-+-编组蒙版" transform="translate(190.000000, 231.000000)">
                <g id="编组" transform="translate(19.500000, 21.938190)">
                    <g transform="translate(128.500000, 71.561810)" id="未通过">
                        <g transform="translate(106.000000, 37.500000)">
                            <path d="M8.99978285,0.000292643906 L9.07821247,0.00706068236 L16.1297123,2.24290209 C16.3017001,2.29664828 16.4091925,2.45788684 16.4091925,2.62987464 L16.4091925,2.62987464 L16.3661955,11.6592342 C16.3446971,11.7237296 16.0652169,13.1963752 14.624819,14.6045253 C13.3456598,15.8621861 9.916653,17.5713148 9.23945104,17.9045412 L9.23945104,17.9045412 L9.18570485,17.9367889 C9.01371705,18.0227828 8.80948153,18.0227828 8.63749373,17.9260397 C8.55149983,17.8830427 8.42250898,17.8185473 8.23977194,17.7218042 C7.07885429,17.1198469 4.38079566,15.6901983 3.2736242,14.6045253 C1.8439756,13.1963752 1.55374619,11.7344788 1.54299695,11.6699834 L1.54299695,11.6699834 L1.53224771,11.5732403 L1.5,2.64062388 C1.5,2.45788684 1.61824161,2.30739752 1.77948018,2.25365133 L1.77948018,2.25365133 L8.83098001,0.0178099199 C8.91697391,-0.00368855519 9.00296781,-0.00368855519 9.07821247,0.00706068236 Z M9.33465352,11.4307061 C9.09708702,11.3173891 8.84772152,11.3223931 8.60456789,11.4055447 C8.38218618,11.4816128 8.20842632,11.6278198 8.14772364,11.8626059 C8.11521447,11.9882312 8.12190992,12.1252561 8.11995372,12.2572576 C8.11565744,12.5474513 8.26868578,12.7425879 8.51496505,12.870231 C8.70725704,12.9698879 8.91632817,12.985001 9.12656994,12.9501744 C9.36004315,12.9114936 9.54227279,12.7904271 9.66305321,12.5827838 C9.73972822,12.4509039 9.7429751,12.3059889 9.74039373,12.1766306 L9.74039373,12.0602465 C9.74005081,11.763394 9.5966221,11.5556858 9.33465352,11.4307061 Z M10.0285391,5.18078863 C9.63695489,5.07584532 9.23678211,5.07108342 8.83574023,5.11686624 C8.21084446,5.18821384 7.65958061,5.42388727 7.20549938,5.86535152 C7.01691835,6.04870522 6.86667333,6.26173845 6.79586691,6.51962815 C6.74643762,6.69965148 6.7435335,6.88106868 6.8568116,7.04150041 C7.05073736,7.316137 7.46327475,7.39412325 7.76398472,7.22426869 C7.90749286,7.14321589 7.99691341,7.0134141 8.09540915,6.88996781 C8.22869432,6.72295835 8.37682135,6.5743312 8.58020484,6.49107866 C8.78278228,6.40818913 8.99481745,6.38982766 9.21155291,6.37667189 C9.3248919,6.39144165 9.43976337,6.39878641 9.55124669,6.42229322 C10.0540698,6.52828534 10.2670738,7.17556011 9.93522565,7.56952765 C9.73379716,7.80869314 9.48717498,7.99345865 9.23898011,8.17717516 C8.60264994,8.6481395 8.27173026,9.27545966 8.27544099,10.0702941 C8.2758645,10.1630296 8.30238417,10.2648657 8.34650952,10.3464032 C8.46426502,10.5640995 8.66159824,10.6550397 8.9056604,10.6756208 C9.34185294,10.7124244 9.68578053,10.3408151 9.65667954,9.99077532 C9.64595067,9.86165794 9.66525062,9.72364439 9.7010672,9.59834185 C9.77197355,9.35031903 9.95037141,9.17336185 10.1473225,9.01968965 C10.4166736,8.80952144 10.7021791,8.61924672 10.963785,8.40013838 C11.234224,8.17364564 11.4153245,7.8816162 11.4782037,7.5275575 C11.5410037,7.17400594 11.5087769,6.82467206 11.4062277,6.48318791 C11.1970363,5.78633618 10.7199444,5.36605892 10.0285391,5.18078863 Z" id="形状结合"></path>
                        </g>
                    </g>
                </g>
            </g>
        </g>
    </g>
</svg>