<?xml version="1.0" encoding="UTF-8"?>
<svg width="14px" height="14px" viewBox="0 0 14 14" version="1.1" xmlns="http://www.w3.org/2000/svg" xmlns:xlink="http://www.w3.org/1999/xlink">
    <g id="Generic仓库新增批量上传功能" stroke="none" stroke-width="1" opacity="0.599518">
        <g id="Generic仓库" transform="translate(-16.000000, -480.000000)">
            <g id="编组备份" transform="translate(16.000000, 475.000000)">
                <g id="设置" transform="translate(0.000000, 5.000000)">
                    <path d="M5.03101197,0.0591733473 C5.15019673,0.0229010644 5.27849381,0.075098989 5.33850224,0.184276232 L5.37389543,0.246304886 L5.40171008,0.291600227 C5.75587906,0.84434636 6.35057916,1.18263606 7.00001763,1.18263606 C7.65353479,1.18263606 8.2508017,0.84036158 8.6015871,0.28857368 L8.64095766,0.223983606 L8.6610947,0.187069794 C8.71518177,0.0865774727 8.82691272,0.033486332 8.93698813,0.0521991362 L8.97117933,0.0600799934 L8.99842606,0.068721682 C10.0450482,0.393591627 10.9995671,0.971010089 11.788291,1.74831657 L11.8948096,1.85554694 L11.9293693,1.891161 C11.9880288,1.95267462 12.0127157,2.03782762 11.9952364,2.12689271 L11.9851398,2.16524546 L11.9707052,2.19769764 C11.6422851,2.81470122 11.6484557,3.55599859 11.986969,4.16720734 C12.2928527,4.71671974 12.8226952,5.07276904 13.412818,5.14884253 L13.4901189,5.15717028 L13.5355344,5.16045374 C13.6531577,5.16703332 13.7521058,5.25092401 13.7774532,5.36421377 L13.7939071,5.43925747 C13.885516,5.87670512 13.9377515,6.32402529 13.949379,6.77727842 L13.9518724,6.97188151 L13.9497964,7.15433257 C13.9383189,7.64036326 13.8793347,8.12416894 13.7735105,8.59961544 L13.7316321,8.77750406 L13.6857814,8.95289304 C13.6640689,9.03098195 13.6079565,9.0938293 13.5276153,9.12649623 L13.4917296,9.13860501 L13.4566202,9.1445623 L13.4330834,9.14693428 C12.8854326,9.21175219 12.3891892,9.51579548 12.0730398,9.98949 L12.0291146,10.0583072 L11.9870245,10.1304396 C11.7159099,10.6194188 11.655715,11.1960871 11.8162584,11.7261671 L11.8434432,11.8094572 L11.8722052,11.8868009 C11.9108503,11.9844211 11.8878245,12.0956692 11.8151401,12.1683653 L11.764276,12.2189078 C10.9715892,12.996835 10.0024485,13.5714046 8.93866736,13.8938479 L8.80644974,13.9315096 L8.76430199,13.9430741 C8.69034634,13.9631196 8.61216502,13.9498151 8.5434614,13.9023947 L8.51463722,13.8799807 L8.48765435,13.8507594 C8.46860523,13.8262793 8.44896582,13.8022637 8.42895323,13.7789658 C8.06696276,13.3596107 7.55223123,13.1158662 6.99994963,13.1158662 C6.51842274,13.1158662 6.06494359,13.3009359 5.71671746,13.6269335 L5.65637409,13.6859164 L5.60595198,13.7391498 L5.55922791,13.7934328 L5.51241461,13.8517545 C5.44686598,13.9348594 5.33793589,13.9706507 5.23594762,13.9426399 L5.05619539,13.891857 C4.06932739,13.5923003 3.163177,13.0750702 2.40329657,12.3784557 L2.29041972,12.272623 L2.18604095,12.170358 C2.13219836,12.1165951 2.10477296,12.0428102 2.11114252,11.9601364 L2.11596292,11.924193 L2.12730397,11.8869145 C2.35352402,11.3138242 2.31142312,10.6695727 2.01261076,10.1309176 C1.74857552,9.65616388 1.31695904,9.32417178 0.819585694,9.19435471 L0.740521451,9.17554606 L0.670903865,9.16183417 L0.607792141,9.15255793 L0.541365356,9.14508533 C0.461368432,9.13680582 0.390456307,9.09261371 0.344659212,9.01972152 L0.326616276,8.98674589 L0.314703265,8.95356343 C0.153300226,8.36664019 0.0645229973,7.76236597 0.0501922848,7.15436814 L0.0481282872,6.97187071 L0.0501842688,6.79189343 C0.0586199553,6.43211726 0.0929897013,6.07352217 0.153144435,5.71810335 L0.185369861,5.54066786 L0.221439418,5.36605155 C0.240521761,5.27874082 0.302187301,5.20818547 0.391942544,5.17500918 L0.426889157,5.1643605 L0.465376411,5.15925279 L0.495702439,5.157467 C1.07124787,5.11164035 1.59856167,4.80146602 1.92884472,4.30479666 L1.97264808,4.23592037 L2.01301873,4.16660248 C2.29652423,3.65517368 2.34900076,3.04908675 2.16193222,2.50105856 L2.13207428,2.41930886 L2.10074925,2.3430512 L2.06663911,2.27074643 L2.02843303,2.19702076 C1.98858913,2.12236427 1.98745642,2.03413325 2.02767944,1.95319596 L2.04745758,1.91901595 L2.07037716,1.8910522 C2.8480746,1.07536157 3.81364637,0.462479141 4.88347609,0.10569155 L5.03101197,0.0591733473 Z M9.29220833,1.38016667 L9.22206216,1.44959795 C8.62027839,2.02435519 7.83036279,2.3485692 6.99999631,2.3485692 C6.18121657,2.3485692 5.40186864,2.03328706 4.80218391,1.47236776 L4.72816921,1.40097852 L4.708375,1.38075 L4.55382284,1.4525916 C4.18913162,1.62823519 3.84400175,1.84161392 3.52486159,2.08859094 L3.38969719,2.19648321 L3.36578886,2.21682138 L3.36173662,2.22286163 L3.36150593,2.23013169 C3.54466597,3.00471167 3.45932559,3.81497684 3.12090879,4.53241476 L3.07319384,4.62965976 L3.01743096,4.73434613 C2.65127213,5.39192554 2.08920099,5.89690311 1.41898912,6.18098416 L1.32693455,6.21834687 L1.22009434,6.2568579 C1.21569893,6.2578959 1.21225048,6.26106951 1.21045147,6.26992715 L1.2092283,6.2808109 C1.19803647,6.38399931 1.18962707,6.48910988 1.18392453,6.59584153 L1.1773914,6.75711719 L1.17460464,6.94218793 C1.17460464,7.21848175 1.19239986,7.49264397 1.22763319,7.76210563 L1.2508629,7.923198 L1.26384426,7.99898164 L1.2669271,8.00529553 L1.27399859,8.00977471 L1.3406184,8.03499862 C1.98586126,8.29071717 2.5331712,8.74305891 2.90631934,9.32756615 L2.96097582,9.41622543 L3.01750865,9.51359494 C3.35031413,10.1129125 3.49871566,10.7960207 3.44568091,11.4791319 L3.43497371,11.5929694 L3.420702,11.7050074 L3.42124248,11.7115305 L3.42386326,11.7159258 L3.43815928,11.7273633 C3.82119708,12.035641 4.24195676,12.2933678 4.68893797,12.493972 L4.8388871,12.5587154 L4.97780046,12.6142854 L4.98456087,12.614952 L4.99079337,12.61214 L5.02779112,12.5821245 C5.53066005,12.1874255 6.1395,11.9529259 6.77755992,11.9074322 L6.89044643,11.9013718 L7.00000342,11.8996043 C7.70455939,11.8996043 8.38180818,12.1321224 8.94062886,12.5578222 L9.01570833,12.6172083 L9.15478015,12.562016 C9.56765758,12.390976 9.95906089,12.1724593 10.3203869,11.9114532 L10.4544575,11.8115939 L10.5749781,11.7165147 C10.57696,11.7148906 10.5784014,11.7127433 10.579232,11.7136425 L10.5800108,11.7177224 L10.5795293,11.7034955 C10.4822486,11.0264957 10.5860427,10.336696 10.8777089,9.71750351 L10.9280572,9.61497284 L10.9825558,9.51348694 C11.3499047,8.85356295 11.9149435,8.34702053 12.5899861,8.06298965 L12.682711,8.02564386 L12.7277017,8.00972536 L12.7333364,8.0058074 L12.7362284,7.99961374 L12.7492074,7.9249062 C12.7818086,7.71769479 12.8040078,7.50867969 12.8155781,7.29985441 L12.8222593,7.14330219 L12.8253954,6.94219399 C12.8253954,6.82882838 12.8224051,6.71608887 12.816473,6.60419639 L12.8053743,6.43702054 L12.7895879,6.26766283 C12.7890215,6.26247035 12.7854419,6.25810241 12.7770014,6.25537742 C12.090085,6.01615753 11.4984899,5.54853635 11.0935818,4.9184873 L11.0395328,4.83157093 L10.9823154,4.73282451 C10.5775368,4.00276293 10.4478695,3.15310544 10.6144778,2.33755968 L10.6378913,2.23139023 C10.6389184,2.22630317 10.6385227,2.2223253 10.6369149,2.21919894 L10.6336203,2.21511582 L10.6117548,2.19649144 C10.2542432,1.90229481 9.86284676,1.65224682 9.44608734,1.45160833 L9.29220833,1.38016667 Z M7,4.39565144 C8.43852961,4.39565144 9.60459991,5.56155944 9.60459991,7 C9.60459991,8.43843833 8.43852522,9.60434856 7,9.60434856 C5.56147039,9.60434856 4.39540009,8.43844056 4.39540009,7 C4.39540009,5.56156167 5.56147478,4.39565144 7,4.39565144 Z M7,5.55422636 C6.20114235,5.55422636 5.55397964,6.20129286 5.55397964,6.99981075 C5.55397964,7.79840967 6.20122516,8.44577364 7,8.44577364 C7.79877602,8.44577364 8.44602036,7.79841033 8.44602036,6.99981075 C8.44602036,6.20129351 7.79885647,5.55422636 7,5.55422636 Z"></path>
                </g>
            </g>
        </g>
    </g>
</svg>