<?xml version="1.0" standalone="no"?><!DOCTYPE svg PUBLIC "-//W3C//DTD SVG 1.1//EN" "http://www.w3.org/Graphics/SVG/1.1/DTD/svg11.dtd"><svg t="1634784762051" class="icon" viewBox="0 0 1024 1024" version="1.1" xmlns="http://www.w3.org/2000/svg" p-id="6828" xmlns:xlink="http://www.w3.org/1999/xlink" width="200" height="200"><defs><style type="text/css"></style></defs><path d="M218.88 456.96h159.573333L265.386667 343.893333c-43.093333 0-78.08-34.986667-78.08-78.506666a78.08 78.08 0 0 1 78.08-78.08c43.52 0 78.506667 34.986667 78.506666 78.08l113.066667 113.066666V218.88a78.506667 78.506667 0 0 1 0-110.506667 77.226667 77.226667 0 0 1 110.08 0c30.293333 30.293333 30.293333 79.786667 0 110.506667v159.573333l113.493333-113.066666a78.08 78.08 0 0 1 156.16 0c0 43.52-34.986667 78.506667-78.08 78.506666l-113.066666 113.066667h159.573333a78.506667 78.506667 0 0 1 110.506667 0c30.72 30.293333 30.72 79.786667 0 110.08-30.293333 30.293333-79.786667 30.293333-110.506667 0h-159.573333l113.066666 113.493333c43.093333 0 78.08 34.56 78.08 78.08a78.08 78.08 0 0 1-78.08 78.08c-43.52 0-78.08-34.986667-78.08-78.08l-113.493333-113.066666v159.573333c30.293333 30.72 30.293333 80.213333 0 110.506667-30.293333 30.72-79.786667 30.72-110.08 0a78.506667 78.506667 0 0 1 0-110.506667v-159.573333l-113.066667 113.066666c0 43.093333-34.986667 78.08-78.506666 78.08a78.08 78.08 0 0 1 0-156.16l113.066666-113.493333H218.88c-30.72 30.293333-80.213333 30.293333-110.506667 0a77.226667 77.226667 0 0 1 0-110.08 78.506667 78.506667 0 0 1 110.506667 0z" fill="#FFB300" p-id="6829"></path></svg>