<?xml version="1.0" standalone="no"?><!DOCTYPE svg PUBLIC "-//W3C//DTD SVG 1.1//EN" "http://www.w3.org/Graphics/SVG/1.1/DTD/svg11.dtd"><svg t="1636527585476" class="icon" viewBox="0 0 1024 1024" version="1.1" xmlns="http://www.w3.org/2000/svg" p-id="7498" xmlns:xlink="http://www.w3.org/1999/xlink" width="200" height="200"><defs><style type="text/css"></style></defs><path d="M512 529.92a206.848 206.848 0 0 0 206.656-206.592V219.264A172.416 172.416 0 0 0 546.432 47.04H477.568a172.416 172.416 0 0 0-172.224 172.224v104.064A206.848 206.848 0 0 0 512 529.92zM374.208 219.264c0-56.96 46.336-103.36 103.296-103.36h68.928c56.96 0 103.296 46.4 103.296 103.36v104.064a137.92 137.92 0 0 1-137.792 137.728 137.92 137.92 0 0 1-137.792-137.728l0.064-104.064z" p-id="7499"></path><path d="M689.792 531.456a99.328 99.328 0 0 0-105.152 53.248c-11.904 23.36-34.176 51.136-72.64 51.136s-60.736-27.776-72.64-51.136a99.328 99.328 0 0 0-105.216-53.248C152.064 561.6 29.824 699.648 29.824 875.072v25.408l24.256 7.488a1553.28 1553.28 0 0 0 915.776 0l24.256-7.488v-25.408c0.064-175.424-122.24-313.472-304.32-343.616z m-590.016 318.208c10.816-129.984 104.832-226.944 245.632-250.304a30.592 30.592 0 0 1 32.576 16.704c28.8 56.384 77.632 88.64 134.016 88.64 56.384 0 105.216-32.32 134.016-88.64a30.976 30.976 0 0 1 32.576-16.704c140.864 23.36 234.88 120.32 245.632 250.304a1490.752 1490.752 0 0 1-824.448 0z" p-id="7500"></path></svg>