<?xml version="1.0" standalone="no"?><!DOCTYPE svg PUBLIC "-//W3C//DTD SVG 1.1//EN" "http://www.w3.org/Graphics/SVG/1.1/DTD/svg11.dtd"><svg t="1588241180537" class="icon" viewBox="0 0 1024 1024" version="1.1" xmlns="http://www.w3.org/2000/svg" p-id="6476" xmlns:xlink="http://www.w3.org/1999/xlink" width="40" height="40"><defs><style type="text/css"></style></defs><path d="M171.008 275.456H0v474.112h171.008l399.36 274.432V0l-399.36 275.456M917.504 512c0 129.024-70.656 240.64-173.056 300.032l53.248 93.184c134.144-77.824 225.28-224.256 225.28-392.192 0-166.912-91.136-314.368-225.28-392.192l-53.248 93.184C847.872 271.36 917.504 382.976 917.504 512z m-185.344 0c0 60.416-31.744 111.616-81.92 140.288l51.2 89.088c79.872-45.056 133.12-131.072 133.12-229.376s-53.248-184.32-133.12-229.376l-51.2 89.088c49.152 28.672 81.92 79.872 81.92 140.288z" fill="#CC66FF" p-id="6477"></path></svg>