<?xml version="1.0" encoding="utf-8"?>
<!-- Generator: Adobe Illustrator 16.0.0, SVG Export Plug-In . SVG Version: 6.00 Build 0)  -->
<!DOCTYPE svg PUBLIC "-//W3C//DTD SVG 1.1//EN" "http://www.w3.org/Graphics/SVG/1.1/DTD/svg11.dtd">
<svg version="1.1" id="图层_1" xmlns="http://www.w3.org/2000/svg" xmlns:xlink="http://www.w3.org/1999/xlink" x="0px" y="0px"
	 width="40px" height="40px" viewBox="0 0 40 40" enable-background="new 0 0 40 40" xml:space="preserve">
<linearGradient id="SVGID_1_" gradientUnits="userSpaceOnUse" x1="20.0273" y1="1.6792" x2="20.0273" y2="38.2026">
	<stop  offset="0" style="stop-color:#EA2916"/>
	<stop  offset="1" style="stop-color:#CB0503"/>
</linearGradient>
<path fill="url(#SVGID_1_)" d="M38.289,36.924c0,0.709-0.572,1.278-1.275,1.278H3.042c-0.703,0-1.275-0.569-1.275-1.278V2.953
	c0-0.703,0.573-1.274,1.275-1.274h33.972c0.703,0,1.275,0.571,1.275,1.274V36.924z"/>
<path fill-rule="evenodd" clip-rule="evenodd" fill="#FFFFFF" d="M30.102,29.979c-1.139,0-2.274,0.007-3.42-0.003
	c-1.019-0.007-1.23-0.152-1.334-1.142c-0.469-4.4-4.13-6.538-7.016-6.906c-2.478-0.315-4.151,0.785-4.787,3.216
	c-0.425,1.607-0.425,1.61-2.065,1.614c-1.718,0.003-3.439,0.016-5.161,0c-0.996-0.007-1.106-0.163-0.989-1.123
	c0.217-1.738,1.212-2.994,2.735-3.639c1.736-0.738,3.601-1.171,5.41-1.734c0.28-0.091,0.583-0.107,0.844-0.225
	c0.278-0.12,0.519-0.315,0.776-0.479c-0.171-0.248-0.294-0.555-0.522-0.732c-0.46-0.352-0.976-0.625-1.461-0.948
	c-1.076-0.721-2.195-1.383-3.204-2.186c-1.435-1.146-2.353-2.637-2.554-4.508c-0.099-0.938,0.11-1.255,1.043-1.268
	c2.46-0.031,4.92-0.012,7.384-0.02c0.573-0.003,0.766,0.32,0.88,0.822c0.229,0.997,0.404,2.032,0.786,2.976
	c1.061,2.626,3.566,3.967,6.343,3.508c1.223-0.207,1.789-0.91,1.701-2.153c-0.003-0.05-0.006-0.104-0.01-0.156
	c-0.156-1.804-0.156-1.801,1.637-1.788c1.585,0.008,3.177-0.006,4.762,0.013c1.568,0.029,1.871,0.369,1.783,1.898
	c-0.107,1.865-1.013,3.077-2.815,3.582c-0.807,0.226-1.669,0.247-2.496,0.418c-0.462,0.096-0.907,0.304-1.356,0.46
	c0.325,0.361,0.599,0.776,0.973,1.063c1.175,0.904,2.425,1.708,3.566,2.648c1.585,1.302,2.782,2.896,3.147,4.988
	c0.055,0.31,0.052,0.632,0.074,0.947c0.059,0.622-0.254,0.855-0.843,0.853c-1.272-0.007-2.541-0.003-3.811-0.003
	C30.102,29.976,30.102,29.976,30.102,29.979z"/>
</svg>
